<?xml version="1.0" standalone="no"?>
<!DOCTYPE svg PUBLIC "-//W3C//DTD SVG 1.1//EN" "http://www.w3.org/Graphics/SVG/1.1/DTD/svg11.dtd" >
<svg>
<metadata>
Created by FontForge 20090914 at Mon Sep 29 08:25:36 2014
 By www-data
Copyright &#194;&#169; 1997 Microsoft Corporation. All rights reserved.
</metadata>
<defs>
<font id="MicrosoftSansSerif" horiz-adv-x="1139" >
  <font-face 
    font-family="Microsoft Sans Serif"
    font-weight="400"
    font-stretch="normal"
    units-per-em="2048"
    panose-1="2 11 6 4 2 2 2 2 2 4"
    ascent="1638"
    descent="-410"
    x-height="1061"
    cap-height="1466"
    bbox="-1188 -430.003 2458 1888"
    underline-thickness="102"
    underline-position="-169"
    unicode-range="U+0020-U+FFFC"
  />
<missing-glyph horiz-adv-x="600" 
d="M50 0v1536h500v-1536h-500zM158 108h284v1320h-284v-1320z" />
    <glyph glyph-name="unifc5e" unicode="&#x651;&#x64c;" horiz-adv-x="479" arabic-form="isolated" 
d="M459 1600l-97 24c-75.333 -47.333 -175 -77.333 -299 -90l15 188c0.666992 8 -1 14.167 -5 18.5s-10 6.5 -18 6.5l-55 -2v70l82 2c15.333 0.666992 28.833 -4.33301 40.5 -15s17.167 -23.667 16.5 -39l-10 -157c57.333 7.33301 111.333 22.333 162 45
c-64 20 -96 58.667 -96 116c0 80.667 43 121 129 121c36.667 0 67 -11 91 -33s36 -51.333 36 -88c0 -32.667 -13.667 -64 -41 -94l49 -6v-67zM461 1470c0 -44.667 -11.333 -80.666 -34 -107.999c-24 -30 -57.667 -45 -101 -45c-42.667 0 -72 14.333 -88 43
c-19.333 -53.333 -57 -80 -113 -80c-83.333 0 -125 41.667 -125 125c-0 19.333 1.33301 45.333 4 78h70c-2.66699 -22.667 -4 -47.334 -4 -74.001c0 -39.333 18.333 -59 55 -59c46.667 0 70 38 70 114v52h69v-43c0 -58 20.667 -87 62 -87c43.333 0 65 28 65 84
c0 36 -2 61.333 -6 76h72c2.66699 -20 4 -45.333 4 -76zM381 1765c0 36 -18.333 53.999 -55 53.999c-41.333 0 -62 -18 -62 -54c0 -35.333 28 -59.666 84 -72.999c22 22 33 46.333 33 73z" />
    <glyph glyph-name="unifc5f" unicode="&#x651;&#x64d;" horiz-adv-x="479" arabic-form="isolated" 
d="M457 1836c2.66699 -20 4.00098 -45.332 4.00098 -75.999c0 -48 -12.333 -85.667 -37 -113s-57.334 -41 -98.001 -41c-42.667 0 -72 14.333 -88 43c-19.333 -53.333 -57 -80 -113 -80c-83.333 0 -125 41.667 -125 125c-0 19.333 1.33301 45.333 4 78h70
c-2.66699 -22 -4 -46.667 -4 -74c0 -39.333 18.333 -59 55 -59c46.667 0 70 38.333 70 115v51h69v-43c0 -57.333 20.667 -86 62 -86c43.333 0 65 28 65 84c0 35.333 -2 60.666 -6 75.999h72zM446.001 1504l-430 -74v74l430 73v-73zM446.001 1354l-430 -74v74l430 74v-74z
" />
    <glyph glyph-name="afii62884" unicode="&#x651;&#x64e;" horiz-adv-x="479" arabic-form="isolated" 
d="M457 1546c2.66699 -20 4.00098 -45.333 4.00098 -76c0 -47.333 -12.333 -84.666 -37 -111.999s-57.334 -41 -98.001 -41c-42.667 0 -72 14.333 -88 43c-19.333 -53.333 -57 -80 -113 -80c-83.333 0 -125 41.667 -125 125c-0 19.333 1.33301 45.333 4 78h70
c-2.66699 -22.667 -4 -47.334 -4 -74.001c0 -39.333 18.333 -59 55 -59c46.667 0 70 38 70 114v52h69v-43c0 -58 20.667 -87 62 -87c43.333 0 65 28 65 84c0 36 -2 61.333 -6 76h72zM446.001 1614l-430 -74v74l430 74v-74z" />
    <glyph glyph-name="afii62885" unicode="&#x651;&#x64f;" horiz-adv-x="479" arabic-form="isolated" 
d="M457 1546c2.66699 -20 4.00098 -45.333 4.00098 -76c0 -47.333 -12.333 -84.666 -37 -111.999s-57.334 -41 -98.001 -41c-42.667 0 -72 14.333 -88 43c-19.333 -53.333 -57 -80 -113 -80c-83.333 0 -125 41.667 -125 125c-0 19.333 1.33301 45.333 4 78h70
c-2.66699 -22.667 -4 -47.334 -4 -74.001c0 -39.333 18.333 -59 55 -59c46.667 0 70 38 70 114v52h69v-43c0 -58 20.667 -87 62 -87c43.333 0 65 28 65 84c0 36 -2 61.333 -6 76h72zM418.001 1602l-94.001 22c-85.333 -51.333 -177.666 -80 -276.999 -86v70
c66.667 1.33301 133.667 16.333 201 45c-62.667 24.667 -94 62.667 -94 114c0 36.667 11.5 66 34.5 88s53.833 33 92.5 33c36 0 66.5 -11.5 91.5 -34.5s37.5 -52.5 37.5 -88.5c0 -28.667 -13 -58 -39 -88l47 -10v-65zM307 1692c22 22 33.001 46.332 33.001 72.999
c0 14.667 -5.83301 27.334 -17.5 38.001s-24.834 16 -39.501 16c-40 0 -60 -18 -60 -54c0 -34 28 -58.333 84 -73z" />
    <glyph glyph-name="afii62886" unicode="&#x651;&#x650;" horiz-adv-x="479" arabic-form="isolated" 
d="M457 1686c2.66699 -20 4.00098 -45.332 4.00098 -75.999c0 -48 -12.333 -85.667 -37 -113s-57.334 -41 -98.001 -41c-42.667 0 -72 14.333 -88 43c-19.333 -53.333 -57 -80 -113 -80c-83.333 0 -125 41.667 -125 125c-0 19.333 1.33301 45.333 4 78h70
c-2.66699 -22 -4 -46.667 -4 -74c0 -39.333 18.333 -59 55 -59c46.667 0 70 38.333 70 115v51h69v-43c0 -57.333 20.667 -86 62 -86c43.333 0 65 28 65 84c0 35.333 -2 60.666 -6 75.999h72zM446.001 1354l-430 -74v74l430 73v-73z" />
    <glyph glyph-name="unifdf2" unicode="&#xfedf;&#xfee0;&#xfeea;" horiz-adv-x="1653" arabic-form="isolated" 
d="M1276 1590c0 -44.667 -11.333 -80.666 -34 -107.999c-24 -30 -57.667 -45 -101 -45c-42.667 0 -72 14.333 -88 43c-19.333 -53.333 -57 -80 -113 -80c-83.333 0 -125 41.667 -125 125c0 19.333 1.33301 45.333 4 78h70c-2.66699 -22.667 -4 -47.334 -4 -74.001
c0 -39.333 18.333 -59 55 -59c46.667 0 70 38 70 114v52h69v-43c0 -58 20.667 -87 62 -87c43.333 0 65 28 65 84c0 36 -2 61.333 -6 76h72c2.66699 -20 4 -45.333 4 -76zM1571 300.001c0 -96 -26.8311 -172.666 -80.498 -229.999s-124.167 -86 -211.5 -86
c-98 0 -174.333 35 -229 105c-54.667 -70 -131.334 -105 -230.001 -105c-101.333 0 -175.333 46.333 -222 139c-35.333 69.333 -53 159.333 -53 270c-22.667 -36.667 -55.667 -67.334 -99 -92.001s-86.333 -37 -129 -37c-79.333 0 -141 29.333 -185 88
c-40 52.667 -60 119.667 -60 201c0 116 51.667 216.333 155 301c88 72 194 119.667 318 143v72h131v-695c0 -56.667 11 -103.667 33 -141c25.333 -43.333 62.333 -65 111 -65c51.333 0 92.333 21.333 123 64c27.333 38.667 41 86 41 142v910h131v-910
c0 -56 13.333 -103.333 40 -142c29.333 -42.667 69.666 -64 120.999 -64s92.333 21.333 123 64c27.333 38.667 41 86 41 142v910h131v-984zM545.002 569.002v293.001c-90 -18.667 -166 -51.334 -228 -98.001c-76 -57.333 -114 -127 -114 -209c0 -79.333 38 -119 114 -119
c96 0 172 44.333 228 133zM1010 1724v164h69v-164h-69z" />
    <glyph glyph-name="afii62834" unicode="&#xfedf;&#xfe82;" horiz-adv-x="1116" arabic-form="isolated" 
d="M987 0l-697.999 -0.00195312v188c178.667 128 320 299.333 424 514c-123.333 222.667 -357 482.334 -701 779.001h275c209.333 -205.333 373.666 -409.666 492.999 -612.999c50.667 152 76 312 76 480v208h131v-208c0 -222 -42.333 -433 -127 -633
c84.667 -184 127 -371.667 127 -563v-152zM856.001 187.998c0 120.667 -24.668 243 -74.001 367c-85.333 -152 -185.666 -274.333 -300.999 -367h375zM383 1636c-34 -26 -71 -39 -111 -39c-16.667 0 -45.167 7.5 -85.5 22.5s-69.166 22.5 -86.499 22.5
c-24 0 -60.667 -15 -110 -45v74c40 27.333 76.667 41 110 41c17.333 0 46.166 -7.5 86.499 -22.5s68.833 -22.5 85.5 -22.5c34 0 71 14.333 111 43v-74z" />
    <glyph glyph-name="afii62835" unicode="&#xfee0;&#xfe82;" horiz-adv-x="1219" arabic-form="final" 
d="M1219 0c-95.333 0 -169.334 29.168 -222.001 87.501s-79 139.833 -79 244.5v282c-32.667 -39.333 -56.667 -72.666 -72 -99.999c-14 -62 -57.833 -147.333 -131.5 -256s-146.5 -194.667 -218.5 -258h-248c114 80.667 221.333 183.167 322 307.5s151 216.5 151 276.5
c0 99.333 -61 231.666 -183 396.999s-283.667 332 -485 500h283c302.667 -335.333 472.667 -617.333 510 -846c48 55.333 72 98.333 72 129v792h131v-1212c0 -56.667 12.833 -96.834 38.5 -120.501s67.834 -35.5 126.501 -35.5h5v-188zM423.999 1636
c-34 -26 -71 -39 -111 -39c-16.667 0 -45.167 7.5 -85.5 22.5s-69.166 22.5 -86.499 22.5c-24 0 -60.667 -15 -110 -45v74c40 27.333 76.667 41 110 41c17.333 0 46.166 -7.5 86.499 -22.5s68.833 -22.5 85.5 -22.5c34 0 71 14.333 111 43v-74z" />
    <glyph glyph-name="afii62836" unicode="&#xfedf;&#xfe84;" horiz-adv-x="1116" arabic-form="isolated" 
d="M987 0l-697.999 -0.00195312v188c178.667 128 320 299.333 424 514c-123.333 222.667 -357 482.334 -701 779.001h275c209.333 -205.333 373.666 -409.666 492.999 -612.999c50.667 152 76 312 76 480v208h131v-208c0 -222 -42.333 -433 -127 -633
c84.667 -184 127 -371.667 127 -563v-152zM856.001 187.998c0 120.667 -24.668 243 -74.001 367c-85.333 -152 -185.666 -274.333 -300.999 -367h375zM281 1610h-252.002v70h56c-28.667 16 -43 41.667 -43 77c0 34 12.167 62.667 36.5 86s55.833 35 94.5 35
c36.667 0 65.334 -4 86.001 -12v-74c-24 11.333 -52 17 -84 17c-44 0 -66 -17.333 -66 -52c0 -21.333 11.333 -39.5 34 -54.5s50.334 -22.5 83.001 -22.5h55v-70z" />
    <glyph glyph-name="afii62837" unicode="&#xfee0;&#xfe84;" horiz-adv-x="1219" arabic-form="final" 
d="M1219 0c-95.333 0 -169.334 29.168 -222.001 87.501s-79 139.833 -79 244.5v282c-32.667 -39.333 -56.667 -72.666 -72 -99.999c-14 -62 -57.833 -147.333 -131.5 -256s-146.5 -194.667 -218.5 -258h-248c114 80.667 221.333 183.167 322 307.5s151 216.5 151 276.5
c0 99.333 -61 231.666 -183 396.999s-283.667 332 -485 500h283c302.667 -335.333 472.667 -617.333 510 -846c48 55.333 72 98.333 72 129v792h131v-1212c0 -56.667 12.833 -96.834 38.5 -120.501s67.834 -35.5 126.501 -35.5h5v-188zM321.999 1610h-252.002v70h56
c-28.667 16 -43 41.667 -43 77c0 34 12.167 62.667 36.5 86s55.833 35 94.5 35c36.667 0 65.334 -4 86.001 -12v-74c-24 11.333 -52 17 -84 17c-44 0 -66 -17.333 -66 -52c0 -21.333 11.333 -39.5 34 -54.5s50.334 -22.5 83.001 -22.5h55v-70z" />
    <glyph glyph-name="afii62838" unicode="&#xfedf;&#xfe88;" horiz-adv-x="1116" arabic-form="isolated" 
d="M987 0l-697.999 -0.00195312v188c178.667 128 320 299.333 424 514c-123.333 222.667 -357 482.334 -701 779.001h275c209.333 -205.333 373.666 -409.666 492.999 -612.999c50.667 152 76 312 76 480v208h131v-208c0 -222 -42.333 -433 -127 -633
c84.667 -184 127 -371.667 127 -563v-152zM856.001 187.998c0 120.667 -24.668 243 -74.001 367c-85.333 -152 -185.666 -274.333 -300.999 -367h375zM322 -362.002h-252.002v70h56c-28.667 16 -43 41.667 -43 77c0 34 12.167 62.667 36.5 86s55.833 35 94.5 35
c36.667 0 65.334 -4 86.001 -12v-74c-24 11.333 -52 17 -84 17c-44 0 -66 -17.333 -66 -52c0 -21.333 11.333 -39.5 34 -54.5s50.334 -22.5 83.001 -22.5h55v-70z" />
    <glyph glyph-name="afii62839" unicode="&#xfee0;&#xfe88;" horiz-adv-x="1219" arabic-form="final" 
d="M1219 0c-95.333 0 -169.334 29.168 -222.001 87.501s-79 139.833 -79 244.5v282c-32.667 -39.333 -56.667 -72.666 -72 -99.999c-14 -62 -57.833 -147.333 -131.5 -256s-146.5 -194.667 -218.5 -258h-248c114 80.667 221.333 183.167 322 307.5s151 216.5 151 276.5
c0 99.333 -61 231.666 -183 396.999s-283.667 332 -485 500h283c302.667 -335.333 472.667 -617.333 510 -846c48 55.333 72 98.333 72 129v792h131v-1212c0 -56.667 12.833 -96.834 38.5 -120.501s67.834 -35.5 126.501 -35.5h5v-188zM321.999 -361.999h-252.002v70h56
c-28.667 16 -43 41.667 -43 77c0 34 12.167 62.667 36.5 86s55.833 35 94.5 35c36.667 0 65.334 -4 86.001 -12v-74c-24 11.333 -52 17 -84 17c-44 0 -66 -17.333 -66 -52c0 -21.333 11.333 -39.5 34 -54.5s50.334 -22.5 83.001 -22.5h55v-70z" />
    <glyph glyph-name="afii62840" unicode="&#xfedf;&#xfe8e;" horiz-adv-x="1116" arabic-form="isolated" 
d="M987 0l-697.999 -0.00195312v188c178.667 128 320 299.333 424 514c-123.333 222.667 -357 482.334 -701 779.001h275c209.333 -205.333 373.666 -409.666 492.999 -612.999c50.667 152 76 312 76 480v208h131v-208c0 -222 -42.333 -433 -127 -633
c84.667 -184 127 -371.667 127 -563v-152zM856.001 187.998c0 120.667 -24.668 243 -74.001 367c-85.333 -152 -185.666 -274.333 -300.999 -367h375z" />
    <glyph glyph-name="afii62841" unicode="&#xfee0;&#xfe8e;" horiz-adv-x="1219" arabic-form="final" 
d="M1219 0c-95.333 0 -169.334 29.168 -222.001 87.501s-79 139.833 -79 244.5v282c-32.667 -39.333 -56.667 -72.666 -72 -99.999c-14 -62 -57.833 -147.333 -131.5 -256s-146.5 -194.667 -218.5 -258h-248c114 80.667 221.333 183.167 322 307.5s151 216.5 151 276.5
c0 99.333 -61 231.666 -183 396.999s-283.667 332 -485 500h283c302.667 -335.333 472.667 -617.333 510 -846c48 55.333 72 98.333 72 129v792h131v-1212c0 -56.667 12.833 -96.834 38.5 -120.501s67.834 -35.5 126.501 -35.5h5v-188z" />
    <glyph glyph-name="afii57409" unicode="&#x621;" horiz-adv-x="844" arabic-form="isolated" 
d="M727 174l-544.999 -168v187l156 47c-58.667 14 -106.834 42.5 -144.501 85.5s-56.5 90.833 -56.5 143.5c0 92.667 28.5 166.334 85.5 221.001s130.167 82 219.5 82c79.333 0 149 -6 209 -18v-187h-12c-60 15.333 -122.667 23 -188 23c-122 0 -183 -46.333 -183 -139
c0 -60.667 35 -103.834 105 -129.501s117.667 -34.5 143 -26.5l211 65v-186z" />
    <glyph glyph-name="afii52400" unicode="&#x622;" horiz-adv-x="479" arabic-form="isolated" 
d="M305 0h-131v1556h131v-1556zM432 1676c-34 -26 -71 -39 -111 -39c-16.667 0 -45.167 7.5 -85.5 22.5s-69.166 22.5 -86.499 22.5c-24 0 -60.667 -15 -110 -45v74c40 27.333 76.667 41 110 41c17.333 0 46.166 -7.5 86.499 -22.5s68.833 -22.5 85.5 -22.5
c34 0 71 14.333 111 43v-74z" />
    <glyph glyph-name="afii57411" unicode="&#x623;" horiz-adv-x="479" arabic-form="isolated" 
d="M305 0h-131v1556h131v-1556zM365 1610h-252.002v70h56c-28.667 16 -43 41.667 -43 77c0 34 12.167 62.667 36.5 86s55.833 35 94.5 35c36.667 0 65.334 -4 86.001 -12v-74c-24 11.333 -52 17 -84 17c-44 0 -66 -17.333 -66 -52c0 -21.333 11.333 -39.5 34 -54.5
s50.334 -22.5 83.001 -22.5h55v-70z" />
    <glyph glyph-name="afii57412" unicode="&#x624;" horiz-adv-x="868" arabic-form="final" 
d="M657 154c-27.333 -27.333 -64 -40.999 -110 -40.999c-73.333 0 -136.333 28.333 -189 85s-79 134 -79 232c0 100.667 26.5 188.334 79.5 263.001s107.5 112 163.5 112c70 0 131.5 -54.833 184.5 -164.5s79.5 -257.5 79.5 -443.5
c0 -202.667 -66.833 -356.834 -200.5 -462.501s-328.834 -158.5 -585.501 -158.5v188c216.667 0 380.334 33.667 491.001 101s166 163.666 166 288.999zM645 340.001c0 62 -13.998 123.498 -41.998 184.498s-55.667 91.5 -83 91.5c-26 0 -50.833 -19.167 -74.5 -57.5
s-35.5 -79.166 -35.5 -122.499c0 -39.333 13.167 -71.666 39.5 -96.999s60.166 -38 101.499 -38c43.333 0 74.666 13 93.999 39zM631.002 978.999h-252.002v70h56c-28.667 16 -43 41.667 -43 77c0 34 12.167 62.667 36.5 86s55.833 35 94.5 35
c36.667 0 65.334 -4 86.001 -12v-74c-24 11.333 -52 17 -84 17c-44 0 -66 -17.333 -66 -52c0 -21.333 11.333 -39.5 34 -54.5s50.334 -22.5 83.001 -22.5h55v-70z" />
    <glyph glyph-name="afii57413" unicode="&#x625;" horiz-adv-x="479" arabic-form="isolated" 
d="M305 0h-131v1556h131v-1556zM365 -362h-252.002v70h56c-28.667 16 -43 41.667 -43 77c0 34 12.167 62.667 36.5 86s55.833 35 94.5 35c36.667 0 65.334 -4 86.001 -12v-74c-24 11.333 -52 17 -84 17c-44 0 -66 -17.333 -66 -52c0 -21.333 11.333 -39.5 34 -54.5
s50.334 -22.5 83.001 -22.5h55v-70z" />
    <glyph glyph-name="afii57414" unicode="&#x626;" horiz-adv-x="1311" arabic-form="isolated" 
d="M1239 866l-10 -0.00195312c-100 58.667 -206.667 88 -320 88c-54.667 0 -100 -12 -136 -36s-54 -53 -54 -87c0 -29.333 12.667 -57.166 38 -83.499s92.166 -67 200.499 -122s181 -103.167 218 -144.5s55.5 -90.333 55.5 -147c0 -107.333 -59.167 -189.833 -177.5 -247.5
s-293.5 -86.5 -525.5 -86.5c-331.333 0 -497 147.333 -497 442c0 66 6.66699 150 20 252h133v-10c-14.667 -90 -22 -170 -22 -240c0 -88.667 29.167 -153.5 87.5 -194.5s151.833 -61.5 280.5 -61.5c184.667 0 325.834 14 423.501 42s146.5 64 146.5 108
c0 28 -15.667 55.167 -47 81.5s-96.5 63.5 -195.5 111.5s-168.667 95.833 -209 143.5s-60.5 100.834 -60.5 159.501c0 81.333 31.333 152.5 94 213.5s144.667 91.5 246 91.5c111.333 0 215 -20 311 -60v-213zM410 865.998h-252.002v70h56c-28.667 16 -43 41.667 -43 77
c0 34 12.167 62.667 36.5 86s55.833 35 94.5 35c36.667 0 65.334 -4 86.001 -12v-74c-24 11.333 -52 17 -84 17c-44 0 -66 -17.333 -66 -52c0 -21.333 11.333 -39.5 34 -54.5s50.334 -22.5 83.001 -22.5h55v-70z" />
    <glyph glyph-name="afii57415" unicode="&#x627;" horiz-adv-x="479" arabic-form="isolated" 
d="M305 0h-131v1556h131v-1556z" />
    <glyph glyph-name="afii57416" unicode="&#x628;" horiz-adv-x="1464" arabic-form="final" 
d="M1382 291c0 -93.333 -40.167 -165.167 -120.5 -215.5s-198.5 -75.5 -354.5 -75.5h-327c-333.333 0 -500 159 -500 477c0 76 10.333 156 31 240h131v-10c-20.667 -74 -31 -146.667 -31 -218c0 -106.667 29 -183.5 87 -230.5s152.667 -70.5 284 -70.5h317
c113.333 0 200.333 13 261 39s91 72 91 138v352h131v-426zM877 -293.001h-148v147h148v-147z" />
    <glyph glyph-name="afii57417" unicode="&#x629;" horiz-adv-x="635" arabic-form="isolated" 
d="M113 930c144 -8.66699 260.167 -67.499 348.5 -176.499s132.5 -229.167 132.5 -360.5c0 -122.667 -25.167 -220.834 -75.5 -294.501s-113.833 -110.5 -190.5 -110.5c-82 0 -147 33.333 -195 100s-72 161.667 -72 285c0 132 44.667 257.667 134 377
c-24.667 6.66699 -52 10 -82 10v170zM463 393.001c0 135.333 -54.668 239.999 -164.001 313.999c-70.667 -91.333 -106 -202.666 -106 -333.999c0 -63.333 12.333 -112 37 -146s57.334 -51 98.001 -51c90 0 135 72.333 135 217zM526.999 1104h-147v147h147v-147z
M256.999 1104h-148v147h148v-147z" />
    <glyph glyph-name="afii57418" unicode="&#x62a;" horiz-adv-x="1464" arabic-form="final" 
d="M1382 291c0 -93.333 -40.167 -165.167 -120.5 -215.5s-198.5 -75.5 -354.5 -75.5h-327c-333.333 0 -500 159 -500 477c0 76 10.333 156 31 240h131v-10c-20.667 -74 -31 -146.667 -31 -218c0 -106.667 29 -183.5 87 -230.5s152.667 -70.5 284 -70.5h317
c113.333 0 200.333 13 261 39s91 72 91 138v352h131v-426zM971 814.999h-147v147h147v-147zM701 814.999h-148v147h148v-147z" />
    <glyph glyph-name="afii57419" unicode="&#x62b;" horiz-adv-x="1464" arabic-form="final" 
d="M1382 291c0 -93.333 -40.167 -165.167 -120.5 -215.5s-198.5 -75.5 -354.5 -75.5h-327c-333.333 0 -500 159 -500 477c0 76 10.333 156 31 240h131v-10c-20.667 -74 -31 -146.667 -31 -218c0 -106.667 29 -183.5 87 -230.5s152.667 -70.5 284 -70.5h317
c113.333 0 200.333 13 261 39s91 72 91 138v352h131v-426zM836 1024h-148v147h148v-147zM983 814.999h-147v147h147v-147zM688 814.999h-147v147h147v-147z" />
    <glyph glyph-name="afii57420" unicode="&#x62c;" horiz-adv-x="1112" arabic-form="isolated" 
d="M1094 -328c-106.667 -64 -252.996 -96.002 -438.996 -96.002c-165.333 0 -301.5 48.667 -408.5 146s-160.5 228.333 -160.5 393c0 165.333 72.5 297.333 217.5 396s326.5 148 544.5 148c-174.667 75.333 -384.334 113 -629.001 113h-78v186h88
c125.333 0 260.666 -25.667 405.999 -77s281.666 -121.666 408.999 -210.999v-131h-147c-212.667 0 -379.167 -38.167 -499.5 -114.5s-180.5 -178.166 -180.5 -305.499c0 -114 41 -202.333 123 -265s186.333 -94 313 -94c179.333 0 322.666 37 429.999 111h11v-199z
M728.004 65.998h-148v147h148v-147z" />
    <glyph glyph-name="afii57421" unicode="&#x62d;" horiz-adv-x="1112" arabic-form="isolated" 
d="M1094 -328c-106.667 -64 -252.996 -96.002 -438.996 -96.002c-165.333 0 -301.5 48.667 -408.5 146s-160.5 228.333 -160.5 393c0 165.333 72.5 297.333 217.5 396s326.5 148 544.5 148c-174.667 75.333 -384.334 113 -629.001 113h-78v186h88
c125.333 0 260.666 -25.667 405.999 -77s281.666 -121.666 408.999 -210.999v-131h-147c-212.667 0 -379.167 -38.167 -499.5 -114.5s-180.5 -178.166 -180.5 -305.499c0 -114 41 -202.333 123 -265s186.333 -94 313 -94c179.333 0 322.666 37 429.999 111h11v-199z" />
    <glyph glyph-name="afii57422" unicode="&#x62e;" horiz-adv-x="1112" arabic-form="isolated" 
d="M1094 -328c-106.667 -64 -252.996 -96.002 -438.996 -96.002c-165.333 0 -301.5 48.667 -408.5 146s-160.5 228.333 -160.5 393c0 165.333 72.5 297.333 217.5 396s326.5 148 544.5 148c-174.667 75.333 -384.334 113 -629.001 113h-78v186h88
c125.333 0 260.666 -25.667 405.999 -77s281.666 -121.666 408.999 -210.999v-131h-147c-212.667 0 -379.167 -38.167 -499.5 -114.5s-180.5 -178.166 -180.5 -305.499c0 -114 41 -202.333 123 -265s186.333 -94 313 -94c179.333 0 322.666 37 429.999 111h11v-199z
M769.004 1120h-148v147h148v-147z" />
    <glyph glyph-name="afii57423" unicode="&#x62f;" horiz-adv-x="696" arabic-form="final" 
d="M190 956c310 -227.333 465 -437.999 465 -631.999c0 -98.667 -31.5 -177.334 -94.5 -236.001s-153.5 -88 -271.5 -88h-279v188h277c74 0 132 13 174 39s63 57.667 63 95c0 122 -114.667 255 -344 399v235h10z" />
    <glyph glyph-name="afii57424" unicode="&#x630;" horiz-adv-x="696" arabic-form="final" 
d="M190 956c310 -227.333 465 -437.999 465 -631.999c0 -98.667 -31.5 -177.334 -94.5 -236.001s-153.5 -88 -271.5 -88h-279v188h277c74 0 132 13 174 39s63 57.667 63 95c0 122 -114.667 255 -344 399v235h10zM205 1130h-148v147h148v-147z" />
    <glyph glyph-name="afii57425" unicode="&#x631;" horiz-adv-x="993" arabic-form="final" 
d="M786 516c70 -109.333 105.001 -219.334 105.001 -330.001c0 -199.333 -75.667 -350.833 -227 -454.5s-345.333 -155.5 -582 -155.5v188c203.333 0 367.166 33.333 491.499 100s186.5 163.334 186.5 290.001c0 109.333 -55.333 226 -166 350v12h192z" />
    <glyph glyph-name="afii57426" unicode="&#x632;" horiz-adv-x="993" arabic-form="final" 
d="M786 516c70 -109.333 105.001 -219.334 105.001 -330.001c0 -199.333 -75.667 -350.833 -227 -454.5s-345.333 -155.5 -582 -155.5v188c203.333 0 367.166 33.333 491.499 100s186.5 163.334 186.5 290.001c0 109.333 -55.333 226 -166 350v12h192zM742.001 689.999h-148
v147h148v-147z" />
    <glyph glyph-name="afii57427" unicode="&#x633;" horiz-adv-x="1688" arabic-form="final" 
d="M1606 188c0 -125.333 -60.999 -188 -182.999 -188h-82c-97.333 0 -163.333 24 -198 72c-35.333 -48 -101.666 -72 -198.999 -72c-70.667 0 -123.334 22.667 -158.001 68c-48.667 -328 -185.667 -492 -411 -492c-106 0 -193.333 45 -262 135s-103 217 -103 381
c0 112.667 9 215.667 27 309h131v-16c-18 -88.667 -27 -187 -27 -295c0 -102.667 20.667 -182.667 62 -240s98.666 -86 171.999 -86c203.333 0 305 186 305 558v100h131v-100c0 -89.333 44.333 -134 133 -134s133 44.667 133 134v100h131v-100
c0 -89.333 44.333 -134 133 -134c89.333 0 134 26.667 134 80v367h131v-447z" />
    <glyph glyph-name="afii57428" unicode="&#x634;" horiz-adv-x="1688" arabic-form="final" 
d="M1606 188c0 -125.333 -60.999 -188 -182.999 -188h-82c-97.333 0 -163.333 24 -198 72c-35.333 -48 -101.666 -72 -198.999 -72c-70.667 0 -123.334 22.667 -158.001 68c-48.667 -328 -185.667 -492 -411 -492c-106 0 -193.333 45 -262 135s-103 217 -103 381
c0 112.667 9 215.667 27 309h131v-16c-18 -88.667 -27 -187 -27 -295c0 -102.667 20.667 -182.667 62 -240s98.666 -86 171.999 -86c203.333 0 305 186 305 558v100h131v-100c0 -89.333 44.333 -134 133 -134s133 44.667 133 134v100h131v-100
c0 -89.333 44.333 -134 133 -134c89.333 0 134 26.667 134 80v367h131v-447zM1161 926h-148v147h148v-147zM1308 717h-147v147h147v-147zM1013 717h-147v147h147v-147z" />
    <glyph glyph-name="afii57429" unicode="&#x635;" horiz-adv-x="2232" arabic-form="final" 
d="M1053 188c154.667 218 291.17 377 409.503 477s232.166 150 341.499 150c100 0 189.5 -54 268.5 -162s118.5 -225.333 118.5 -352c0 -92 -42.333 -165.167 -127 -219.5s-200 -81.5 -346 -81.5h-743c-76.667 -0 -140.334 16.333 -191.001 49
c-52.667 -315.333 -189 -473 -409 -473c-106 0 -193.333 45 -262 135s-103 217 -103 381c0 112.667 9 215.667 27 309h131v-16c-18 -88.667 -27 -187 -27 -295c0 -102.667 20.667 -182.667 62 -240s98.666 -86 171.999 -86c203.333 0 305 186 305 558v100h131v-43
c0 -127.333 53.333 -191 160 -191h82zM1204 188h495.999c108 0 195 11.5 261 34.5s99 52.5 99 88.5c0 88 -28 163 -84 225s-114 93 -174 93c-183.333 0 -382.666 -147 -597.999 -441z" />
    <glyph glyph-name="afii57430" unicode="&#x636;" horiz-adv-x="2232" arabic-form="final" 
d="M1053 188c154.667 218 291.17 377 409.503 477s232.166 150 341.499 150c100 0 189.5 -54 268.5 -162s118.5 -225.333 118.5 -352c0 -92 -42.333 -165.167 -127 -219.5s-200 -81.5 -346 -81.5h-743c-76.667 -0 -140.334 16.333 -191.001 49
c-52.667 -315.333 -189 -473 -409 -473c-106 0 -193.333 45 -262 135s-103 217 -103 381c0 112.667 9 215.667 27 309h131v-16c-18 -88.667 -27 -187 -27 -295c0 -102.667 20.667 -182.667 62 -240s98.666 -86 171.999 -86c203.333 0 305 186 305 558v100h131v-43
c0 -127.333 53.333 -191 160 -191h82zM1204 188h495.999c108 0 195 11.5 261 34.5s99 52.5 99 88.5c0 88 -28 163 -84 225s-114 93 -174 93c-183.333 0 -382.666 -147 -597.999 -441zM1844 958h-148v147h148v-147z" />
    <glyph glyph-name="afii57431" unicode="&#x637;" horiz-adv-x="1188" arabic-form="medial" 
d="M303 397c170.667 278.667 336.668 418 498.001 418c92.667 0 173.5 -53.167 242.5 -159.5s103.5 -224.5 103.5 -354.5c0 -92 -42.5 -165.167 -127.5 -219.5s-200.167 -81.5 -345.5 -81.5h-674c-32.667 0 -61.334 17 -86.001 51s-37 79.667 -37 137h285l10 27v1341h131
v-1159zM303.001 188l352 -0.000976562c108.667 0 196 11.5 262 34.5s99 52.5 99 88.5c0 88.667 -23.833 163.834 -71.5 225.501s-96.167 92.5 -145.5 92.5c-81.333 0 -157.333 -32 -228 -96s-160 -179 -268 -345z" />
    <glyph glyph-name="afii57432" unicode="&#x638;" horiz-adv-x="1188" arabic-form="medial" 
d="M303 397c170.667 278.667 336.668 418 498.001 418c92.667 0 173.5 -53.167 242.5 -159.5s103.5 -224.5 103.5 -354.5c0 -92 -42.5 -165.167 -127.5 -219.5s-200.167 -81.5 -345.5 -81.5h-674c-32.667 0 -61.334 17 -86.001 51s-37 79.667 -37 137h285l10 27v1341h131
v-1159zM303.001 188l352 -0.000976562c108.667 0 196 11.5 262 34.5s99 52.5 99 88.5c0 88.667 -23.833 163.834 -71.5 225.501s-96.167 92.5 -145.5 92.5c-81.333 0 -157.333 -32 -228 -96s-160 -179 -268 -345zM795.001 957.999h-148v147h148v-147z" />
    <glyph glyph-name="afii57433" unicode="&#x639;" horiz-adv-x="1116" arabic-form="isolated" 
d="M1069 -319c-117.333 -70 -259.334 -105 -426.001 -105c-177.333 0 -315.166 42.333 -413.499 127s-147.5 201.334 -147.5 350.001c0 153.333 66.333 274.333 199 363c-92 71.333 -138 151.666 -138 240.999c0 121.333 36.833 218 110.5 290s168.167 108 283.5 108
c63.333 0 134.333 -9 213 -27v-188h-11c-72 20 -136.667 30 -194 30c-82 0 -147.667 -19.333 -197 -58s-74 -91.667 -74 -159c0 -72.667 36.333 -134 109 -184l504 186v-174l-416 -151c-80 -28 -143 -66.5 -189 -115.5s-69 -102.167 -69 -159.5
c0 -88.667 38.667 -160 116 -214s181.333 -81 312 -81c66 0 138.667 12.833 218 38.5s146 57.5 200 95.5h10v-213z" />
    <glyph glyph-name="afii57434" unicode="&#x63a;" horiz-adv-x="1116" arabic-form="isolated" 
d="M1069 -319c-117.333 -70 -259.334 -105 -426.001 -105c-177.333 0 -315.166 42.333 -413.499 127s-147.5 201.334 -147.5 350.001c0 153.333 66.333 274.333 199 363c-92 71.333 -138 151.666 -138 240.999c0 121.333 36.833 218 110.5 290s168.167 108 283.5 108
c63.333 0 134.333 -9 213 -27v-188h-11c-72 20 -136.667 30 -194 30c-82 0 -147.667 -19.333 -197 -58s-74 -91.667 -74 -159c0 -72.667 36.333 -134 109 -184l504 186v-174l-416 -151c-80 -28 -143 -66.5 -189 -115.5s-69 -102.167 -69 -159.5
c0 -88.667 38.667 -160 116 -214s181.333 -81 312 -81c66 0 138.667 12.833 218 38.5s146 57.5 200 95.5h10v-213zM581.999 1229h-148v147h148v-147z" />
    <glyph glyph-name="afii57441" unicode="&#x641;" horiz-adv-x="1618" arabic-form="final" 
d="M1339 1292h-147v148h147v-148zM1561 291c0 -93.333 -40.332 -165.168 -120.999 -215.501s-199 -75.5 -355 -75.5h-505c-333.333 0 -500 159 -500 477c0 76 10.333 156 31 240h131v-10c-20.667 -74 -31 -146.667 -31 -218c0 -106.667 29 -183.5 87 -230.5
s152.667 -70.5 284 -70.5h495c113.333 0 200.5 13 261.5 39s91.5 72 91.5 138v102c-26 -27.333 -63 -41 -111 -41c-73.333 0 -137.5 28.5 -192.5 85.5s-82.5 134.167 -82.5 231.5c0 100.667 27.667 188.334 83 263.001s111 112 167 112
c75.333 0 138.666 -54.167 189.999 -162.5s77 -256.833 77 -445.5v-219zM1419 652.998c0 62 -14.167 123.666 -42.5 184.999s-56.5 92 -84.5 92c-24 0 -49.333 -19.667 -76 -59s-40 -79.666 -40 -120.999c0 -38.667 14 -71 42 -97s63 -39 105 -39c36.667 0 68.667 13 96 39z
" />
    <glyph glyph-name="afii57442" unicode="&#x642;" horiz-adv-x="1192" arabic-form="final" 
d="M1053 1090h-148v147h148v-147zM782 1090h-147v147h147v-147zM995 264c-25.333 -27.333 -62.001 -40.999 -110.001 -40.999c-74 0 -138.333 28.5 -193 85.5s-82 134.5 -82 232.5c0 100 27.5 187.333 82.5 262s110.833 112 167.5 112c74.667 0 137.667 -54.167 189 -162.5
s77 -256.833 77 -445.5c0 -224 -53.5 -401.833 -160.5 -533.5s-252.833 -197.5 -437.5 -197.5c-146 0 -264 47.5 -354 142.5s-135 220.167 -135 375.5c0 56.667 9 123 27 199h131v-10c-18 -64 -27 -123 -27 -177c0 -106.667 30.833 -190.334 92.5 -251.001
s150.834 -91 267.501 -91c138.667 0 249.167 44 331.5 132s126.833 210.667 133.5 368zM984.999 451.001c0 61.333 -14.333 122.667 -43 184s-56.667 92 -84 92c-24 0 -49.5 -19.667 -76.5 -59s-40.5 -79.666 -40.5 -120.999c0 -38.667 14.167 -70.834 42.5 -96.501
s63.5 -38.5 105.5 -38.5c36.667 0 68.667 13 96 39z" />
    <glyph glyph-name="afii57443" unicode="&#x643;" horiz-adv-x="1229" arabic-form="final" 
d="M1147 270c0 -82 -29.333 -147.501 -88 -196.501s-138.667 -73.5 -240 -73.5h-426c-110 0 -194.5 26.333 -253.5 79s-88.5 129.334 -88.5 230.001c0 26.667 2.66699 67 8 121h134v-10c-7.33301 -38 -11 -74.333 -11 -109c0 -82 70.333 -123 211 -123h418
c136.667 0 205 52 205 156v1212h131v-1286zM645 878.999c-91.333 0 -137.001 -15.9971 -137.001 -47.9971c0 -18.667 19 -32 57 -40l64 -15c56 -12 84 -42.667 84 -92c0 -44.667 -25.667 -79.334 -77 -104.001s-116.666 -37 -195.999 -37v69c135.333 0 203 22 203 66
c0 11.333 -6.5 19.666 -19.5 24.999s-46.5 13.666 -100.5 24.999s-81 44.333 -81 99c0 38.667 18.167 68.5 54.5 89.5s85.833 31.5 148.5 31.5v-69z" />
    <glyph glyph-name="afii57444" unicode="&#x644;" horiz-adv-x="1044" arabic-form="isolated" 
d="M963 248c0 -302 -151.667 -453 -455 -453c-163.333 0 -282 35.5 -356 106.5s-111 183.167 -111 336.5c0 82 6.66699 165.667 20 251h138v-10c-18 -75.333 -27 -155 -27 -239c0 -96 25.5 -162.667 76.5 -200s138.167 -56 261.5 -56c214 0 321 92 321 276v1296h132v-1308z
" />
    <glyph glyph-name="afii57445" unicode="&#x645;" horiz-adv-x="696" arabic-form="final" 
d="M696 0h-405c-100 -0 -150 -37.667 -150 -113v-311h-110v313c0 199.333 90.667 299 272 299h207c-49.333 56 -90.5 97.333 -123.5 124s-64.833 40 -95.5 40c-57.333 0 -86 -38 -86 -114h-111c0 76 17.667 135.833 53 179.5s83.333 65.5 144 65.5c72 0 138 -24.667 198 -74
s129 -123 207 -221v-188z" />
    <glyph glyph-name="afii57446" unicode="&#x646;" horiz-adv-x="1085" arabic-form="final" 
d="M627 500h-148v147h148v-147zM1028 401c18 -80 27 -156.333 27 -229c0 -184.667 -43.333 -330.167 -130 -436.5s-210.667 -159.5 -372 -159.5s-285.333 53.167 -372 159.5s-130 251.833 -130 436.5c0 72.667 9 149 27 229h131v-10c-18 -64 -27 -133 -27 -207
c0 -280 123.667 -420 371 -420s371 140 371 420c0 38 -4.66699 83.667 -14 137l-13 70v10h131z" />
    <glyph glyph-name="afii57447" unicode="&#x647;" horiz-adv-x="635" arabic-form="isolated" 
d="M113 930c144 -8.66699 260.167 -67.499 348.5 -176.499s132.5 -229.167 132.5 -360.5c0 -122.667 -25.167 -220.834 -75.5 -294.501s-113.833 -110.5 -190.5 -110.5c-82 0 -147 33.333 -195 100s-72 161.667 -72 285c0 132 44.667 257.667 134 377
c-24.667 6.66699 -52 10 -82 10v170zM463 393.001c0 135.333 -54.668 239.999 -164.001 313.999c-70.667 -91.333 -106 -202.666 -106 -333.999c0 -63.333 12.333 -112 37 -146s57.334 -51 98.001 -51c90 0 135 72.333 135 217z" />
    <glyph glyph-name="afii57448" unicode="&#x648;" horiz-adv-x="868" arabic-form="final" 
d="M657 154c-27.333 -27.333 -64 -40.999 -110 -40.999c-73.333 0 -136.333 28.333 -189 85s-79 134 -79 232c0 100.667 26.5 188.334 79.5 263.001s107.5 112 163.5 112c70 0 131.5 -54.833 184.5 -164.5s79.5 -257.5 79.5 -443.5
c0 -202.667 -66.833 -356.834 -200.5 -462.501s-328.834 -158.5 -585.501 -158.5v188c216.667 0 380.334 33.667 491.001 101s166 163.666 166 288.999zM645 340.001c0 62 -13.998 123.498 -41.998 184.498s-55.667 91.5 -83 91.5c-26 0 -50.833 -19.167 -74.5 -57.5
s-35.5 -79.166 -35.5 -122.499c0 -39.333 13.167 -71.666 39.5 -96.999s60.166 -38 101.499 -38c43.333 0 74.666 13 93.999 39z" />
    <glyph glyph-name="afii57449" unicode="&#x649;" horiz-adv-x="1311" arabic-form="isolated" 
d="M1239 866l-10 -0.00195312c-100 58.667 -206.667 88 -320 88c-54.667 0 -100 -12 -136 -36s-54 -53 -54 -87c0 -29.333 12.667 -57.166 38 -83.499s92.166 -67 200.499 -122s181 -103.167 218 -144.5s55.5 -90.333 55.5 -147c0 -107.333 -59.167 -189.833 -177.5 -247.5
s-293.5 -86.5 -525.5 -86.5c-331.333 0 -497 147.333 -497 442c0 66 6.66699 150 20 252h133v-10c-14.667 -90 -22 -170 -22 -240c0 -88.667 29.167 -153.5 87.5 -194.5s151.833 -61.5 280.5 -61.5c184.667 0 325.834 14 423.501 42s146.5 64 146.5 108
c0 28 -15.667 55.167 -47 81.5s-96.5 63.5 -195.5 111.5s-168.667 95.833 -209 143.5s-60.5 100.834 -60.5 159.501c0 81.333 31.333 152.5 94 213.5s144.667 91.5 246 91.5c111.333 0 215 -20 311 -60v-213z" />
    <glyph glyph-name="afii57450" unicode="&#x64a;" horiz-adv-x="1311" arabic-form="isolated" 
d="M1239 866l-10 -0.00195312c-100 58.667 -206.667 88 -320 88c-54.667 0 -100 -12 -136 -36s-54 -53 -54 -87c0 -29.333 12.667 -57.166 38 -83.499s92.166 -67 200.499 -122s181 -103.167 218 -144.5s55.5 -90.333 55.5 -147c0 -107.333 -59.167 -189.833 -177.5 -247.5
s-293.5 -86.5 -525.5 -86.5c-331.333 0 -497 147.333 -497 442c0 66 6.66699 150 20 252h133v-10c-14.667 -90 -22 -170 -22 -240c0 -88.667 29.167 -153.5 87.5 -194.5s151.833 -61.5 280.5 -61.5c184.667 0 325.834 14 423.501 42s146.5 64 146.5 108
c0 28 -15.667 55.167 -47 81.5s-96.5 63.5 -195.5 111.5s-168.667 95.833 -209 143.5s-60.5 100.834 -60.5 159.501c0 81.333 31.333 152.5 94 213.5s144.667 91.5 246 91.5c111.333 0 215 -20 311 -60v-213zM756 -293.002h-147v147h147v-147zM486 -293.002h-148v147h148
v-147z" />
    <glyph glyph-name="uni0671" unicode="&#x671;" horiz-adv-x="479" arabic-form="isolated" 
d="M305 0h-131v1556h131v-1556zM429 1763c0 -46 -19.665 -83.667 -58.998 -113c-35.333 -26 -74.333 -39 -117 -39c-20.667 0 -48.5 6.83301 -83.5 20.5s-61.833 20.5 -80.5 20.5c-20 0 -48 -14 -84 -42v70c35.333 28 63.666 42 84.999 42c17.333 0 37.333 -3.33301 60 -10
c10 49.333 30.167 89.5 60.5 120.5s65.166 46.5 104.499 46.5c76 0 114 -38.667 114 -116zM359.002 1763c0 30.667 -14.667 46 -44 46c-24 0 -45.667 -13.333 -65 -40c-17.333 -24 -28.666 -51.333 -33.999 -82c13.333 -4 25.666 -6 36.999 -6c30 0 55.167 8.5 75.5 25.5
s30.5 35.833 30.5 56.5z" />
    <glyph glyph-name="glyph1142" unicode="&#x672;" horiz-adv-x="479" 
d="M479 0c-94.667 0 -168.5 29.168 -221.5 87.501s-79.5 139.833 -79.5 244.5v1224h131v-1212c0 -56.667 12.833 -96.834 38.5 -120.501s68.167 -35.5 127.5 -35.5h4v-188zM393 1620h-176.001c-16 0 -32.833 2.33301 -50.5 7s-29.167 7 -34.5 7
c-21.333 0 -51.333 -15 -90 -45v74c35.333 27.333 65.333 41 90 41c8 0 19.333 -2.83301 34 -8.5s25.667 -8.5 33 -8.5c-30 16.667 -45 43.334 -45 80.001c0 36 12.667 65.167 38 87.5s56.333 33.5 93 33.5s65.334 -4 86.001 -12v-74c-24 11.333 -52 17 -84 17
c-44 0 -66 -17.333 -66 -52c0 -24.667 14 -44.334 42 -59.001c23.333 -12 48.333 -18 75 -18h55v-70z" />
    <glyph glyph-name="glyph1144" unicode="&#x673;" horiz-adv-x="479" 
d="M479 0c-94.667 0 -168.5 29.168 -221.5 87.501s-79.5 139.833 -79.5 244.5v1224h131v-1212c0 -56.667 12.833 -96.834 38.5 -120.501s68.167 -35.5 127.5 -35.5h4v-188zM393 -361.999h-176.001c-16 0 -32.833 2.33301 -50.5 7s-29.167 7 -34.5 7
c-21.333 0 -51.333 -15 -90 -45v74c35.333 27.333 65.333 41 90 41c8 0 19.333 -2.83301 34 -8.5s25.667 -8.5 33 -8.5c-30 16.667 -45 43.334 -45 80.001c0 36 12.667 65.167 38 87.5s56.333 33.5 93 33.5s65.334 -4 86.001 -12v-74c-24 11.333 -52 17 -84 17
c-44 0 -66 -17.333 -66 -52c0 -24.667 14 -44.334 42 -59.001c23.333 -12 48.333 -18 75 -18h55v-70z" />
    <glyph glyph-name="glyph1146" unicode="&#x675;" horiz-adv-x="640" 
d="M640 1310l-252.001 0.000976562v70h56c-28.667 16 -43 41.667 -43 77c0 36 12.667 65.167 38 87.5s56.333 33.5 93 33.5s65.334 -4 86.001 -12v-74c-24 11.333 -52 17 -84 17c-44 0 -66 -17.333 -66 -52c0 -24.667 14 -44.334 42 -59.001c23.333 -12 48.333 -18 75 -18
h55v-70zM639.999 0.000976562h-167c-90 0 -161.667 29.333 -215 88s-80 140 -80 244v1224h131v-1212c0 -104 55.333 -156 166 -156h165v-188z" />
    <glyph glyph-name="uni0677" unicode="&#x677;" horiz-adv-x="868" arabic-form="isolated" 
d="M657 154c-27.333 -27.333 -64 -40.999 -110 -40.999c-73.333 0 -136.333 28.333 -189 85s-79 134 -79 232c0 100.667 26.5 188.334 79.5 263.001s107.5 112 163.5 112c70 0 131.5 -54.833 184.5 -164.5s79.5 -257.5 79.5 -443.5
c0 -202.667 -66.833 -356.834 -200.5 -462.501s-328.834 -158.5 -585.501 -158.5v188c216.667 0 380.334 33.667 491.001 101s166 163.666 166 288.999zM645 340.001c0 62 -13.998 123.498 -41.998 184.498s-55.667 91.5 -83 91.5c-26 0 -50.833 -19.167 -74.5 -57.5
s-35.5 -79.166 -35.5 -122.499c0 -39.333 13.167 -71.666 39.5 -96.999s60.166 -38 101.499 -38c43.333 0 74.666 13 93.999 39zM831.002 978.999h-252.002v70h56c-28.667 16 -43 41.667 -43 77c0 34 12.167 62.667 36.5 86s55.833 35 94.5 35
c36.667 0 65.334 -4 86.001 -12v-74c-24 11.333 -52 17 -84 17c-44 0 -66 -17.333 -66 -52c0 -21.333 11.333 -39.5 34 -54.5s50.334 -22.5 83.001 -22.5h55v-70zM437 978.999l-94.001 22.999c-84.667 -51.333 -176.667 -80 -276 -86v70
c66.667 1.33301 133.334 16.333 200.001 45c-62.667 24.667 -94 62.667 -94 114c0 36.667 11.667 66 35 88s54 33 92 33c36 0 66.5 -11.667 91.5 -35s37.5 -52.666 37.5 -87.999c0 -28.667 -13 -58 -39 -88l47 -10v-66zM326.999 1070c21.333 22 31.999 46.332 31.999 72.999
c0 14.667 -5.66699 27.334 -17 38.001s-24.666 16 -39.999 16c-39.333 0 -59 -18 -59 -54c0 -34 28 -58.333 84 -73z" />
    <glyph glyph-name="glyph1150" unicode="&#x678;" horiz-adv-x="1212" 
d="M1212 0c-63.333 0 -114.166 14.8301 -152.499 44.4971s-68.666 69.334 -90.999 119.001s-46.5 115.334 -72.5 197.001s-50.167 134.167 -72.5 157.5s-50.5 35 -84.5 35c-61.333 0 -92 -29.333 -92 -88c0 -36.667 24 -83.667 72 -141c64 -76.667 96 -152.667 96 -228
c0 -176 -125 -264 -375 -264c-122.667 0 -221.5 40.667 -296.5 122s-112.5 193.666 -112.5 336.999c0 43.333 4.66699 100 14 170h133v-10c-10.667 -44 -16 -96.667 -16 -158c0 -97.333 23 -167.166 69 -209.499s116.333 -63.5 211 -63.5c158.667 0 238 39 238 117
c0 34.667 -24.667 82 -74 142c-62.667 74 -94 147.667 -94 221c0 72.667 19.333 131 58 175s95 66 169 66c52.667 0 99 -14.667 139 -44s77.667 -105.666 113 -228.999s69.166 -200.833 101.499 -232.5s72.166 -47.5 119.499 -47.5v-188zM1056 914.997h-252.002v70h56
c-28.667 16 -43 41.667 -43 77c0 34 12.167 62.667 36.5 86s55.833 35 94.5 35c36.667 0 65.334 -4 86.001 -12v-74c-24 11.333 -52 17 -84 17c-44 0 -66 -17.333 -66 -52c0 -21.333 11.333 -39.5 34 -54.5s50.334 -22.5 83.001 -22.5h55v-70z" />
    <glyph glyph-name="uni0679" unicode="&#x679;" horiz-adv-x="1464" arabic-form="final" 
d="M1382 291c0 -93.333 -40.167 -165.167 -120.5 -215.5s-198.5 -75.5 -354.5 -75.5h-327c-333.333 0 -500 159 -500 477c0 76 10.333 156 31 240h131v-10c-20.667 -74 -31 -146.667 -31 -218c0 -106.667 29 -183.5 87 -230.5s152.667 -70.5 284 -70.5h317
c113.333 0 200.333 13 261 39s91 72 91 138v352h131v-426zM937 907.999c0 -72 -53.333 -108.001 -160 -108.001h-227v67h66v413h57v-328c39.333 94 86 141 140 141c38 0 69 -22.333 93 -67c20.667 -37.333 31 -76.666 31 -117.999zM882 911.998
c0 23.333 -5.00195 46.333 -15.002 69c-13.333 30 -31.666 45 -54.999 45c-39.333 0 -85.666 -53 -138.999 -159h97c74.667 0 112 15 112 45z" />
    <glyph glyph-name="uni067A" unicode="&#x67a;" horiz-adv-x="1464" arabic-form="final" 
d="M1382 291c0 -93.333 -40.167 -165.167 -120.5 -215.5s-198.5 -75.5 -354.5 -75.5h-327c-333.333 0 -500 159 -500 477c0 76 10.333 156 31 240h131v-10c-20.667 -74 -31 -146.667 -31 -218c0 -106.667 29 -183.5 87 -230.5s152.667 -70.5 284 -70.5h317
c113.333 0 200.333 13 261 39s91 72 91 138v352h131v-426zM836 1024h-147v147h147v-147zM836 814.999h-147v148h147v-148z" />
    <glyph glyph-name="uni067B" unicode="&#x67b;" horiz-adv-x="1464" arabic-form="final" 
d="M1382 291c0 -93.333 -40.167 -165.167 -120.5 -215.5s-198.5 -75.5 -354.5 -75.5h-327c-333.333 0 -500 159 -500 477c0 76 10.333 156 31 240h131v-10c-20.667 -74 -31 -146.667 -31 -218c0 -106.667 29 -183.5 87 -230.5s152.667 -70.5 284 -70.5h317
c113.333 0 200.333 13 261 39s91 72 91 138v352h131v-426zM836 -221.001h-147v147h147v-147zM836 -430.001h-147v148h147v-148z" />
    <glyph glyph-name="glyph1156" unicode="&#x67c;" horiz-adv-x="500" 
d="M418 270c0 -82 -29.332 -147.5 -87.999 -196.5s-138.667 -73.5 -240 -73.5h-90c-32.667 0 -61.334 17 -86.001 51s-37 79.667 -37 137h205c136.667 0 205 52 205 156v373h131v-447zM500.001 891h-147v147h147v-147zM230.001 891h-148v147h148v-147zM214.001 10
c39.333 0 73 -14 101 -42s42 -62 42 -102c0 -39.333 -14 -73 -42 -101s-61.667 -42 -101 -42c-40 0 -74 14 -102 42s-42 61.667 -42 101c0 40 14 74 42 102s62 42 102 42zM214.001 -211c21.333 0 39.5 7.5 54.5 22.5s22.5 33.167 22.5 54.5s-7.5 39.666 -22.5 54.999
s-33.167 23 -54.5 23s-39.666 -7.66699 -54.999 -23s-23 -33.666 -23 -54.999s7.66699 -39.5 23 -54.5s33.666 -22.5 54.999 -22.5z" />
    <glyph glyph-name="glyph1158" unicode="&#x67d;" horiz-adv-x="500" 
d="M418 270c0 -82 -29.332 -147.5 -87.999 -196.5s-138.667 -73.5 -240 -73.5h-90c-32.667 0 -61.334 17 -86.001 51s-37 79.667 -37 137h205c136.667 0 205 52 205 156v373h131v-447zM357.001 891h-148v147h148v-147zM504.001 1100h-147v147h147v-147zM209.001 1100h-147
v147h147v-147z" />
    <glyph glyph-name="afii57506" unicode="&#x67e;" horiz-adv-x="1464" arabic-form="final" 
d="M1382 291c0 -93.333 -40.167 -165.167 -120.5 -215.5s-198.5 -75.5 -354.5 -75.5h-327c-333.333 0 -500 159 -500 477c0 76 10.333 156 31 240h131v-10c-20.667 -74 -31 -146.667 -31 -218c0 -106.667 29 -183.5 87 -230.5s152.667 -70.5 284 -70.5h317
c113.333 0 200.333 13 261 39s91 72 91 138v352h131v-426zM1024 -221.001h-147v147h147v-147zM729 -221.001h-147v147h147v-147zM877 -430.001h-148v147h148v-147z" />
    <glyph glyph-name="uni067F" unicode="&#x67f;" horiz-adv-x="1464" arabic-form="final" 
d="M1382 291c0 -93.333 -40.167 -165.167 -120.5 -215.5s-198.5 -75.5 -354.5 -75.5h-327c-333.333 0 -500 159 -500 477c0 76 10.333 156 31 240h131v-10c-20.667 -74 -31 -146.667 -31 -218c0 -106.667 29 -183.5 87 -230.5s152.667 -70.5 284 -70.5h317
c113.333 0 200.333 13 261 39s91 72 91 138v352h131v-426zM971 1024h-147v147h147v-147zM701 1024h-148v147h148v-147zM971 814.999h-147v147h147v-147zM701 814.999h-148v147h148v-147z" />
    <glyph glyph-name="uni0680" unicode="&#x680;" horiz-adv-x="1464" arabic-form="final" 
d="M1382 291c0 -93.333 -40.167 -165.167 -120.5 -215.5s-198.5 -75.5 -354.5 -75.5h-327c-333.333 0 -500 159 -500 477c0 76 10.333 156 31 240h131v-10c-20.667 -74 -31 -146.667 -31 -218c0 -106.667 29 -183.5 87 -230.5s152.667 -70.5 284 -70.5h317
c113.333 0 200.333 13 261 39s91 72 91 138v352h131v-426zM971 -221.001h-147v147h147v-147zM701 -221.001h-148v147h148v-147zM971 -430.001h-147v147h147v-147zM701 -430.001h-148v147h148v-147z" />
    <glyph glyph-name="glyph1165" unicode="&#x681;" horiz-adv-x="1112" 
d="M1030 184c-118.667 0 -293.168 -30.667 -523.501 -92s-399.166 -92 -506.499 -92c-32.667 0 -61.334 17 -86.001 51s-37 79.667 -37 137h129c95.333 0 241.833 26.833 439.5 80.5s333.167 82.834 406.5 87.501c-202 182 -419.667 273 -653 273h-95v186h105
c54 0 106.333 -5.33301 157 -16c50 -10.667 99.667 -26.667 149 -48c48.667 -20.667 98.334 -47.334 149.001 -80.001c48 -31.333 99 -69 153 -113c50 -40.667 105 -89 165 -145l43 -41h2l3 1v-189zM755.999 936h-252.002v70h56c-28.667 16 -43 41.667 -43 77
c0 34 12.167 62.667 36.5 86s55.833 35 94.5 35c36.667 0 65.334 -4 86.001 -12v-74c-24 11.333 -52 17 -84 17c-44 0 -66 -17.333 -66 -52c0 -21.333 11.333 -39.5 34 -54.5s50.334 -22.5 83.001 -22.5h55v-70z" />
    <glyph glyph-name="glyph1164" unicode="&#x681;" horiz-adv-x="1112" 
d="M1112 0l-32.9971 -0.000976562c-226.667 0 -340 106.333 -340 319v211c-163.333 -17.333 -291.166 -62 -383.499 -134s-138.5 -164.333 -138.5 -277c0 -114 41 -202.333 123 -265s186.333 -94 313 -94c179.333 0 322.666 37 429.999 111h11v-199
c-106.667 -64 -253 -96 -439 -96c-165.333 0 -301.5 48.667 -408.5 146s-160.5 228.333 -160.5 393c0 165.333 72.5 297.333 217.5 396s326.5 148 544.5 148c-174.667 75.333 -384.334 113 -629.001 113h-78v186h88c125.333 0 260.666 -25.667 405.999 -77
s281.666 -121.666 408.999 -210.999v-131c-96 0 -154 -0.666992 -174 -2v-162c0 -68 16.667 -116.167 50 -144.5s85 -42.5 155 -42.5h37v-188zM756.003 1120h-252.002v70h56c-28.667 16 -43 41.667 -43 77c0 34 12.167 62.667 36.5 86s55.833 35 94.5 35
c36.667 0 65.334 -4 86.001 -12v-74c-24 11.333 -52 17 -84 17c-44 0 -66 -17.333 -66 -52c0 -21.333 11.333 -39.5 34 -54.5s50.334 -22.5 83.001 -22.5h55v-70z" />
    <glyph glyph-name="glyph1168" unicode="&#x682;" horiz-adv-x="1112" 
d="M1030 184c-118.667 0 -293.168 -30.667 -523.501 -92s-399.166 -92 -506.499 -92c-32.667 0 -61.334 17 -86.001 51s-37 79.667 -37 137h129c95.333 0 241.833 26.833 439.5 80.5s333.167 82.834 406.5 87.501c-202 182 -419.667 273 -653 273h-95v186h105
c54 0 106.333 -5.33301 157 -16c50 -10.667 99.667 -26.667 149 -48c48.667 -20.667 98.334 -47.334 149.001 -80.001c48 -31.333 99 -69 153 -113c50 -40.667 105 -89 165 -145l43 -41h2l3 1v-189zM712.999 1145h-147v147h147v-147zM712.999 936h-147v148h147v-148z" />
    <glyph glyph-name="glyph1167" unicode="&#x682;" horiz-adv-x="1112" 
d="M1112 0l-32.9971 -0.000976562c-226.667 0 -340 106.333 -340 319v211c-163.333 -17.333 -291.166 -62 -383.499 -134s-138.5 -164.333 -138.5 -277c0 -114 41 -202.333 123 -265s186.333 -94 313 -94c179.333 0 322.666 37 429.999 111h11v-199
c-106.667 -64 -253 -96 -439 -96c-165.333 0 -301.5 48.667 -408.5 146s-160.5 228.333 -160.5 393c0 165.333 72.5 297.333 217.5 396s326.5 148 544.5 148c-174.667 75.333 -384.334 113 -629.001 113h-78v186h88c125.333 0 260.666 -25.667 405.999 -77
s281.666 -121.666 408.999 -210.999v-131c-96 0 -154 -0.666992 -174 -2v-162c0 -68 16.667 -116.167 50 -144.5s85 -42.5 155 -42.5h37v-188zM769.003 1329h-147v147h147v-147zM769.003 1120h-147v148h147v-148z" />
    <glyph glyph-name="uni0683" unicode="&#x683;" horiz-adv-x="1112" arabic-form="isolated" 
d="M1094 -328c-106.667 -64 -252.996 -96.002 -438.996 -96.002c-165.333 0 -301.5 48.667 -408.5 146s-160.5 228.333 -160.5 393c0 165.333 72.5 297.333 217.5 396s326.5 148 544.5 148c-174.667 75.333 -384.334 113 -629.001 113h-78v186h88
c125.333 0 260.666 -25.667 405.999 -77s281.666 -121.666 408.999 -210.999v-131h-147c-212.667 0 -379.167 -38.167 -499.5 -114.5s-180.5 -178.166 -180.5 -305.499c0 -114 41 -202.333 123 -265s186.333 -94 313 -94c179.333 0 322.666 37 429.999 111h11v-199z
M863.004 65.998h-147v147h147v-147zM593.004 65.998h-148v147h148v-147z" />
    <glyph glyph-name="uni0684" unicode="&#x684;" horiz-adv-x="1112" arabic-form="isolated" 
d="M1094 -328c-106.667 -64 -252.996 -96.002 -438.996 -96.002c-165.333 0 -301.5 48.667 -408.5 146s-160.5 228.333 -160.5 393c0 165.333 72.5 297.333 217.5 396s326.5 148 544.5 148c-174.667 75.333 -384.334 113 -629.001 113h-78v186h88
c125.333 0 260.666 -25.667 405.999 -77s281.666 -121.666 408.999 -210.999v-131h-147c-212.667 0 -379.167 -38.167 -499.5 -114.5s-180.5 -178.166 -180.5 -305.499c0 -114 41 -202.333 123 -265s186.333 -94 313 -94c179.333 0 322.666 37 429.999 111h11v-199z
M728.004 148.998h-147v147h147v-147zM728.004 -60.002h-147v148h147v-148z" />
    <glyph glyph-name="glyph1177" unicode="&#x685;" horiz-adv-x="1112" 
d="M1030 184c-118.667 0 -293.168 -30.667 -523.501 -92s-399.166 -92 -506.499 -92c-32.667 0 -61.334 17 -86.001 51s-37 79.667 -37 137h129c95.333 0 241.833 26.833 439.5 80.5s333.167 82.834 406.5 87.501c-202 182 -419.667 273 -653 273h-95v186h105
c54 0 106.333 -5.33301 157 -16c50 -10.667 99.667 -26.667 149 -48c48.667 -20.667 98.334 -47.334 149.001 -80.001c48 -31.333 99 -69 153 -113c50 -40.667 105 -89 165 -145l43 -41h2l3 1v-189zM712.999 1145h-148v147h148v-147zM859.999 936h-147v147h147v-147z
M564.999 936h-147v147h147v-147z" />
    <glyph glyph-name="glyph1176" unicode="&#x685;" horiz-adv-x="1112" 
d="M1112 0l-32.9971 -0.000976562c-226.667 0 -340 106.333 -340 319v211c-163.333 -17.333 -291.166 -62 -383.499 -134s-138.5 -164.333 -138.5 -277c0 -114 41 -202.333 123 -265s186.333 -94 313 -94c179.333 0 322.666 37 429.999 111h11v-199
c-106.667 -64 -253 -96 -439 -96c-165.333 0 -301.5 48.667 -408.5 146s-160.5 228.333 -160.5 393c0 165.333 72.5 297.333 217.5 396s326.5 148 544.5 148c-174.667 75.333 -384.334 113 -629.001 113h-78v186h88c125.333 0 260.666 -25.667 405.999 -77
s281.666 -121.666 408.999 -210.999v-131c-96 0 -154 -0.666992 -174 -2v-162c0 -68 16.667 -116.167 50 -144.5s85 -42.5 155 -42.5h37v-188zM769.003 1329h-148v147h148v-147zM916.003 1120h-147v147h147v-147zM621.003 1120h-147v147h147v-147z" />
    <glyph glyph-name="afii57507" unicode="&#x686;" horiz-adv-x="1112" arabic-form="isolated" 
d="M1094 -328c-106.667 -64 -252.996 -96.002 -438.996 -96.002c-165.333 0 -301.5 48.667 -408.5 146s-160.5 228.333 -160.5 393c0 165.333 72.5 297.333 217.5 396s326.5 148 544.5 148c-174.667 75.333 -384.334 113 -629.001 113h-78v186h88
c125.333 0 260.666 -25.667 405.999 -77s281.666 -121.666 408.999 -210.999v-131h-147c-212.667 0 -379.167 -38.167 -499.5 -114.5s-180.5 -178.166 -180.5 -305.499c0 -114 41 -202.333 123 -265s186.333 -94 313 -94c179.333 0 322.666 37 429.999 111h11v-199z
M874.004 146.998h-147v148h147v-148zM580.004 146.998h-148v148h148v-148zM727.004 -61.002h-147v147h147v-147z" />
    <glyph glyph-name="uni0687" unicode="&#x687;" horiz-adv-x="1112" arabic-form="isolated" 
d="M1094 -328c-106.667 -64 -252.996 -96.002 -438.996 -96.002c-165.333 0 -301.5 48.667 -408.5 146s-160.5 228.333 -160.5 393c0 165.333 72.5 297.333 217.5 396s326.5 148 544.5 148c-174.667 75.333 -384.334 113 -629.001 113h-78v186h88
c125.333 0 260.666 -25.667 405.999 -77s281.666 -121.666 408.999 -210.999v-131h-147c-212.667 0 -379.167 -38.167 -499.5 -114.5s-180.5 -178.166 -180.5 -305.499c0 -114 41 -202.333 123 -265s186.333 -94 313 -94c179.333 0 322.666 37 429.999 111h11v-199z
M856.004 148.998h-147v147h147v-147zM586.004 148.998h-148v147h148v-147zM856.004 -60.002h-147v147h147v-147zM586.004 -60.002h-148v147h148v-147z" />
    <glyph glyph-name="uni0688" unicode="&#x688;" horiz-adv-x="696" arabic-form="final" 
d="M190 956c310 -227.333 465 -437.999 465 -631.999c0 -98.667 -31.5 -177.334 -94.5 -236.001s-153.5 -88 -271.5 -88h-279v188h277c74 0 132 13 174 39s63 57.667 63 95c0 122 -114.667 255 -344 399v235h10zM487 1208c0 -72 -53.333 -108.001 -160 -108.001h-227v67h66
v413h57v-328c39.333 94 86 141 140 141c38 0 69 -22.333 93 -67c20.667 -37.333 31 -76.666 31 -117.999zM432 1212c0 23.333 -5.00195 46.333 -15.002 69c-13.333 30 -31.666 45 -54.999 45c-39.333 0 -85.666 -53 -138.999 -159h97c74.667 0 112 15 112 45z" />
    <glyph glyph-name="uni068C" unicode="&#x68c;" horiz-adv-x="696" arabic-form="final" 
d="M190 956c310 -227.333 465 -437.999 465 -631.999c0 -98.667 -31.5 -177.334 -94.5 -236.001s-153.5 -88 -271.5 -88h-279v188h277c74 0 132 13 174 39s63 57.667 63 95c0 122 -114.667 255 -344 399v235h10zM418 1130h-147v147h147v-147zM148 1130h-148v147h148v-147z
" />
    <glyph glyph-name="uni068D" unicode="&#x68d;" horiz-adv-x="696" arabic-form="final" 
d="M190 956c310 -227.333 465 -437.999 465 -631.999c0 -98.667 -31.5 -177.334 -94.5 -236.001s-153.5 -88 -271.5 -88h-279v188h277c74 0 132 13 174 39s63 57.667 63 95c0 122 -114.667 255 -344 399v235h10zM516 -292.999h-147v147h147v-147zM246 -292.999h-148v147h148
v-147z" />
    <glyph glyph-name="uni068E" unicode="&#x68e;" horiz-adv-x="696" arabic-form="final" 
d="M190 956c310 -227.333 465 -437.999 465 -631.999c0 -98.667 -31.5 -177.334 -94.5 -236.001s-153.5 -88 -271.5 -88h-279v188h277c74 0 132 13 174 39s63 57.667 63 95c0 122 -114.667 255 -344 399v235h10zM291 1339h-148v147h148v-147zM438 1130h-147v147h147v-147z
M143 1130h-147v147h147v-147z" />
    <glyph glyph-name="uni0691" unicode="&#x691;" horiz-adv-x="993" arabic-form="final" 
d="M786 516c70 -109.333 105.001 -219.334 105.001 -330.001c0 -199.333 -75.667 -350.833 -227 -454.5s-345.333 -155.5 -582 -155.5v188c203.333 0 367.166 33.333 491.499 100s186.5 163.334 186.5 290.001c0 109.333 -55.333 226 -166 350v12h192zM777.001 807.999
c0 -72 -53.333 -108.001 -160 -108.001h-227v67h66v413h57v-328c39.333 94 86 141 140 141c38 0 69 -22.333 93 -67c20.667 -37.333 31 -76.666 31 -117.999zM722.001 811.998c0 23.333 -5.00195 46.333 -15.002 69c-13.333 30 -31.666 45 -54.999 45
c-39.333 0 -85.666 -53 -138.999 -159h97c74.667 0 112 15 112 45z" />
    <glyph glyph-name="afii57508" unicode="&#x698;" horiz-adv-x="993" arabic-form="final" 
d="M786 516c70 -109.333 105.001 -219.334 105.001 -330.001c0 -199.333 -75.667 -350.833 -227 -454.5s-345.333 -155.5 -582 -155.5v188c203.333 0 367.166 33.333 491.499 100s186.5 163.334 186.5 290.001c0 109.333 -55.333 226 -166 350v12h192zM741.001 898.999h-148
v147h148v-147zM888.001 689.999h-147v147h147v-147zM593.001 689.999h-147v147h147v-147z" />
    <glyph glyph-name="glyph1197" unicode="&#x69a;" horiz-adv-x="1239" 
d="M1157 188c0 -125.333 -60.667 -188 -182 -188h-82c-97.333 0 -163.666 24 -198.999 72c-34.667 -48 -100.667 -72 -198 -72s-163.666 24 -198.999 72c-36.667 -48 -108.334 -72 -215.001 -72h-82c-32.667 0 -61.334 17 -86.001 51s-37 79.667 -37 137h205
c99.333 0 149 44.667 149 134v100h131v-100c0 -89.333 44.667 -134 134 -134c88.667 0 133 44.667 133 134v100h131v-100c0 -89.333 44.333 -134 133 -134s133 26.667 133 80v367h131v-447zM767 717h-148v147h148v-147zM767 -293h-148v147h148v-147z" />
    <glyph glyph-name="glyph1199" unicode="&#x69b;" horiz-adv-x="1239" 
d="M1157 188c0 -125.333 -60.667 -188 -182 -188h-82c-97.333 0 -163.666 24 -198.999 72c-34.667 -48 -100.667 -72 -198 -72s-163.666 24 -198.999 72c-36.667 -48 -108.334 -72 -215.001 -72h-82c-32.667 0 -61.334 17 -86.001 51s-37 79.667 -37 137h205
c99.333 0 149 44.667 149 134v100h131v-100c0 -89.333 44.667 -134 134 -134c88.667 0 133 44.667 133 134v100h131v-100c0 -89.333 44.333 -134 133 -134s133 26.667 133 80v367h131v-447zM767 -430h-148v147h148v-147zM914 -221h-147v147h147v-147zM619 -221h-147v147h147
v-147z" />
    <glyph glyph-name="glyph1201" unicode="&#x69c;" horiz-adv-x="1239" 
d="M1157 188c0 -125.333 -60.667 -188 -182 -188h-82c-97.333 0 -163.666 24 -198.999 72c-34.667 -48 -100.667 -72 -198 -72s-163.666 24 -198.999 72c-36.667 -48 -108.334 -72 -215.001 -72h-82c-32.667 0 -61.334 17 -86.001 51s-37 79.667 -37 137h205
c99.333 0 149 44.667 149 134v100h131v-100c0 -89.333 44.667 -134 134 -134c88.667 0 133 44.667 133 134v100h131v-100c0 -89.333 44.333 -134 133 -134s133 26.667 133 80v367h131v-447zM767 -430h-148v147h148v-147zM914 -221h-147v147h147v-147zM619 -221h-147v147h147
v-147zM707 926h-148v147h148v-147zM854 717h-147v147h147v-147zM559 717h-147v147h147v-147z" />
    <glyph glyph-name="glyph1203" unicode="&#x69d;" horiz-adv-x="1731" 
d="M551 188c155.333 218 292.003 377 410.003 477s232 150 342 150c99.333 0 188.666 -54 267.999 -162s119 -225.333 119 -352c0 -92 -42.5 -165.167 -127.5 -219.5s-200.167 -81.5 -345.5 -81.5h-758c-100.667 -0 -177.334 27.333 -230.001 82
c-50 -54.667 -126.333 -82 -229 -82c-32.667 0 -61.334 17 -86.001 51s-37 79.667 -37 137h127c106.667 0 160 63.667 160 191v10h131v-10c0 -127.333 53.333 -191 160 -191h96zM715.003 188l483 -0.000976562c108.667 0 196 11.5 262 34.5s99 52.5 99 88.5
c0 88 -28.167 163 -84.5 225s-114.5 93 -174.5 93c-92.667 0 -185 -34.667 -277 -104s-194.667 -181.666 -308 -336.999zM1418 -293.001h-147v147h147v-147zM1148 -293.001h-148v147h148v-147z" />
    <glyph glyph-name="glyph1205" unicode="&#x69e;" horiz-adv-x="1731" 
d="M551 188c155.333 218 292.003 377 410.003 477s232 150 342 150c99.333 0 188.666 -54 267.999 -162s119 -225.333 119 -352c0 -92 -42.5 -165.167 -127.5 -219.5s-200.167 -81.5 -345.5 -81.5h-758c-100.667 -0 -177.334 27.333 -230.001 82
c-50 -54.667 -126.333 -82 -229 -82c-32.667 0 -61.334 17 -86.001 51s-37 79.667 -37 137h127c106.667 0 160 63.667 160 191v10h131v-10c0 -127.333 53.333 -191 160 -191h96zM715.003 188l483 -0.000976562c108.667 0 196 11.5 262 34.5s99 52.5 99 88.5
c0 88 -28.167 163 -84.5 225s-114.5 93 -174.5 93c-92.667 0 -185 -34.667 -277 -104s-194.667 -181.666 -308 -336.999zM1342 1167h-148v147h148v-147zM1489 957.999h-147v147h147v-147zM1194 957.999h-147v147h147v-147z" />
    <glyph glyph-name="glyph1209" unicode="&#x6a0;" horiz-adv-x="1112" 
d="M1012 184c-328 -122.667 -583.996 -184 -767.996 -184h-244c-32.667 0 -61.334 17 -86.001 51s-37 79.667 -37 137h406c-60 32.667 -107.5 80 -142.5 142s-52.5 124 -52.5 186c0 131.333 37.333 234.5 112 309.5s172.667 112.5 294 112.5c159.333 0 293 -27.333 401 -82
v-213h-10c-106.667 75.333 -234.334 113 -383.001 113c-91.333 0 -161.333 -23.667 -210 -71s-73 -104.333 -73 -171c0 -98 33.167 -172.667 99.5 -224s115.166 -77 146.499 -77c19.333 0 85.166 15.5 197.499 46.5s228.833 68.833 349.5 113.5v-189zM576.004 1321h-148v147
h148v-147zM723.004 1112h-147v147h147v-147zM428.004 1112h-147v147h147v-147z" />
    <glyph glyph-name="glyph1210" unicode="&#x6a0;" horiz-adv-x="803" 
d="M803 0h-81.9971c-96.667 -0 -203.334 38.333 -320.001 115c-116 -76.667 -222.333 -115 -319 -115h-82c-32.667 0 -61.334 17 -86.001 51s-37 79.667 -37 137h205c69.333 0 132.666 11 189.999 33c-140.667 133.333 -211 257 -211 371c0 77.333 31.167 137 93.5 179
s144.5 63 246.5 63c102.667 0 185 -21 247 -63s93 -101.667 93 -179c0 -114 -70.333 -237.667 -211 -371c58 -22 121.667 -33 191 -33h82v-188zM401.003 289c63.333 45.333 114 93.166 152 143.499s57 92.5 57 126.5c0 56 -69.667 84 -209 84c-138.667 0 -208 -28 -208 -84
c0 -34 19 -76.167 57 -126.5s88.333 -98.166 151 -143.499zM476.003 1217h-148v147h148v-147zM623.003 1008h-147v147h147v-147zM328.003 1008h-147v147h147v-147z" />
    <glyph glyph-name="glyph1208" unicode="&#x6a0;" horiz-adv-x="928" 
d="M928 0h-21.001c-128.667 -0 -288.334 98.333 -479.001 295c-72 -54 -125.167 -102.333 -159.5 -145s-51.5 -92 -51.5 -148c0 -70.667 31.833 -128.334 95.5 -173.001s137.834 -67 222.501 -67c124 0 244.667 43 362 129h10v-213
c-109.333 -68 -232.666 -102 -369.999 -102c-123.333 0 -229.333 41 -318 123s-133 183 -133 303c0 78 20.333 144.5 61 199.5s107 115.5 199 181.5c-80 87.333 -135.5 155 -166.5 203s-46.5 99 -46.5 153c0 72 32.5 129.667 97.5 173s145.833 65 242.5 65
c98 0 179.167 -21.5 243.5 -64.5s96.5 -102.167 96.5 -177.5c0 -64 -17.167 -120.667 -51.5 -170s-110.833 -114.666 -229.5 -195.999c76.667 -76.667 140.5 -126 191.5 -148s106.833 -33 167.5 -33h37v-188zM450.999 455c80 54 137.501 98.332 172.501 132.999
s52.5 69.334 52.5 104.001c0 26.667 -19.167 49 -57.5 67s-86.833 27 -145.5 27c-56.667 0 -102.834 -8.83301 -138.501 -26.5s-53.5 -39.5 -53.5 -65.5c0 -24 12.833 -53.167 38.5 -87.5s69.5 -84.833 131.5 -151.5zM547 1360h-148v147h148v-147zM694 1151h-147v147h147
v-147zM399 1151h-147v147h147v-147z" />
    <glyph glyph-name="initfehbase" unicode="&#x6a1;" horiz-adv-x="594" 
d="M455 467c-27.333 -27.333 -69.667 -41.001 -127 -41.001c-74 0 -138.333 28.5 -193 85.5s-82 134.167 -82 231.5c0 100.667 27.5 188.334 82.5 263.001s110.833 112 167.5 112c75.333 0 140 -54.5 194 -163.5s81 -257.167 81 -444.5c0 -166 -35.167 -292.5 -105.5 -379.5
s-171.166 -130.5 -302.499 -130.5h-170c-32.667 0 -61.334 17 -86.001 51s-37 79.667 -37 137h295c79.333 0 146.333 25.5 201 76.5s82 118.5 82 202.5zM441.999 646.999c0 74.667 -15.832 141.167 -47.499 199.5s-62.834 87.5 -93.501 87.5
c-26.667 0 -53.834 -18 -81.501 -54s-41.5 -79.333 -41.5 -130c0 -93.333 51.333 -140 154 -140c44.667 0 81.334 12.333 110.001 37z" />
    <glyph glyph-name="medfehbase" unicode="&#x6a1;" horiz-adv-x="606" 
d="M606 0h-40.999c-80 -0 -167.333 33.333 -262 100c-94.667 -66.667 -182 -100 -262 -100h-41c-32.667 0 -61.334 17 -86.001 51s-37 79.667 -37 137h205c36 0 73 5.66699 111 17c-90.667 111.333 -136 215 -136 311c0 95.333 23 172.166 69 230.499s105 87.5 177 87.5
s131 -29.167 177 -87.5s69 -135.166 69 -230.499c0 -96 -45 -199.667 -135 -311c37.333 -11.333 74 -17 110 -17h82v-188zM303.001 266c76.667 72.667 115 152.667 115 240c0 39.333 -10.333 72 -31 98s-48.667 39 -84 39s-63.333 -13 -84 -39s-31 -58.667 -31 -98
c0 -87.333 38.333 -167.333 115 -240z" />
    <glyph glyph-name="glyph1213" unicode="&#x6a2;" horiz-adv-x="594" 
d="M455 467c-27.333 -27.333 -69.667 -41.001 -127 -41.001c-74 0 -138.333 28.5 -193 85.5s-82 134.167 -82 231.5c0 100.667 27.5 188.334 82.5 263.001s110.833 112 167.5 112c75.333 0 140 -54.5 194 -163.5s81 -257.167 81 -444.5c0 -166 -35.167 -292.5 -105.5 -379.5
s-171.166 -130.5 -302.499 -130.5h-170c-32.667 0 -61.334 17 -86.001 51s-37 79.667 -37 137h295c79.333 0 146.333 25.5 201 76.5s82 118.5 82 202.5zM441.999 646.999c0 74.667 -15.832 141.167 -47.499 199.5s-62.834 87.5 -93.501 87.5
c-26.667 0 -53.834 -18 -81.501 -54s-41.5 -79.333 -41.5 -130c0 -93.333 51.333 -140 154 -140c44.667 0 81.334 12.333 110.001 37zM381 -293.001h-148v147h148v-147z" />
    <glyph glyph-name="glyph1214" unicode="&#x6a2;" horiz-adv-x="606" 
d="M606 0h-40.999c-80 -0 -167.333 33.333 -262 100c-94.667 -66.667 -182 -100 -262 -100h-41c-32.667 0 -61.334 17 -86.001 51s-37 79.667 -37 137h205c36 0 73 5.66699 111 17c-90.667 111.333 -136 215 -136 311c0 95.333 23 172.166 69 230.499s105 87.5 177 87.5
s131 -29.167 177 -87.5s69 -135.166 69 -230.499c0 -96 -45 -199.667 -135 -311c37.333 -11.333 74 -17 110 -17h82v-188zM303.001 266c76.667 72.667 115 152.667 115 240c0 39.333 -10.333 72 -31 98s-48.667 39 -84 39s-63.333 -13 -84 -39s-31 -58.667 -31 -98
c0 -87.333 38.333 -167.333 115 -240zM381.001 -293h-148v147h148v-147z" />
    <glyph glyph-name="glyph1216" unicode="&#x6a3;" horiz-adv-x="594" 
d="M455 467c-27.333 -27.333 -69.667 -41.001 -127 -41.001c-74 0 -138.333 28.5 -193 85.5s-82 134.167 -82 231.5c0 100.667 27.5 188.334 82.5 263.001s110.833 112 167.5 112c75.333 0 140 -54.5 194 -163.5s81 -257.167 81 -444.5c0 -166 -35.167 -292.5 -105.5 -379.5
s-171.166 -130.5 -302.499 -130.5h-170c-32.667 0 -61.334 17 -86.001 51s-37 79.667 -37 137h295c79.333 0 146.333 25.5 201 76.5s82 118.5 82 202.5zM441.999 646.999c0 74.667 -15.832 141.167 -47.499 199.5s-62.834 87.5 -93.501 87.5
c-26.667 0 -53.834 -18 -81.501 -54s-41.5 -79.333 -41.5 -130c0 -93.333 51.333 -140 154 -140c44.667 0 81.334 12.333 110.001 37zM381 -293.001h-148v147h148v-147zM345 1292h-148v147h148v-147z" />
    <glyph glyph-name="glyph1217" unicode="&#x6a3;" horiz-adv-x="606" 
d="M606 0h-40.999c-80 -0 -167.333 33.333 -262 100c-94.667 -66.667 -182 -100 -262 -100h-41c-32.667 0 -61.334 17 -86.001 51s-37 79.667 -37 137h205c36 0 73 5.66699 111 17c-90.667 111.333 -136 215 -136 311c0 95.333 23 172.166 69 230.499s105 87.5 177 87.5
s131 -29.167 177 -87.5s69 -135.166 69 -230.499c0 -96 -45 -199.667 -135 -311c37.333 -11.333 74 -17 110 -17h82v-188zM303.001 266c76.667 72.667 115 152.667 115 240c0 39.333 -10.333 72 -31 98s-48.667 39 -84 39s-63.333 -13 -84 -39s-31 -58.667 -31 -98
c0 -87.333 38.333 -167.333 115 -240zM381.001 -293h-148v147h148v-147zM377.001 1008h-148v147h148v-147z" />
    <glyph glyph-name="uni06a4" unicode="&#x6a4;" horiz-adv-x="1618" arabic-form="final" 
d="M1499 1292h-147v147h147v-147zM1561 291c0 -93.333 -40.332 -165.168 -120.999 -215.501s-199 -75.5 -355 -75.5h-505c-333.333 0 -500 159 -500 477c0 76 10.333 156 31 240h131v-10c-20.667 -74 -31 -146.667 -31 -218c0 -106.667 29 -183.5 87 -230.5
s152.667 -70.5 284 -70.5h495c113.333 0 200.5 13 261.5 39s91.5 72 91.5 138v102c-26 -27.333 -63 -41 -111 -41c-73.333 0 -137.5 28.5 -192.5 85.5s-82.5 134.167 -82.5 231.5c0 100.667 27.667 188.334 83 263.001s111 112 167 112
c75.333 0 138.666 -54.167 189.999 -162.5s77 -256.833 77 -445.5v-219zM1419 652.998c0 62 -14.167 123.666 -42.5 184.999s-56.5 92 -84.5 92c-24 0 -49.333 -19.667 -76 -59s-40 -79.666 -40 -120.999c0 -38.667 14 -71 42 -97s63 -39 105 -39c36.667 0 68.667 13 96 39z
M1057 1292v147h147v-147h-147zM1204 1501v147h148v-147h-148z" />
    <glyph glyph-name="glyph1219" unicode="&#x6a5;" horiz-adv-x="594" 
d="M455 467c-27.333 -27.333 -69.667 -41.001 -127 -41.001c-74 0 -138.333 28.5 -193 85.5s-82 134.167 -82 231.5c0 100.667 27.5 188.334 82.5 263.001s110.833 112 167.5 112c75.333 0 140 -54.5 194 -163.5s81 -257.167 81 -444.5c0 -166 -35.167 -292.5 -105.5 -379.5
s-171.166 -130.5 -302.499 -130.5h-170c-32.667 0 -61.334 17 -86.001 51s-37 79.667 -37 137h295c79.333 0 146.333 25.5 201 76.5s82 118.5 82 202.5zM441.999 646.999c0 74.667 -15.832 141.167 -47.499 199.5s-62.834 87.5 -93.501 87.5
c-26.667 0 -53.834 -18 -81.501 -54s-41.5 -79.333 -41.5 -130c0 -93.333 51.333 -140 154 -140c44.667 0 81.334 12.333 110.001 37zM381 -430.001h-148v147h148v-147zM528 -221.001h-147v147h147v-147zM233 -221.001h-147v147h147v-147z" />
    <glyph glyph-name="glyph1220" unicode="&#x6a5;" horiz-adv-x="606" 
d="M606 0h-40.999c-80 -0 -167.333 33.333 -262 100c-94.667 -66.667 -182 -100 -262 -100h-41c-32.667 0 -61.334 17 -86.001 51s-37 79.667 -37 137h205c36 0 73 5.66699 111 17c-90.667 111.333 -136 215 -136 311c0 95.333 23 172.166 69 230.499s105 87.5 177 87.5
s131 -29.167 177 -87.5s69 -135.166 69 -230.499c0 -96 -45 -199.667 -135 -311c37.333 -11.333 74 -17 110 -17h82v-188zM303.001 266c76.667 72.667 115 152.667 115 240c0 39.333 -10.333 72 -31 98s-48.667 39 -84 39s-63.333 -13 -84 -39s-31 -58.667 -31 -98
c0 -87.333 38.333 -167.333 115 -240zM381.001 -430h-148v147h148v-147zM528.001 -221h-147v147h147v-147zM233.001 -221h-147v147h147v-147z" />
    <glyph glyph-name="uni06A6" unicode="&#x6a6;" horiz-adv-x="1618" arabic-form="final" 
d="M1561 291c0 -194 -158.667 -291 -476 -291h-505c-333.333 0 -500 159 -500 477c0 76 10.333 156 31 240h131v-10c-20.667 -74 -31 -146.667 -31 -218c0 -114 34.667 -194.667 104 -242c57.333 -39.333 146.333 -59 267 -59h495c235.333 0 353 59 353 177v102
c-26 -27.333 -63 -41 -111 -41c-72.667 0 -136.667 28.667 -192 86s-83 134.333 -83 231c0 78 21.667 156.667 65 236c51.333 92.667 113 139 185 139c100 0 173.333 -82 220 -246c31.333 -109.333 47 -230 47 -362v-219zM1419 653c0 45.333 -11.001 99.001 -33.001 161.001
c-26.667 77.333 -58 116 -94 116c-30 0 -57.667 -23.333 -83 -70c-22 -40.667 -33 -77.334 -33 -110.001c0 -40 14.333 -72.667 43 -98s63.334 -38 104.001 -38c36.667 0 68.667 13 96 39zM1486 1501h-147v147h147v-147zM1216 1501h-148v147h148v-147zM1486 1292h-147v147
h147v-147zM1216 1292h-148v147h148v-147z" />
    <glyph glyph-name="afii57567" unicode="&#x6a9;" horiz-adv-x="1217" arabic-form="final" 
d="M819 188c71.333 0 121 8.33105 149 24.998s42 44.667 42 84c0 25.333 -13 52.5 -39 81.5s-80 82.5 -162 160.5l-291 274c-69.333 67.333 -104 133 -104 197c0 34.667 13.5 66.334 40.5 95.001s85.833 70 176.5 124l504 301v-197l-422 -250
c-27.333 -13.333 -52.333 -31 -75 -53s-34 -40.333 -34 -55c0 -37.333 30.667 -85.333 92 -144l283 -268c84.667 -80 138.667 -140.167 162 -180.5s35 -79.833 35 -118.5c0 -176 -118.333 -264 -355 -264h-428c-110 0 -194.5 26.333 -253.5 79s-88.5 129.334 -88.5 230.001
c0 26.667 2.66699 67 8 121h134v-10c-7.33301 -38 -11 -74.333 -11 -109c0 -82 70.333 -123 211 -123h426z" />
    <glyph glyph-name="glyph1227" unicode="&#x6aa;" horiz-adv-x="1753" 
d="M1729 199c0 -132.667 -147 -199 -441 -199h-1300c-41.333 -0 -73.333 22.333 -96 67c-18 35.333 -27 75.666 -27 120.999h1485c115.333 0 173 15.333 173 46c0 28 -53.333 52 -160 72l-723 136c-146 27.333 -219 100.333 -219 219c0 72.667 72.333 152.334 217 239.001
l504 301v-197l-422 -250c-72 -42.667 -108 -78.667 -108 -108c0 -28.667 37.333 -50 112 -64l714 -133c194 -36 291 -119.333 291 -250z" />
    <glyph glyph-name="glyph1229" unicode="&#x6ab;" horiz-adv-x="807" 
d="M725 1333l-421.999 -250.001c-27.333 -13.333 -52.166 -31 -74.499 -53s-33.5 -40.333 -33.5 -55c0 -37.333 30.667 -85.333 92 -144l282 -268c84.667 -80 138.667 -140.167 162 -180.5s35 -79.833 35 -118.5c0 -176 -118 -264 -354 -264h-412
c-32.667 0 -61.334 17 -86.001 51s-37 79.667 -37 137h533c71.333 0 120.833 8.33301 148.5 25s41.5 44.667 41.5 84c0 25.333 -12.833 52.5 -38.5 81.5s-79.834 82.5 -162.501 160.5l-290 274c-70 67.333 -105 133 -105 197c0 34.667 13.667 66.334 41 95.001
s86 70 176 124l504 301v-197zM524.001 1212c39.333 0 73 -14 101 -42s42 -62 42 -102c0 -39.333 -14 -73 -42 -101s-61.667 -42 -101 -42c-40 0 -74 14 -102 42s-42 61.667 -42 101c0 40 14 74 42 102s62 42 102 42zM524.001 990.999c21.333 0 39.5 7.5 54.5 22.5
s22.5 33.167 22.5 54.5s-7.5 39.666 -22.5 54.999s-33.167 23 -54.5 23s-39.666 -7.66699 -54.999 -23s-23 -33.666 -23 -54.999s7.66699 -39.5 23 -54.5s33.666 -22.5 54.999 -22.5z" />
    <glyph glyph-name="glyph1231" unicode="&#x6ac;" horiz-adv-x="807" 
d="M725 1333l-421.999 -250.001c-27.333 -13.333 -52.166 -31 -74.499 -53s-33.5 -40.333 -33.5 -55c0 -37.333 30.667 -85.333 92 -144l282 -268c84.667 -80 138.667 -140.167 162 -180.5s35 -79.833 35 -118.5c0 -176 -118 -264 -354 -264h-412
c-32.667 0 -61.334 17 -86.001 51s-37 79.667 -37 137h533c71.333 0 120.833 8.33301 148.5 25s41.5 44.667 41.5 84c0 25.333 -12.833 52.5 -38.5 81.5s-79.834 82.5 -162.501 160.5l-290 274c-70 67.333 -105 133 -105 197c0 34.667 13.667 66.334 41 95.001
s86 70 176 124l504 301v-197zM281.001 1383h-148v147h148v-147z" />
    <glyph glyph-name="uni06AD" unicode="&#x6ad;" horiz-adv-x="1229" arabic-form="final" 
d="M1147 270c0 -82 -29.333 -147.501 -88 -196.501s-138.667 -73.5 -240 -73.5h-426c-110 0 -194.5 26.333 -253.5 79s-88.5 129.334 -88.5 230.001c0 26.667 2.66699 67 8 121h134v-10c-7.33301 -38 -11 -74.333 -11 -109c0 -82 70.333 -123 211 -123h418
c136.667 0 205 52 205 156v1212h131v-1286zM645 878.999c-91.333 0 -137.001 -15.9971 -137.001 -47.9971c0 -18.667 19 -32 57 -40l64 -15c56 -12 84 -42.667 84 -92c0 -44.667 -25.667 -79.334 -77 -104.001s-116.666 -37 -195.999 -37v69c135.333 0 203 22 203 66
c0 11.333 -6.5 19.666 -19.5 24.999s-46.5 13.666 -100.5 24.999s-81 44.333 -81 99c0 38.667 18.167 68.5 54.5 89.5s85.833 31.5 148.5 31.5v-69zM730.999 1409h-148v147h148v-147zM877.999 1200h-147v147h147v-147zM582.999 1200h-147v147h147v-147z" />
    <glyph glyph-name="glyph1235" unicode="&#x6ae;" horiz-adv-x="807" 
d="M725 1333l-421.999 -250.001c-27.333 -13.333 -52.166 -31 -74.499 -53s-33.5 -40.333 -33.5 -55c0 -37.333 30.667 -85.333 92 -144l282 -268c84.667 -80 138.667 -140.167 162 -180.5s35 -79.833 35 -118.5c0 -176 -118 -264 -354 -264h-412
c-32.667 0 -61.334 17 -86.001 51s-37 79.667 -37 137h533c71.333 0 120.833 8.33301 148.5 25s41.5 44.667 41.5 84c0 25.333 -12.833 52.5 -38.5 81.5s-79.834 82.5 -162.501 160.5l-290 274c-70 67.333 -105 133 -105 197c0 34.667 13.667 66.334 41 95.001
s86 70 176 124l504 301v-197zM381.001 -430.001h-148v147h148v-147zM528.001 -221.001h-147v147h147v-147zM233.001 -221.001h-147v147h147v-147z" />
    <glyph glyph-name="afii57509" unicode="&#x6af;" horiz-adv-x="1217" arabic-form="final" 
d="M819 188c71.333 0 121 8.33105 149 24.998s42 44.667 42 84c0 25.333 -13 52.5 -39 81.5s-80 82.5 -162 160.5l-291 274c-69.333 67.333 -104 133 -104 197c0 34.667 13.5 66.334 40.5 95.001s85.833 70 176.5 124l504 301v-197l-422 -250
c-27.333 -13.333 -52.333 -31 -75 -53s-34 -40.333 -34 -55c0 -37.333 30.667 -85.333 92 -144l283 -268c84.667 -80 138.667 -140.167 162 -180.5s35 -79.833 35 -118.5c0 -176 -118.333 -264 -355 -264h-428c-110 0 -194.5 26.333 -253.5 79s-88.5 129.334 -88.5 230.001
c0 26.667 2.66699 67 8 121h134v-10c-7.33301 -38 -11 -74.333 -11 -109c0 -82 70.333 -123 211 -123h426zM1110 1649l-672 -402v101l672 401v-100z" />
    <glyph glyph-name="glyph1237" unicode="&#x6b0;" horiz-adv-x="807" 
d="M725 1333l-421.999 -250.001c-27.333 -13.333 -52.166 -31 -74.499 -53s-33.5 -40.333 -33.5 -55c0 -37.333 30.667 -85.333 92 -144l282 -268c84.667 -80 138.667 -140.167 162 -180.5s35 -79.833 35 -118.5c0 -176 -118 -264 -354 -264h-412
c-32.667 0 -61.334 17 -86.001 51s-37 79.667 -37 137h533c71.333 0 120.833 8.33301 148.5 25s41.5 44.667 41.5 84c0 25.333 -12.833 52.5 -38.5 81.5s-79.834 82.5 -162.501 160.5l-290 274c-70 67.333 -105 133 -105 197c0 34.667 13.667 66.334 41 95.001
s86 70 176 124l504 301v-197zM700.001 1649l-671 -402v101l671 401v-100zM524.001 1212c39.333 0 73 -14 101 -42s42 -62 42 -102c0 -39.333 -14 -73 -42 -101s-61.667 -42 -101 -42c-40 0 -74 14 -102 42s-42 61.667 -42 101c0 40 14 74 42 102s62 42 102 42z
M524.001 990.999c21.333 0 39.5 7.5 54.5 22.5s22.5 33.167 22.5 54.5s-7.5 39.666 -22.5 54.999s-33.167 23 -54.5 23s-39.666 -7.66699 -54.999 -23s-23 -33.666 -23 -54.999s7.66699 -39.5 23 -54.5s33.666 -22.5 54.999 -22.5z" />
    <glyph glyph-name="uni06B1" unicode="&#x6b1;" horiz-adv-x="1217" arabic-form="final" 
d="M819 188c71.333 0 121 8.33105 149 24.998s42 44.667 42 84c0 25.333 -13 52.5 -39 81.5s-80 82.5 -162 160.5l-291 274c-69.333 67.333 -104 133 -104 197c0 34.667 13.5 66.334 40.5 95.001s85.833 70 176.5 124l504 301v-197l-422 -250
c-27.333 -13.333 -52.333 -31 -75 -53s-34 -40.333 -34 -55c0 -37.333 30.667 -85.333 92 -144l283 -268c84.667 -80 138.667 -140.167 162 -180.5s35 -79.833 35 -118.5c0 -176 -118.333 -264 -355 -264h-428c-110 0 -194.5 26.333 -253.5 79s-88.5 129.334 -88.5 230.001
c0 26.667 2.66699 67 8 121h134v-10c-7.33301 -38 -11 -74.333 -11 -109c0 -82 70.333 -123 211 -123h426zM1110 1649l-672 -402v101l672 401v-100zM827 1670h-147v147h147v-147zM557 1670h-148v147h148v-147z" />
    <glyph glyph-name="glyph1241" unicode="&#x6b2;" horiz-adv-x="807" 
d="M725 1333l-421.999 -250.001c-27.333 -13.333 -52.166 -31 -74.499 -53s-33.5 -40.333 -33.5 -55c0 -37.333 30.667 -85.333 92 -144l282 -268c84.667 -80 138.667 -140.167 162 -180.5s35 -79.833 35 -118.5c0 -176 -118 -264 -354 -264h-412
c-32.667 0 -61.334 17 -86.001 51s-37 79.667 -37 137h533c71.333 0 120.833 8.33301 148.5 25s41.5 44.667 41.5 84c0 25.333 -12.833 52.5 -38.5 81.5s-79.834 82.5 -162.501 160.5l-290 274c-70 67.333 -105 133 -105 197c0 34.667 13.667 66.334 41 95.001
s86 70 176 124l504 301v-197zM700.001 1649l-671 -402v101l671 401v-100zM516.001 -293.001h-147v147h147v-147zM246.001 -293.001h-148v147h148v-147z" />
    <glyph glyph-name="uni06B3" unicode="&#x6b3;" horiz-adv-x="1217" arabic-form="final" 
d="M819 188c71.333 0 121 8.33105 149 24.998s42 44.667 42 84c0 25.333 -13 52.5 -39 81.5s-80 82.5 -162 160.5l-291 274c-69.333 67.333 -104 133 -104 197c0 34.667 13.5 66.334 40.5 95.001s85.833 70 176.5 124l504 301v-197l-422 -250
c-27.333 -13.333 -52.333 -31 -75 -53s-34 -40.333 -34 -55c0 -37.333 30.667 -85.333 92 -144l283 -268c84.667 -80 138.667 -140.167 162 -180.5s35 -79.833 35 -118.5c0 -176 -118.333 -264 -355 -264h-428c-110 0 -194.5 26.333 -253.5 79s-88.5 129.334 -88.5 230.001
c0 26.667 2.66699 67 8 121h134v-10c-7.33301 -38 -11 -74.333 -11 -109c0 -82 70.333 -123 211 -123h426zM1110 1649l-672 -402v101l672 401v-100zM681 -221.002h-147v147h147v-147zM681 -430.002h-147v148h147v-148z" />
    <glyph glyph-name="glyph1245" unicode="&#x6b4;" horiz-adv-x="807" 
d="M725 1333l-421.999 -250.001c-27.333 -13.333 -52.166 -31 -74.499 -53s-33.5 -40.333 -33.5 -55c0 -37.333 30.667 -85.333 92 -144l282 -268c84.667 -80 138.667 -140.167 162 -180.5s35 -79.833 35 -118.5c0 -176 -118 -264 -354 -264h-412
c-32.667 0 -61.334 17 -86.001 51s-37 79.667 -37 137h533c71.333 0 120.833 8.33301 148.5 25s41.5 44.667 41.5 84c0 25.333 -12.833 52.5 -38.5 81.5s-79.834 82.5 -162.501 160.5l-290 274c-70 67.333 -105 133 -105 197c0 34.667 13.667 66.334 41 95.001
s86 70 176 124l504 301v-197zM700.001 1649l-671 -402v101l671 401v-100zM141.001 1741h-148v147h148v-147zM288.001 1532h-147v147h147v-147zM-6.99902 1532h-147v147h147v-147z" />
    <glyph glyph-name="glyph1247" unicode="&#x6b5;" horiz-adv-x="442" 
d="M360 270c0 -82 -29.167 -147.5 -87.5 -196.5s-138.166 -73.5 -239.499 -73.5h-33c-32.667 0 -61.334 17 -86.001 51s-37 79.667 -37 137h148c136 0 204 52 204 156v1212h131v-1286zM399 1880l-133 -270h-74l-133 270h73l97 -202l97 202h73z" />
    <glyph glyph-name="glyph1249" unicode="&#x6b6;" horiz-adv-x="442" 
d="M360 270c0 -82 -29.167 -147.5 -87.5 -196.5s-138.166 -73.5 -239.499 -73.5h-33c-32.667 0 -61.334 17 -86.001 51s-37 79.667 -37 137h148c136 0 204 52 204 156v1212h131v-1286zM299 1662h-148v147h148v-147z" />
    <glyph glyph-name="glyph1251" unicode="&#x6b7;" horiz-adv-x="442" 
d="M294 1741h-148v147h148v-147zM441 1532h-147v147h147v-147zM146 1532h-147v147h147v-147zM360 270c0 -89.333 -33.332 -158 -99.999 -206c-58.667 -42.667 -134.334 -64 -227.001 -64h-33c-40.667 -0 -72.667 22.333 -96 67c-18 36 -27 76.333 -27 121h148
c136 0 204 52 204 156v1129h131v-1203z" />
    <glyph glyph-name="glyph1253" unicode="&#x6b8;" horiz-adv-x="442" 
d="M360 270c0 -82 -29.167 -147.5 -87.5 -196.5s-138.166 -73.5 -239.499 -73.5h-33c-32.667 0 -61.334 17 -86.001 51s-37 79.667 -37 137h148c136 0 204 52 204 156v1212h131v-1286zM295 -430h-148v147h148v-147zM442 -221h-147v147h147v-147zM147 -221h-147v147h147v-147
z" />
    <glyph glyph-name="glyph1255" unicode="&#x6b9;" horiz-adv-x="500" 
d="M418 270c0 -82 -29.332 -147.5 -87.999 -196.5s-138.667 -73.5 -240 -73.5h-90c-32.667 0 -61.334 17 -86.001 51s-37 79.667 -37 137h205c136.667 0 205 52 205 156v373h131v-447zM357.001 891h-148v147h148v-147zM279.001 -293h-148v147h148v-147z" />
    <glyph glyph-name="uni06ba" unicode="&#x6ba;" horiz-adv-x="1085" arabic-form="final" 
d="M1028 401c18 -80 27 -156.333 27 -229c0 -184.667 -43.333 -330.167 -130 -436.5s-210.667 -159.5 -372 -159.5s-285.333 53.167 -372 159.5s-130 251.833 -130 436.5c0 72.667 9 149 27 229h131v-10c-18 -64 -27 -133 -27 -207c0 -280 123.667 -420 371 -420
s371 140 371 420c0 38 -4.66699 83.667 -14 137l-13 70v10h131z" />
    <glyph glyph-name="uni06BB" unicode="&#x6bb;" horiz-adv-x="1085" arabic-form="final" 
d="M1028 401c18 -80 27 -156.333 27 -229c0 -184.667 -43.333 -330.167 -130 -436.5s-210.667 -159.5 -372 -159.5s-285.333 53.167 -372 159.5s-130 251.833 -130 436.5c0 72.667 9 149 27 229h131v-10c-18 -64 -27 -133 -27 -207c0 -280 123.667 -420 371 -420
s371 140 371 420c0 38 -4.66699 83.667 -14 137l-13 70v10h131zM747 608c0 -72 -53.333 -108.001 -160 -108.001h-227v67h66v413h57v-328c39.333 94 86 141 140 141c38 0 69 -22.333 93 -67c20.667 -37.333 31 -76.666 31 -117.999zM692 611.999
c0 23.333 -5.00195 46.333 -15.002 69c-13.333 30 -31.666 45 -54.999 45c-39.333 0 -85.666 -53 -138.999 -159h97c74.667 0 112 15 112 45z" />
    <glyph glyph-name="glyph1258" unicode="&#x6bc;" horiz-adv-x="500" 
d="M418 270c0 -82 -29.332 -147.5 -87.999 -196.5s-138.667 -73.5 -240 -73.5h-90c-32.667 0 -61.334 17 -86.001 51s-37 79.667 -37 137h205c136.667 0 205 52 205 156v373h131v-447zM357.001 891h-148v147h148v-147zM214.001 10c39.333 0 73 -14 101 -42s42 -62 42 -102
c0 -39.333 -14 -73 -42 -101s-61.667 -42 -101 -42c-40 0 -74 14 -102 42s-42 61.667 -42 101c0 40 14 74 42 102s62 42 102 42zM214.001 -211c21.333 0 39.5 7.5 54.5 22.5s22.5 33.167 22.5 54.5s-7.5 39.666 -22.5 54.999s-33.167 23 -54.5 23
s-39.666 -7.66699 -54.999 -23s-23 -33.666 -23 -54.999s7.66699 -39.5 23 -54.5s33.666 -22.5 54.999 -22.5z" />
    <glyph glyph-name="glyph1260" unicode="&#x6bd;" horiz-adv-x="500" 
d="M418 270c0 -82 -29.332 -147.5 -87.999 -196.5s-138.667 -73.5 -240 -73.5h-90c-32.667 0 -61.334 17 -86.001 51s-37 79.667 -37 137h205c136.667 0 205 52 205 156v373h131v-447zM352.001 1100h-148v147h148v-147zM499.001 891h-147v147h147v-147zM204.001 891h-147
v147h147v-147z" />
    <glyph glyph-name="afii57470" unicode="&#x647;" horiz-adv-x="922" arabic-form="initial" 
d="M115 1104l41 0.000976562c165.333 0 327.833 -90.167 487.5 -270.5s239.5 -356.5 239.5 -528.5c0 -203.333 -119.667 -305 -359 -305h-524c-32.667 0 -61.334 17 -86.001 51s-37 79.667 -37 137h244c-44 70 -66 141.667 -66 215c0 113.333 22.667 203.166 68 269.499
s105.333 99.5 180 99.5c88 0 160.833 -44.333 218.5 -133s86.5 -189 86.5 -301c0 -56.667 -12.333 -106.667 -37 -150h31c100 0 150 43 150 129c0 122 -57.667 252.167 -173 390.5s-255.666 207.5 -420.999 207.5h-43v189zM350 168.001c41.333 0 72.834 15.167 94.501 45.5
s32.5 69.833 32.5 118.5c0 67.333 -15.5 125.833 -46.5 175.5s-73.5 74.5 -127.5 74.5c-36.667 0 -65.334 -18.333 -86.001 -55s-31 -82.667 -31 -138c0 -59.333 15.167 -111 45.5 -155s69.833 -66 118.5 -66z" />
    <glyph glyph-name="glyph1263" unicode="&#x6bf;" horiz-adv-x="1112" 
d="M1030 184c-118.667 0 -293.168 -30.667 -523.501 -92s-399.166 -92 -506.499 -92c-32.667 0 -61.334 17 -86.001 51s-37 79.667 -37 137h129c95.333 0 241.833 26.833 439.5 80.5s333.167 82.834 406.5 87.501c-202 182 -419.667 273 -653 273h-95v186h105
c54 0 106.333 -5.33301 157 -16c50 -10.667 99.667 -26.667 149 -48c48.667 -20.667 98.334 -47.334 149.001 -80.001c48 -31.333 99 -69 153 -113c50 -40.667 105 -89 165 -145l43 -41h2l3 1v-189zM849.999 -221h-148v147h148v-147zM554.999 -221h-147v147h147v-147z
M701.999 -430h-147v147h147v-147zM712.999 936h-148v147h148v-147z" />
    <glyph glyph-name="glyph1262" unicode="&#x6bf;" horiz-adv-x="1112" 
d="M1112 0l-32.9971 -0.000976562c-90 0 -155.5 25.333 -196.5 76s-61.5 131.667 -61.5 243v218c-189.333 -9.33301 -337.333 -51.333 -444 -126s-160 -172 -160 -292c0 -114 41 -202.333 123 -265s186.333 -94 313 -94c179.333 0 322.666 37 429.999 111h11v-199
c-106.667 -64 -253 -96 -439 -96c-165.333 0 -301.5 48.667 -408.5 146s-160.5 228.333 -160.5 393c0 165.333 72.5 297.333 217.5 396s326.5 148 544.5 148c-174.667 75.333 -384.334 113 -629.001 113h-78v186h88c125.333 0 260.666 -25.667 405.999 -77
s281.666 -121.666 408.999 -210.999v-131h-92v-164c0 -78.667 10.333 -129.5 31 -152.5s51.334 -34.5 92.001 -34.5h37v-188zM739.003 110.999h-147v147h147v-147zM444.003 110.999h-147v147h147v-147zM592.003 -98.001h-148v147h148v-147zM769.003 1120h-148v147h148v-147z
" />
    <glyph glyph-name="uni06C0" unicode="&#x6c0;" horiz-adv-x="635" arabic-form="isolated" 
d="M113 930c144 -8.66699 260.167 -67.499 348.5 -176.499s132.5 -229.167 132.5 -360.5c0 -122.667 -25.167 -220.834 -75.5 -294.501s-113.833 -110.5 -190.5 -110.5c-82 0 -147 33.333 -195 100s-72 161.667 -72 285c0 132 44.667 257.667 134 377
c-24.667 6.66699 -52 10 -82 10v170zM463 393.001c0 135.333 -54.668 239.999 -164.001 313.999c-70.667 -91.333 -106 -202.666 -106 -333.999c0 -63.333 12.333 -112 37 -146s57.334 -51 98.001 -51c90 0 135 72.333 135 217zM366.999 1104h-252.002v70h56
c-28.667 16 -43 41.667 -43 77c0 34 12.167 62.667 36.5 86s55.833 35 94.5 35c36.667 0 65.334 -4 86.001 -12v-74c-24 11.333 -52 17 -84 17c-44 0 -66 -17.333 -66 -52c0 -21.333 11.333 -39.5 34 -54.5s50.334 -22.5 83.001 -22.5h55v-70z" />
    <glyph glyph-name="uni06c1" unicode="&#x6c1;" horiz-adv-x="1088" arabic-form="final" 
d="M1088 0c-167.333 0 -268.001 68.668 -302.001 206.001c-13.333 53.333 -26.666 91.333 -39.999 114c-22 36.667 -52.667 55 -92 55c-68.667 0 -139.334 -61 -212.001 -183c-58 -98.667 -113.667 -221.334 -167 -368.001h-175v10c108.667 242 189 402.667 241 482
c98.667 148.667 202.334 223 311.001 223c129.333 0 219.333 -80.667 270 -242c14 -44.667 28.5 -74 43.5 -88s55.833 -21 122.5 -21v-188z" />
    <glyph glyph-name="uni06C5" unicode="&#x6c5;" horiz-adv-x="868" arabic-form="final" 
d="M786 197c0 -220.667 -78.668 -383.666 -236.001 -488.999c-133.333 -88 -316.666 -132 -549.999 -132v188c278 0 469 55.667 573 167h-402v108h468c12 34.667 18 73 18 115c-27.333 -27.333 -64 -41 -110 -41c-84 0 -150.667 32.667 -200 98
c-45.333 59.333 -68 132.333 -68 219c0 77.333 21 155.666 63 234.999c49.333 93.333 109.333 140 180 140c96 0 167.667 -83 215 -249c32.667 -113.333 49 -233 49 -359zM644.999 340.001c0 44.667 -10.667 98 -32 160c-26.667 77.333 -57.667 116 -93 116
c-31.333 0 -58.333 -23 -81 -69c-19.333 -39.333 -29 -76.333 -29 -111c0 -40 13.333 -72.5 40 -97.5s60.334 -37.5 101.001 -37.5c43.333 0 74.666 13 93.999 39z" />
    <glyph glyph-name="uni06C6" unicode="&#x6c6;" horiz-adv-x="868" arabic-form="final" 
d="M657 154c-27.333 -27.333 -64 -40.999 -110 -40.999c-73.333 0 -136.333 28.333 -189 85s-79 134 -79 232c0 100.667 26.5 188.334 79.5 263.001s107.5 112 163.5 112c70 0 131.5 -54.833 184.5 -164.5s79.5 -257.5 79.5 -443.5
c0 -202.667 -66.833 -356.834 -200.5 -462.501s-328.834 -158.5 -585.501 -158.5v188c216.667 0 380.334 33.667 491.001 101s166 163.666 166 288.999zM645 340.001c0 62 -13.998 123.498 -41.998 184.498s-55.667 91.5 -83 91.5c-26 0 -50.833 -19.167 -74.5 -57.5
s-35.5 -79.166 -35.5 -122.499c0 -39.333 13.167 -71.666 39.5 -96.999s60.166 -38 101.499 -38c43.333 0 74.666 13 93.999 39zM646.002 1249l-133 -270h-74l-133 270h73l97 -202l97 202h73z" />
    <glyph glyph-name="uni06C7" unicode="&#x6c7;" horiz-adv-x="868" arabic-form="final" 
d="M657 154c-27.333 -27.333 -64 -40.999 -110 -40.999c-73.333 0 -136.333 28.333 -189 85s-79 134 -79 232c0 100.667 26.5 188.334 79.5 263.001s107.5 112 163.5 112c70 0 131.5 -54.833 184.5 -164.5s79.5 -257.5 79.5 -443.5
c0 -202.667 -66.833 -356.834 -200.5 -462.501s-328.834 -158.5 -585.501 -158.5v188c216.667 0 380.334 33.667 491.001 101s166 163.666 166 288.999zM645 340.001c0 62 -13.998 123.498 -41.998 184.498s-55.667 91.5 -83 91.5c-26 0 -50.833 -19.167 -74.5 -57.5
s-35.5 -79.166 -35.5 -122.499c0 -39.333 13.167 -71.666 39.5 -96.999s60.166 -38 101.499 -38c43.333 0 74.666 13 93.999 39zM597.002 978.999l-94.001 22.999c-84.667 -51.333 -176.667 -80 -276 -86v70c66.667 1.33301 133.334 16.333 200.001 45
c-62.667 24.667 -94 62.667 -94 114c0 36.667 11.667 66 35 88s54 33 92 33c36 0 66.5 -11.667 91.5 -35s37.5 -52.666 37.5 -87.999c0 -28.667 -13 -58 -39 -88l47 -10v-66zM487.001 1070c21.333 22 31.999 46.332 31.999 72.999c0 14.667 -5.66699 27.334 -17 38.001
s-24.666 16 -39.999 16c-39.333 0 -59 -18 -59 -54c0 -34 28 -58.333 84 -73z" />
    <glyph glyph-name="uni06C8" unicode="&#x6c8;" horiz-adv-x="868" arabic-form="final" 
d="M657 154c-27.333 -27.333 -64 -40.999 -110 -40.999c-73.333 0 -136.333 28.333 -189 85s-79 134 -79 232c0 100.667 26.5 188.334 79.5 263.001s107.5 112 163.5 112c70 0 131.5 -54.833 184.5 -164.5s79.5 -257.5 79.5 -443.5
c0 -202.667 -66.833 -356.834 -200.5 -462.501s-328.834 -158.5 -585.501 -158.5v188c216.667 0 380.334 33.667 491.001 101s166 163.666 166 288.999zM645 340.001c0 62 -13.998 123.498 -41.998 184.498s-55.667 91.5 -83 91.5c-26 0 -50.833 -19.167 -74.5 -57.5
s-35.5 -79.166 -35.5 -122.499c0 -39.333 13.167 -71.666 39.5 -96.999s60.166 -38 101.499 -38c43.333 0 74.666 13 93.999 39zM522.002 978.999h-70v513h70v-513z" />
    <glyph glyph-name="uni06C9" unicode="&#x6c9;" horiz-adv-x="868" arabic-form="final" 
d="M657 154c-27.333 -27.333 -64 -40.999 -110 -40.999c-73.333 0 -136.333 28.333 -189 85s-79 134 -79 232c0 100.667 26.5 188.334 79.5 263.001s107.5 112 163.5 112c70 0 131.5 -54.833 184.5 -164.5s79.5 -257.5 79.5 -443.5
c0 -202.667 -66.833 -356.834 -200.5 -462.501s-328.834 -158.5 -585.501 -158.5v188c216.667 0 380.334 33.667 491.001 101s166 163.666 166 288.999zM645 340.001c0 62 -13.998 123.498 -41.998 184.498s-55.667 91.5 -83 91.5c-26 0 -50.833 -19.167 -74.5 -57.5
s-35.5 -79.166 -35.5 -122.499c0 -39.333 13.167 -71.666 39.5 -96.999s60.166 -38 101.499 -38c43.333 0 74.666 13 93.999 39zM623.002 978.999l-127 202l-127 -202h-73l163 270h74l163 -270h-73z" />
    <glyph glyph-name="uni06CB" unicode="&#x6cb;" horiz-adv-x="868" arabic-form="final" 
d="M657 154c-27.333 -27.333 -64 -40.999 -110 -40.999c-73.333 0 -136.333 28.333 -189 85s-79 134 -79 232c0 100.667 26.5 188.334 79.5 263.001s107.5 112 163.5 112c70 0 131.5 -54.833 184.5 -164.5s79.5 -257.5 79.5 -443.5
c0 -202.667 -66.833 -356.834 -200.5 -462.501s-328.834 -158.5 -585.501 -158.5v188c216.667 0 380.334 33.667 491.001 101s166 163.666 166 288.999zM645 340.001c0 62 -13.998 123.498 -41.998 184.498s-55.667 91.5 -83 91.5c-26 0 -50.833 -19.167 -74.5 -57.5
s-35.5 -79.166 -35.5 -122.499c0 -39.333 13.167 -71.666 39.5 -96.999s60.166 -38 101.499 -38c43.333 0 74.666 13 93.999 39zM584.002 1188h-148v147h148v-147zM731.002 978.999h-147v147h147v-147zM436.002 978.999h-147v147h147v-147z" />
    <glyph glyph-name="afii57555" unicode="&#x6cc;" horiz-adv-x="1311" arabic-form="isolated" 
d="M1239 866l-10 -0.00195312c-100 58.667 -206.667 88 -320 88c-54.667 0 -100 -12 -136 -36s-54 -53 -54 -87c0 -29.333 12.667 -57.166 38 -83.499s92.166 -67 200.499 -122s181 -103.167 218 -144.5s55.5 -90.333 55.5 -147c0 -107.333 -59.167 -189.833 -177.5 -247.5
s-293.5 -86.5 -525.5 -86.5c-331.333 0 -497 147.333 -497 442c0 66 6.66699 150 20 252h133v-10c-14.667 -90 -22 -170 -22 -240c0 -88.667 29.167 -153.5 87.5 -194.5s151.833 -61.5 280.5 -61.5c184.667 0 325.834 14 423.501 42s146.5 64 146.5 108
c0 28 -15.667 55.167 -47 81.5s-96.5 63.5 -195.5 111.5s-168.667 95.833 -209 143.5s-60.5 100.834 -60.5 159.501c0 81.333 31.333 152.5 94 213.5s144.667 91.5 246 91.5c111.333 0 215 -20 311 -60v-213z" />
    <glyph glyph-name="glyph1273" unicode="&#x6cd;" horiz-adv-x="1424" 
d="M1424 0c-112.667 0 -193.668 54.667 -243.001 164c-3.33301 7.33301 -26 70.333 -68 189c-32 90 -57.667 145 -77 165c-22 23.333 -50.333 35 -85 35c-61.333 0 -92 -29.333 -92 -88c0 -36.667 24 -83.667 72 -141c64 -76.667 96 -152.667 96 -228
c0 -176 -125 -264 -375 -264c-131.333 0 -233.666 44.667 -306.999 134c-68 82.667 -102 191 -102 325c0 26.667 2 60.667 6 102l-244 -78v96l391 131v-10c-14.667 -90 -22 -170 -22 -240c0 -181.333 93.333 -272 280 -272c158.667 0 238 39 238 117
c0 35.333 -24.667 82.666 -74 141.999c-62.667 74.667 -94 148.334 -94 221.001c0 74 19.5 132.667 58.5 176s95.167 65 168.5 65c75.333 0 133.333 -28 174 -84c26 -35.333 51.833 -98 77.5 -188s48.167 -151.333 67.5 -184c38 -64.667 89.333 -97 154 -97v-188z" />
    <glyph glyph-name="glyph1276" unicode="&#x6ce;" horiz-adv-x="500" 
d="M418 270c0 -82 -29.332 -147.5 -87.999 -196.5s-138.667 -73.5 -240 -73.5h-90c-32.667 0 -61.334 17 -86.001 51s-37 79.667 -37 137h205c136.667 0 205 52 205 156v373h131v-447zM418.001 -293h-147v147h147v-147zM148.001 -293h-148v147h148v-147zM457.001 1161
l-133 -270h-74l-133 270h73l97 -202l97 202h73z" />
    <glyph glyph-name="glyph1275" unicode="&#x6ce;" horiz-adv-x="1212" 
d="M1212 0c-63.333 0 -114.166 14.8301 -152.499 44.4971s-68.666 69.334 -90.999 119.001s-46.5 115.334 -72.5 197.001s-50.167 134.167 -72.5 157.5s-50.5 35 -84.5 35c-61.333 0 -92 -29.333 -92 -88c0 -36.667 24 -83.667 72 -141c64 -76.667 96 -152.667 96 -228
c0 -176 -125 -264 -375 -264c-122.667 0 -221.5 40.667 -296.5 122s-112.5 193.666 -112.5 336.999c0 43.333 4.66699 100 14 170h133v-10c-10.667 -44 -16 -96.667 -16 -158c0 -97.333 23 -167.166 69 -209.499s116.333 -63.5 211 -63.5c158.667 0 238 39 238 117
c0 34.667 -24.667 82 -74 142c-62.667 74 -94 147.667 -94 221c0 72.667 19.333 131 58 175s95 66 169 66c52.667 0 99 -14.667 139 -44s77.667 -105.666 113 -228.999s69.166 -200.833 101.499 -232.5s72.166 -47.5 119.499 -47.5v-188zM466 984.997l-133 -270h-74
l-133 270h73l97 -202l97 202h73z" />
    <glyph glyph-name="uni06D0" unicode="&#x6d0;" horiz-adv-x="1311" arabic-form="isolated" 
d="M1239 866l-10 -0.00195312c-100 58.667 -206.667 88 -320 88c-54.667 0 -100 -12 -136 -36s-54 -53 -54 -87c0 -29.333 12.667 -57.166 38 -83.499s92.166 -67 200.499 -122s181 -103.167 218 -144.5s55.5 -90.333 55.5 -147c0 -107.333 -59.167 -189.833 -177.5 -247.5
s-293.5 -86.5 -525.5 -86.5c-331.333 0 -497 147.333 -497 442c0 66 6.66699 150 20 252h133v-10c-14.667 -90 -22 -170 -22 -240c0 -88.667 29.167 -153.5 87.5 -194.5s151.833 -61.5 280.5 -61.5c184.667 0 325.834 14 423.501 42s146.5 64 146.5 108
c0 28 -15.667 55.167 -47 81.5s-96.5 63.5 -195.5 111.5s-168.667 95.833 -209 143.5s-60.5 100.834 -60.5 159.501c0 81.333 31.333 152.5 94 213.5s144.667 91.5 246 91.5c111.333 0 215 -20 311 -60v-213zM621 -221.002h-147v147h147v-147zM621 -430.002h-147v148h147
v-148z" />
    <glyph glyph-name="glyph1281" unicode="&#x6d1;" horiz-adv-x="1212" 
d="M1212 0c-104.667 0 -183.001 54.332 -235.001 162.999l-95 303c-34 108.667 -81.667 163 -143 163s-92 -29.333 -92 -88c0 -31.333 22.833 -77 68.5 -137s68.5 -119.333 68.5 -178c0 -83.333 -26 -144.333 -78 -183c-55.333 -40.667 -144 -61 -266 -61
c-133.333 0 -235.666 34.667 -306.999 104c-68 66.667 -102 158.334 -102 275.001c0 43.333 4.66699 100 14 170h133v-10c-10.667 -44 -16 -96.667 -16 -158c0 -69.333 23 -119.333 69 -150c43.333 -28.667 113.666 -43 210.999 -43c78.667 0 132.834 7.5 162.501 22.5
s44.5 42.167 44.5 81.5c0 30.667 -22.833 75.167 -68.5 133.5s-68.5 114.5 -68.5 168.5c0 74 19.5 132.667 58.5 176s95.167 65 168.5 65c96 0 165.333 -54.333 208 -163l86 -303c37.333 -108.667 97 -163 179 -163v-188zM687.999 -221.001h-147v147h147v-147z
M392.999 -221.001h-147v147h147v-147zM540.999 -430.001h-148v147h148v-147z" />
    <glyph glyph-name="uni06d2" unicode="&#x6d2;" horiz-adv-x="1753" arabic-form="isolated" 
d="M1883 -112c0 -45.333 -8.99902 -85.667 -26.999 -121c-22.667 -44.667 -54.667 -67 -96 -67h-1300c-294 0 -441 63 -441 189c0 60.667 26 109.667 78 147c33.333 24 97.666 53.333 192.999 88c108.667 40 190 75 244 105c50 28 113.333 96.333 190 205
c64 90.667 121 136 171 136c65.333 0 131.666 -60.667 198.999 -182v-188l-78 122c-43.333 60.667 -77.666 91 -102.999 91c-13.333 0 -46.666 -38.333 -99.999 -115c-60.667 -88.667 -115.334 -148 -164.001 -178c-66 -41.333 -160.667 -81 -284 -119
c-93.333 -28.667 -140 -51 -140 -67c0 -30.667 57.667 -46 173 -46h1485z" />
    <glyph glyph-name="uni06d3" unicode="&#x6d3;" horiz-adv-x="1753" arabic-form="isolated" 
d="M1883 -112c0 -45.333 -8.99902 -85.667 -26.999 -121c-22.667 -44.667 -54.667 -67 -96 -67h-1300c-294 0 -441 63 -441 189c0 60.667 26 109.667 78 147c33.333 24 97.666 53.333 192.999 88c108.667 40 190 75 244 105c50 28 113.333 96.333 190 205
c64 90.667 121 136 171 136c65.333 0 131.666 -60.667 198.999 -182v-188l-78 122c-43.333 60.667 -77.666 91 -102.999 91c-13.333 0 -46.666 -38.333 -99.999 -115c-60.667 -88.667 -115.334 -148 -164.001 -178c-66 -41.333 -160.667 -81 -284 -119
c-93.333 -28.667 -140 -51 -140 -67c0 -30.667 57.667 -46 173 -46h1485zM996.001 724.999h-252.002v70h56c-28.667 16 -43 41.667 -43 77c0 34 12.167 62.667 36.5 86s55.833 35 94.5 35c36.667 0 65.334 -4 86.001 -12v-74c-24 11.333 -52 17 -84 17
c-44 0 -66 -17.333 -66 -52c0 -21.333 11.333 -39.5 34 -54.5s50.334 -22.5 83.001 -22.5h55v-70z" />
    <glyph glyph-name="glyph1304" unicode="&#x6fa;" horiz-adv-x="1239" 
d="M1157 188c0 -125.333 -60.667 -188 -182 -188h-82c-97.333 0 -163.666 24 -198.999 72c-34.667 -48 -100.667 -72 -198 -72s-163.666 24 -198.999 72c-36.667 -48 -108.334 -72 -215.001 -72h-82c-32.667 0 -61.334 17 -86.001 51s-37 79.667 -37 137h205
c99.333 0 149 44.667 149 134v100h131v-100c0 -89.333 44.667 -134 134 -134c88.667 0 133 44.667 133 134v100h131v-100c0 -89.333 44.333 -134 133 -134s133 26.667 133 80v367h131v-447zM767 -293h-148v147h148v-147zM707 926h-148v147h148v-147zM854 717h-147v147h147
v-147zM559 717h-147v147h147v-147z" />
    <glyph glyph-name="glyph1306" unicode="&#x6fb;" horiz-adv-x="1731" 
d="M551 188c155.333 218 292.003 377 410.003 477s232 150 342 150c99.333 0 188.666 -54 267.999 -162s119 -225.333 119 -352c0 -92 -42.5 -165.167 -127.5 -219.5s-200.167 -81.5 -345.5 -81.5h-758c-100.667 -0 -177.334 27.333 -230.001 82
c-50 -54.667 -126.333 -82 -229 -82c-32.667 0 -61.334 17 -86.001 51s-37 79.667 -37 137h127c106.667 0 160 63.667 160 191v10h131v-10c0 -127.333 53.333 -191 160 -191h96zM715.003 188l483 -0.000976562c108.667 0 196 11.5 262 34.5s99 52.5 99 88.5
c0 88 -28.167 163 -84.5 225s-114.5 93 -174.5 93c-92.667 0 -185 -34.667 -277 -104s-194.667 -181.666 -308 -336.999zM1342 957.999h-148v147h148v-147zM1283 -293.001h-148v147h148v-147z" />
    <glyph glyph-name="glyph1309" unicode="&#x6fc;" horiz-adv-x="1112" 
d="M1012 184c-328 -122.667 -583.996 -184 -767.996 -184h-244c-32.667 0 -61.334 17 -86.001 51s-37 79.667 -37 137h406c-60 32.667 -107.5 80 -142.5 142s-52.5 124 -52.5 186c0 131.333 37.333 234.5 112 309.5s172.667 112.5 294 112.5c159.333 0 293 -27.333 401 -82
v-213h-10c-106.667 75.333 -234.334 113 -383.001 113c-91.333 0 -161.333 -23.667 -210 -71s-73 -104.333 -73 -171c0 -98 33.167 -172.667 99.5 -224s115.166 -77 146.499 -77c19.333 0 85.166 15.5 197.499 46.5s228.833 68.833 349.5 113.5v-189zM576.004 1112h-148v147
h148v-147zM576.004 400h-148v147h148v-147z" />
    <glyph glyph-name="glyph1310" unicode="&#x6fc;" horiz-adv-x="803" 
d="M803 0h-81.9971c-96.667 -0 -203.334 38.333 -320.001 115c-116 -76.667 -222.333 -115 -319 -115h-82c-32.667 0 -61.334 17 -86.001 51s-37 79.667 -37 137h205c69.333 0 132.666 11 189.999 33c-140.667 133.333 -211 257 -211 371c0 77.333 31.167 137 93.5 179
s144.5 63 246.5 63c102.667 0 185 -21 247 -63s93 -101.667 93 -179c0 -114 -70.333 -237.667 -211 -371c58 -22 121.667 -33 191 -33h82v-188zM401.003 289c63.333 45.333 114 93.166 152 143.499s57 92.5 57 126.5c0 56 -69.667 84 -209 84c-138.667 0 -208 -28 -208 -84
c0 -34 19 -76.167 57 -126.5s88.333 -98.166 151 -143.499zM476.003 1008h-148v147h148v-147zM476.003 -293h-148v147h148v-147z" />
    <glyph glyph-name="glyph1308" unicode="&#x6fc;" horiz-adv-x="928" 
d="M928 0h-21.001c-128.667 -0 -288.334 98.333 -479.001 295c-72 -54 -125.167 -102.333 -159.5 -145s-51.5 -92 -51.5 -148c0 -70.667 31.833 -128.334 95.5 -173.001s137.834 -67 222.501 -67c124 0 244.667 43 362 129h10v-213
c-109.333 -68 -232.666 -102 -369.999 -102c-123.333 0 -229.333 41 -318 123s-133 183 -133 303c0 78 20.333 144.5 61 199.5s107 115.5 199 181.5c-80 87.333 -135.5 155 -166.5 203s-46.5 99 -46.5 153c0 72 32.5 129.667 97.5 173s145.833 65 242.5 65
c98 0 179.167 -21.5 243.5 -64.5s96.5 -102.167 96.5 -177.5c0 -64 -17.167 -120.667 -51.5 -170s-110.833 -114.666 -229.5 -195.999c76.667 -76.667 140.5 -126 191.5 -148s106.833 -33 167.5 -33h37v-188zM450.999 455c80 54 137.501 98.332 172.501 132.999
s52.5 69.334 52.5 104.001c0 26.667 -19.167 49 -57.5 67s-86.833 27 -145.5 27c-56.667 0 -102.834 -8.83301 -138.501 -26.5s-53.5 -39.5 -53.5 -65.5c0 -24 12.833 -53.167 38.5 -87.5s69.5 -84.833 131.5 -151.5zM547 1151h-148v147h148v-147zM521 -80.001h-148v147h148
v-147z" />
    <glyph glyph-name="uniFB51" unicode="&#x671;" horiz-adv-x="479" arabic-form="final" 
d="M479 0c-94.667 0 -168.5 29.168 -221.5 87.501s-79.5 139.833 -79.5 244.5v1224h131v-1212c0 -56.667 12.833 -96.834 38.5 -120.501s68.167 -35.5 127.5 -35.5h4v-188zM429 1763c0 -46 -19.665 -83.667 -58.998 -113c-35.333 -26 -74.333 -39 -117 -39
c-20.667 0 -48.5 6.83301 -83.5 20.5s-61.833 20.5 -80.5 20.5c-20 0 -48 -14 -84 -42v70c35.333 28 63.666 42 84.999 42c17.333 0 37.333 -3.33301 60 -10c10 49.333 30.167 89.5 60.5 120.5s65.166 46.5 104.499 46.5c76 0 114 -38.667 114 -116zM359.002 1763
c0 30.667 -14.667 46 -44 46c-24 0 -45.667 -13.333 -65 -40c-17.333 -24 -28.666 -51.333 -33.999 -82c13.333 -4 25.666 -6 36.999 -6c30 0 55.167 8.5 75.5 25.5s30.5 35.833 30.5 56.5z" />
    <glyph glyph-name="uniFB54" unicode="&#x67b;" horiz-adv-x="500" arabic-form="initial" 
d="M418 270c0 -82 -29.332 -147.5 -87.999 -196.5s-138.667 -73.5 -240 -73.5h-90c-32.667 0 -61.334 17 -86.001 51s-37 79.667 -37 137h205c136.667 0 205 52 205 156v373h131v-447zM279.001 -221h-147v147h147v-147zM279.001 -430h-147v148h147v-148z" />
    <glyph glyph-name="afii62956" unicode="&#x67e;" horiz-adv-x="500" arabic-form="initial" 
d="M418 270c0 -82 -29.332 -147.5 -87.999 -196.5s-138.667 -73.5 -240 -73.5h-90c-32.667 0 -61.334 17 -86.001 51s-37 79.667 -37 137h205c136.667 0 205 52 205 156v373h131v-447zM426.001 -221h-147v147h147v-147zM131.001 -221h-147v147h147v-147zM279.001 -430h-148
v147h148v-147z" />
    <glyph glyph-name="uniFB5C" unicode="&#x680;" horiz-adv-x="500" arabic-form="initial" 
d="M418 270c0 -82 -29.332 -147.5 -87.999 -196.5s-138.667 -73.5 -240 -73.5h-90c-32.667 0 -61.334 17 -86.001 51s-37 79.667 -37 137h205c136.667 0 205 52 205 156v373h131v-447zM418.001 -221h-147v147h147v-147zM148.001 -221h-148v147h148v-147zM418.001 -430h-147
v147h147v-147zM148.001 -430h-148v147h148v-147z" />
    <glyph glyph-name="uniFB60" unicode="&#x67a;" horiz-adv-x="500" arabic-form="initial" 
d="M418 270c0 -82 -29.332 -147.5 -87.999 -196.5s-138.667 -73.5 -240 -73.5h-90c-32.667 0 -61.334 17 -86.001 51s-37 79.667 -37 137h205c136.667 0 205 52 205 156v373h131v-447zM357.001 1100h-147v147h147v-147zM357.001 891h-147v148h147v-148z" />
    <glyph glyph-name="uniFB64" unicode="&#x67f;" horiz-adv-x="500" arabic-form="initial" 
d="M418 270c0 -82 -29.332 -147.5 -87.999 -196.5s-138.667 -73.5 -240 -73.5h-90c-32.667 0 -61.334 17 -86.001 51s-37 79.667 -37 137h205c136.667 0 205 52 205 156v373h131v-447zM492.001 1100h-147v147h147v-147zM222.001 1100h-148v147h148v-147zM492.001 891h-147
v147h147v-147zM222.001 891h-148v147h148v-147z" />
    <glyph glyph-name="unifb68" unicode="&#x679;" horiz-adv-x="500" arabic-form="initial" 
d="M418 270c0 -82 -29.332 -147.5 -87.999 -196.5s-138.667 -73.5 -240 -73.5h-90c-32.667 0 -61.334 17 -86.001 51s-37 79.667 -37 137h205c136.667 0 205 52 205 156v373h131v-447zM437.001 908c0 -72 -53.333 -108.001 -160 -108.001h-227v67h66v413h57v-328
c39.333 94 86 141 140 141c38 0 69 -22.333 93 -67c20.667 -37.333 31 -76.666 31 -117.999zM382.001 911.999c0 23.333 -5.00195 46.333 -15.002 69c-13.333 30 -31.666 45 -54.999 45c-39.333 0 -85.666 -53 -138.999 -159h97c74.667 0 112 15 112 45z" />
    <glyph glyph-name="unifb6c" unicode="&#x6a4;" horiz-adv-x="594" arabic-form="initial" 
d="M455 467c-27.333 -27.333 -69.667 -41.001 -127 -41.001c-74 0 -138.333 28.5 -193 85.5s-82 134.167 -82 231.5c0 100.667 27.5 188.334 82.5 263.001s110.833 112 167.5 112c75.333 0 140 -54.5 194 -163.5s81 -257.167 81 -444.5c0 -166 -35.167 -292.5 -105.5 -379.5
s-171.166 -130.5 -302.499 -130.5h-170c-32.667 0 -61.334 17 -86.001 51s-37 79.667 -37 137h295c79.333 0 146.333 25.5 201 76.5s82 118.5 82 202.5zM441.999 646.999c0 74.667 -15.832 141.167 -47.499 199.5s-62.834 87.5 -93.501 87.5
c-26.667 0 -53.834 -18 -81.501 -54s-41.5 -79.333 -41.5 -130c0 -93.333 51.333 -140 154 -140c44.667 0 81.334 12.333 110.001 37zM381 1501h-148v147h148v-147zM528 1292h-147v147h147v-147zM233 1292h-147v147h147v-147z" />
    <glyph glyph-name="unifb6d" unicode="&#x6a4;" horiz-adv-x="606" arabic-form="medial" 
d="M606 0h-40.999c-80 -0 -167.333 33.333 -262 100c-94.667 -66.667 -182 -100 -262 -100h-41c-32.667 0 -61.334 17 -86.001 51s-37 79.667 -37 137h205c36 0 73 5.66699 111 17c-90.667 111.333 -136 215 -136 311c0 95.333 23 172.166 69 230.499s105 87.5 177 87.5
s131 -29.167 177 -87.5s69 -135.166 69 -230.499c0 -96 -45 -199.667 -135 -311c37.333 -11.333 74 -17 110 -17h82v-188zM303.001 266c76.667 72.667 115 152.667 115 240c0 39.333 -10.333 72 -31 98s-48.667 39 -84 39s-63.333 -13 -84 -39s-31 -58.667 -31 -98
c0 -87.333 38.333 -167.333 115 -240zM381.001 1217h-148v147h148v-147zM528.001 1008h-147v147h147v-147zM233.001 1008h-147v147h147v-147z" />
    <glyph glyph-name="uniFB70" unicode="&#x6a6;" horiz-adv-x="594" arabic-form="initial" 
d="M455 467c-27.333 -27.333 -69.667 -41.001 -127 -41.001c-74 0 -138.333 28.5 -193 85.5s-82 134.167 -82 231.5c0 100.667 27.5 188.334 82.5 263.001s110.833 112 167.5 112c75.333 0 140 -54.5 194 -163.5s81 -257.167 81 -444.5c0 -166 -35.167 -292.5 -105.5 -379.5
s-171.166 -130.5 -302.499 -130.5h-170c-32.667 0 -61.334 17 -86.001 51s-37 79.667 -37 137h295c79.333 0 146.333 25.5 201 76.5s82 118.5 82 202.5zM441.999 646.999c0 74.667 -15.832 141.167 -47.499 199.5s-62.834 87.5 -93.501 87.5
c-26.667 0 -53.834 -18 -81.501 -54s-41.5 -79.333 -41.5 -130c0 -93.333 51.333 -140 154 -140c44.667 0 81.334 12.333 110.001 37zM500 1501h-147v147h147v-147zM230 1501h-148v147h148v-147zM500 1292h-147v147h147v-147zM230 1292h-148v147h148v-147z" />
    <glyph glyph-name="uniFB71" unicode="&#x6a6;" horiz-adv-x="606" arabic-form="medial" 
d="M606 0h-40.999c-80 -0 -167.333 33.333 -262 100c-94.667 -66.667 -182 -100 -262 -100h-41c-32.667 0 -61.334 17 -86.001 51s-37 79.667 -37 137h205c36 0 73 5.66699 111 17c-90.667 111.333 -136 215 -136 311c0 95.333 23 172.166 69 230.499s105 87.5 177 87.5
s131 -29.167 177 -87.5s69 -135.166 69 -230.499c0 -96 -45 -199.667 -135 -311c37.333 -11.333 74 -17 110 -17h82v-188zM303.001 266c76.667 72.667 115 152.667 115 240c0 39.333 -10.333 72 -31 98s-48.667 39 -84 39s-63.333 -13 -84 -39s-31 -58.667 -31 -98
c0 -87.333 38.333 -167.333 115 -240zM512.001 1217h-147v147h147v-147zM242.001 1217h-148v147h148v-147zM512.001 1008h-147v147h147v-147zM242.001 1008h-148v147h148v-147z" />
    <glyph glyph-name="uniFB73" unicode="&#x684;" horiz-adv-x="1112" arabic-form="final" 
d="M1112 0l-32.9971 -0.000976562c-226.667 0 -340 106.333 -340 319v211c-163.333 -17.333 -291.166 -62 -383.499 -134s-138.5 -164.333 -138.5 -277c0 -114 41 -202.333 123 -265s186.333 -94 313 -94c179.333 0 322.666 37 429.999 111h11v-199
c-106.667 -64 -253 -96 -439 -96c-165.333 0 -301.5 48.667 -408.5 146s-160.5 228.333 -160.5 393c0 165.333 72.5 297.333 217.5 396s326.5 148 544.5 148c-174.667 75.333 -384.334 113 -629.001 113h-78v186h88c125.333 0 260.666 -25.667 405.999 -77
s281.666 -121.666 408.999 -210.999v-131c-96 0 -154 -0.666992 -174 -2v-162c0 -68 16.667 -116.167 50 -144.5s85 -42.5 155 -42.5h37v-188zM601.003 110.999h-147v147h147v-147zM601.003 -98.001h-147v148h147v-148z" />
    <glyph glyph-name="uniFB74" unicode="&#x684;" horiz-adv-x="1112" arabic-form="initial" 
d="M1030 184c-118.667 0 -293.168 -30.667 -523.501 -92s-399.166 -92 -506.499 -92c-32.667 0 -61.334 17 -86.001 51s-37 79.667 -37 137h129c95.333 0 241.833 26.833 439.5 80.5s333.167 82.834 406.5 87.501c-202 182 -419.667 273 -653 273h-95v186h105
c54 0 106.333 -5.33301 157 -16c50 -10.667 99.667 -26.667 149 -48c48.667 -20.667 98.334 -47.334 149.001 -80.001c48 -31.333 99 -69 153 -113c50 -40.667 105 -89 165 -145l43 -41h2l3 1v-189zM702.999 -221h-147v147h147v-147zM702.999 -430h-147v148h147v-148z" />
    <glyph glyph-name="uniFB77" unicode="&#x683;" horiz-adv-x="1112" arabic-form="final" 
d="M1112 0l-32.9971 -0.000976562c-226.667 0 -340 106.333 -340 319v211c-163.333 -17.333 -291.166 -62 -383.499 -134s-138.5 -164.333 -138.5 -277c0 -114 41 -202.333 123 -265s186.333 -94 313 -94c179.333 0 322.666 37 429.999 111h11v-199
c-106.667 -64 -253 -96 -439 -96c-165.333 0 -301.5 48.667 -408.5 146s-160.5 228.333 -160.5 393c0 165.333 72.5 297.333 217.5 396s326.5 148 544.5 148c-174.667 75.333 -384.334 113 -629.001 113h-78v186h88c125.333 0 260.666 -25.667 405.999 -77
s281.666 -121.666 408.999 -210.999v-131c-96 0 -154 -0.666992 -174 -2v-162c0 -68 16.667 -116.167 50 -144.5s85 -42.5 155 -42.5h37v-188zM716.003 11.999h-147v147h147v-147zM446.003 11.999h-148v147h148v-147z" />
    <glyph glyph-name="uniFB78" unicode="&#x683;" horiz-adv-x="1112" arabic-form="initial" 
d="M1030 184c-118.667 0 -293.168 -30.667 -523.501 -92s-399.166 -92 -506.499 -92c-32.667 0 -61.334 17 -86.001 51s-37 79.667 -37 137h129c95.333 0 241.833 26.833 439.5 80.5s333.167 82.834 406.5 87.501c-202 182 -419.667 273 -653 273h-95v186h105
c54 0 106.333 -5.33301 157 -16c50 -10.667 99.667 -26.667 149 -48c48.667 -20.667 98.334 -47.334 149.001 -80.001c48 -31.333 99 -69 153 -113c50 -40.667 105 -89 165 -145l43 -41h2l3 1v-189zM837.999 -244h-147v147h147v-147zM567.999 -244h-148v147h148v-147z" />
    <glyph glyph-name="afii62961" unicode="&#x686;" horiz-adv-x="1112" arabic-form="final" 
d="M1112 0l-32.9971 -0.000976562c-90 0 -155.5 25.333 -196.5 76s-61.5 131.667 -61.5 243v218c-189.333 -9.33301 -337.333 -51.333 -444 -126s-160 -172 -160 -292c0 -114 41 -202.333 123 -265s186.333 -94 313 -94c179.333 0 322.666 37 429.999 111h11v-199
c-106.667 -64 -253 -96 -439 -96c-165.333 0 -301.5 48.667 -408.5 146s-160.5 228.333 -160.5 393c0 165.333 72.5 297.333 217.5 396s326.5 148 544.5 148c-174.667 75.333 -384.334 113 -629.001 113h-78v186h88c125.333 0 260.666 -25.667 405.999 -77
s281.666 -121.666 408.999 -210.999v-131h-92v-164c0 -78.667 10.333 -129.5 31 -152.5s51.334 -34.5 92.001 -34.5h37v-188zM739.003 110.999h-147v147h147v-147zM444.003 110.999h-147v147h147v-147zM592.003 -98.001h-148v147h148v-147z" />
    <glyph glyph-name="afii62959" unicode="&#x686;" horiz-adv-x="1112" arabic-form="initial" 
d="M1030 184c-118.667 0 -293.168 -30.667 -523.501 -92s-399.166 -92 -506.499 -92c-32.667 0 -61.334 17 -86.001 51s-37 79.667 -37 137h129c95.333 0 241.833 26.833 439.5 80.5s333.167 82.834 406.5 87.501c-202 182 -419.667 273 -653 273h-95v186h105
c54 0 106.333 -5.33301 157 -16c50 -10.667 99.667 -26.667 149 -48c48.667 -20.667 98.334 -47.334 149.001 -80.001c48 -31.333 99 -69 153 -113c50 -40.667 105 -89 165 -145l43 -41h2l3 1v-189zM849.999 -221h-148v147h148v-147zM554.999 -221h-147v147h147v-147z
M701.999 -430h-147v147h147v-147z" />
    <glyph glyph-name="uniFB7F" unicode="&#x687;" horiz-adv-x="1112" arabic-form="final" 
d="M1112 0h-32.998c-96.667 0 -165.667 30 -207 90c-34 50 -51 126.333 -51 229v218c-158 -8 -290 -40.333 -396 -97c-138.667 -74 -208 -181 -208 -321c0 -118 44.667 -209.333 134 -274c78.667 -56.667 179.334 -85 302.001 -85c179.333 0 322.666 37 429.999 111h11v-199
c-106.667 -64 -253 -96 -439 -96c-166.667 0 -302.334 47.667 -407.001 143c-108 99.333 -162 231.333 -162 396c0 182 85.333 322.333 256 421c141.333 82 310 123 506 123c-174.667 75.333 -384.334 113 -629.001 113h-78v186h88c133.333 0 276 -28.333 428 -85
c137.333 -50.667 266.333 -118.334 387 -203.001v-131h-92v-164c0 -61.333 5.66699 -104.666 17 -129.999c18 -38 53.333 -57 106 -57h37v-188zM774.002 111h-147v147h147v-147zM504.002 111h-148v147h148v-147zM774.002 -98h-147v147h147v-147zM504.002 -98h-148v147h148
v-147z" />
    <glyph glyph-name="uniFB80" unicode="&#x687;" horiz-adv-x="1112" arabic-form="initial" 
d="M1030 184c-118.667 0 -293.168 -30.667 -523.501 -92s-399.166 -92 -506.499 -92c-32.667 0 -61.334 17 -86.001 51s-37 79.667 -37 137h129c95.333 0 241.833 26.833 439.5 80.5s333.167 82.834 406.5 87.501c-202 182 -419.667 273 -653 273h-95v186h105
c54 0 106.333 -5.33301 157 -16c50 -10.667 99.667 -26.667 149 -48c48.667 -20.667 98.334 -47.334 149.001 -80.001c48 -31.333 99 -69 153 -113c50 -40.667 105 -89 165 -145l43 -41h2l3 1v-189zM837.999 -221h-147v147h147v-147zM567.999 -221h-148v147h148v-147z
M837.999 -430h-147v147h147v-147zM567.999 -430h-148v147h148v-147z" />
    <glyph glyph-name="afii52305" unicode="&#x6a9;" horiz-adv-x="807" arabic-form="initial" 
d="M725 1333l-421.999 -250.001c-27.333 -13.333 -52.166 -31 -74.499 -53s-33.5 -40.333 -33.5 -55c0 -37.333 30.667 -85.333 92 -144l282 -268c84.667 -80 138.667 -140.167 162 -180.5s35 -79.833 35 -118.5c0 -176 -118 -264 -354 -264h-412
c-32.667 0 -61.334 17 -86.001 51s-37 79.667 -37 137h533c71.333 0 120.833 8.33301 148.5 25s41.5 44.667 41.5 84c0 25.333 -12.833 52.5 -38.5 81.5s-79.834 82.5 -162.501 160.5l-290 274c-70 67.333 -105 133 -105 197c0 34.667 13.667 66.334 41 95.001
s86 70 176 124l504 301v-197z" />
    <glyph glyph-name="afii62965" unicode="&#x6af;" horiz-adv-x="807" arabic-form="initial" 
d="M725 1333l-421.999 -250.001c-27.333 -13.333 -52.166 -31 -74.499 -53s-33.5 -40.333 -33.5 -55c0 -37.333 30.667 -85.333 92 -144l282 -268c84.667 -80 138.667 -140.167 162 -180.5s35 -79.833 35 -118.5c0 -176 -118 -264 -354 -264h-412
c-32.667 0 -61.334 17 -86.001 51s-37 79.667 -37 137h533c71.333 0 120.833 8.33301 148.5 25s41.5 44.667 41.5 84c0 25.333 -12.833 52.5 -38.5 81.5s-79.834 82.5 -162.501 160.5l-290 274c-70 67.333 -105 133 -105 197c0 34.667 13.667 66.334 41 95.001
s86 70 176 124l504 301v-197zM700.001 1649l-671 -402v101l671 401v-100z" />
    <glyph glyph-name="uniFB98" unicode="&#x6b3;" horiz-adv-x="807" arabic-form="initial" 
d="M725 1333l-421.999 -250.001c-27.333 -13.333 -52.166 -31 -74.499 -53s-33.5 -40.333 -33.5 -55c0 -37.333 30.667 -85.333 92 -144l282 -268c84.667 -80 138.667 -140.167 162 -180.5s35 -79.833 35 -118.5c0 -176 -118 -264 -354 -264h-412
c-32.667 0 -61.334 17 -86.001 51s-37 79.667 -37 137h533c71.333 0 120.833 8.33301 148.5 25s41.5 44.667 41.5 84c0 25.333 -12.833 52.5 -38.5 81.5s-79.834 82.5 -162.501 160.5l-290 274c-70 67.333 -105 133 -105 197c0 34.667 13.667 66.334 41 95.001
s86 70 176 124l504 301v-197zM700.001 1649l-671 -402v101l671 401v-100zM381.001 -221.001h-147v147h147v-147zM381.001 -430.001h-147v148h147v-148z" />
    <glyph glyph-name="uniFB9C" unicode="&#x6b1;" horiz-adv-x="807" arabic-form="initial" 
d="M725 1333l-421.999 -250.001c-27.333 -13.333 -52.166 -31 -74.499 -53s-33.5 -40.333 -33.5 -55c0 -37.333 30.667 -85.333 92 -144l282 -268c84.667 -80 138.667 -140.167 162 -180.5s35 -79.833 35 -118.5c0 -176 -118 -264 -354 -264h-412
c-32.667 0 -61.334 17 -86.001 51s-37 79.667 -37 137h533c71.333 0 120.833 8.33301 148.5 25s41.5 44.667 41.5 84c0 25.333 -12.833 52.5 -38.5 81.5s-79.834 82.5 -162.501 160.5l-290 274c-70 67.333 -105 133 -105 197c0 34.667 13.667 66.334 41 95.001
s86 70 176 124l504 301v-197zM700.001 1649l-671 -402v101l671 401v-100zM418.001 1670h-147v147h147v-147zM148.001 1670h-148v147h148v-147z" />
    <glyph glyph-name="uniFBA5" unicode="&#x6c0;" horiz-adv-x="782" arabic-form="final" 
d="M782 0c-79.333 0 -138.667 26.501 -178 79.501s-59 157.5 -59 313.5c-22.667 -36.667 -55.667 -67.334 -99 -92.001s-86.333 -37 -129 -37c-72 0 -130.833 25.833 -176.5 77.5s-68.5 122.167 -68.5 211.5c0 98.667 42.167 190.5 126.5 275.5s199.833 141.167 346.5 168.5
v72h131v-676c0 -74 8.33301 -126.667 25 -158s43.667 -47 81 -47v-188zM544.999 569.001l-0.000976562 293c-108 -22 -192 -61.333 -252 -118s-90 -119.667 -90 -189c0 -38 10.833 -67.333 32.5 -88s48.834 -31 81.501 -31c96 0 172 44.333 228 133zM462.998 1204h-252.002
v70h56c-28.667 16 -43 41.667 -43 77c0 34 12.167 62.667 36.5 86s55.833 35 94.5 35c36.667 0 65.334 -4 86.001 -12v-74c-24 11.333 -52 17 -84 17c-44 0 -66 -17.333 -66 -52c0 -21.333 11.333 -39.5 34 -54.5s50.334 -22.5 83.001 -22.5h55v-70z" />
    <glyph glyph-name="unifba6" unicode="&#x6c1;" horiz-adv-x="635" arabic-form="isolated" 
d="M113 930c144 -8.66699 260.167 -67.499 348.5 -176.499s132.5 -229.167 132.5 -360.5c0 -122.667 -25.167 -220.834 -75.5 -294.501s-113.833 -110.5 -190.5 -110.5c-82 0 -147 33.333 -195 100s-72 161.667 -72 285c0 132 44.667 257.667 134 377
c-24.667 6.66699 -52 10 -82 10v170zM463 393.001c0 135.333 -54.668 239.999 -164.001 313.999c-70.667 -91.333 -106 -202.666 -106 -333.999c0 -63.333 12.333 -112 37 -146s57.334 -51 98.001 -51c90 0 135 72.333 135 217z" />
    <glyph glyph-name="unifba8" unicode="&#x6c1;" horiz-adv-x="500" arabic-form="initial" 
d="M418 270c0 -88.667 -33.333 -157.333 -100 -206c-59.333 -42.667 -135.333 -64 -228 -64h-90c-40.667 -0 -72.667 22.333 -96 67c-18 36 -27 76.333 -27 121h205c136.667 0 205 52 205 156v373h131v-447zM272 -230.999h-125v125c0 26 10.667 49.333 32 70
c24 24 55 36 93 36v-49c-48 0 -72 -19 -72 -57h72v-125z" />
    <glyph glyph-name="unifba9" unicode="&#x6c1;" horiz-adv-x="1021" arabic-form="medial" 
d="M1020 0c-50 0 -104.499 31.3311 -163.499 93.998s-105.833 94 -140.5 94c-111.333 0 -211 -132.667 -299 -398h-145c-34.667 72.667 -43 176.334 -25 311.001c-6.66699 -8.66699 -15.667 -17.667 -27 -27c-36.667 -30.667 -61.334 -49 -74.001 -55
c-25.333 -12.667 -54 -19 -86 -19h-60c-40.667 0 -72.667 22.333 -96 67c-18 36 -27 76.333 -27 121h205c62.667 0 107 13.667 133 41c17.333 18 34.666 56.333 51.999 115l110 373h151l-65 -201c-21.333 -70.667 -39.666 -142.667 -54.999 -216
c-17.333 -61.333 -27.333 -146.666 -30 -255.999c41.333 100 92.333 177 153 231c51.333 51.333 115.666 77 192.999 77c58.667 0 117.334 -27.333 176.001 -82s98.667 -82 120 -82v-188z" />
    <glyph glyph-name="afii62827" unicode="&#x6be;" horiz-adv-x="803" arabic-form="final" 
d="M803 0h-239.999c54.667 -39.333 82 -96.666 82 -171.999c0 -72.667 -19.833 -132.834 -59.5 -180.501s-90.167 -71.5 -151.5 -71.5c-56 0 -111.333 39.5 -166 118.5s-82 180.833 -82 305.5h-186c-32.667 0 -61.334 17 -86.001 51s-37 79.667 -37 137h309
c0 122 27.833 219.833 83.5 293.5s113.167 110.5 172.5 110.5c60.667 0 109.667 -21.667 147 -65s56 -99 56 -167c0 -78.667 -33.333 -136 -100 -172h258v-188zM311.001 188h99c29.333 0 54 13.333 74 40s30 58.667 30 96c0 21.333 -6.33301 39.833 -19 55.5
s-29.667 23.5 -51 23.5c-31.333 0 -61.333 -20.167 -90 -60.5s-43 -91.833 -43 -154.5zM311.001 0c0 -64.667 13.5 -120.168 40.5 -166.501s55.167 -69.5 84.5 -69.5c52 0 78 29.667 78 89c0 38.667 -10 72.834 -30 102.501s-44.667 44.5 -74 44.5h-99z" />
    <glyph glyph-name="unifbaf" unicode="&#x6d2;" horiz-adv-x="1753" arabic-form="final" 
d="M1883 -242c0 -45.333 -9 -85.667 -27 -121c-22.667 -44.667 -54.667 -67 -96 -67h-1300c-142 0 -252.333 21 -331 63c-73.333 39.333 -110 91.666 -110 156.999c0 62.667 37 111.667 111 147c44.667 22 129 46.667 253 74c129.333 28 221.333 54 276 78
c80.667 34.667 177.667 100 291 196c91.333 76.667 159.666 115 204.999 115c28 0 75 -18.333 141 -55c93.333 -51.333 160 -85.333 200 -102c90 -36.667 177.333 -55 262 -55v-188c-98 0 -194 19.667 -288 59c-54.667 22.667 -120.667 59.334 -198 110.001
c-60.667 39.333 -99.667 59 -117 59c-20 0 -68.667 -32.333 -146 -97c-92.667 -76.667 -183.667 -133 -273 -169c-85.333 -34 -203.666 -67.333 -354.999 -100c-104 -22 -156 -42.667 -156 -62c0 -28 57.667 -42 173 -42h1485z" />
    <glyph glyph-name="unifbb1" unicode="&#x6d3;" horiz-adv-x="1753" arabic-form="final" 
d="M1883 -242c0 -45.333 -9 -85.667 -27 -121c-22.667 -44.667 -54.667 -67 -96 -67h-1300c-142 0 -252.333 21 -331 63c-73.333 39.333 -110 91.666 -110 156.999c0 62.667 37 111.667 111 147c44.667 22 129 46.667 253 74c129.333 28 221.333 54 276 78
c80.667 34.667 177.667 100 291 196c91.333 76.667 159.666 115 204.999 115c28 0 75 -18.333 141 -55c93.333 -51.333 160 -85.333 200 -102c90 -36.667 177.333 -55 262 -55v-188c-98 0 -194 19.667 -288 59c-54.667 22.667 -120.667 59.334 -198 110.001
c-60.667 39.333 -99.667 59 -117 59c-20 0 -68.667 -32.333 -146 -97c-92.667 -76.667 -183.667 -133 -273 -169c-85.333 -34 -203.666 -67.333 -354.999 -100c-104 -22 -156 -42.667 -156 -62c0 -28 57.667 -42 173 -42h1485zM1236 659.999h-252.002v70h56
c-28.667 16 -43 41.667 -43 77c0 34 12.167 62.667 36.5 86s55.833 35 94.5 35c36.667 0 65.334 -4 86.001 -12v-74c-24 11.333 -52 17 -84 17c-44 0 -66 -17.333 -66 -52c0 -21.333 11.333 -39.5 34 -54.5s50.334 -22.5 83.001 -22.5h55v-70z" />
    <glyph glyph-name="uniFBD5" unicode="&#x6ad;" horiz-adv-x="807" arabic-form="initial" 
d="M725 1333l-421.999 -250.001c-27.333 -13.333 -52.166 -31 -74.499 -53s-33.5 -40.333 -33.5 -55c0 -37.333 30.667 -85.333 92 -144l282 -268c84.667 -80 138.667 -140.167 162 -180.5s35 -79.833 35 -118.5c0 -176 -118 -264 -354 -264h-412
c-32.667 0 -61.334 17 -86.001 51s-37 79.667 -37 137h533c71.333 0 120.833 8.33301 148.5 25s41.5 44.667 41.5 84c0 25.333 -12.833 52.5 -38.5 81.5s-79.834 82.5 -162.501 160.5l-290 274c-70 67.333 -105 133 -105 197c0 34.667 13.667 66.334 41 95.001
s86 70 176 124l504 301v-197zM301.001 1669h-148v147h148v-147zM448.001 1460h-147v147h147v-147zM153.001 1460h-147v147h147v-147z" />
    <glyph glyph-name="uniFBE5" unicode="&#x6d0;" horiz-adv-x="1212" arabic-form="final" 
d="M1212 0c-104.667 0 -183.001 54.332 -235.001 162.999l-95 303c-34 108.667 -81.667 163 -143 163s-92 -29.333 -92 -88c0 -31.333 22.833 -77 68.5 -137s68.5 -119.333 68.5 -178c0 -83.333 -26 -144.333 -78 -183c-55.333 -40.667 -144 -61 -266 -61
c-133.333 0 -235.666 34.667 -306.999 104c-68 66.667 -102 158.334 -102 275.001c0 43.333 4.66699 100 14 170h133v-10c-10.667 -44 -16 -96.667 -16 -158c0 -69.333 23 -119.333 69 -150c43.333 -28.667 113.666 -43 210.999 -43c78.667 0 132.834 7.5 162.501 22.5
s44.5 42.167 44.5 81.5c0 30.667 -22.833 75.167 -68.5 133.5s-68.5 114.5 -68.5 168.5c0 74 19.5 132.667 58.5 176s95.167 65 168.5 65c96 0 165.333 -54.333 208 -163l86 -303c37.333 -108.667 97 -163 179 -163v-188zM510.999 -221.001h-147v147h147v-147z
M510.999 -430.001h-147v148h147v-148z" />
    <glyph glyph-name="afii52364" unicode="&#x6cc;" horiz-adv-x="1212" arabic-form="final" 
d="M1212 0c-63.333 0 -114.166 14.8301 -152.499 44.4971s-68.666 69.334 -90.999 119.001s-46.5 115.334 -72.5 197.001s-50.167 134.167 -72.5 157.5s-50.5 35 -84.5 35c-61.333 0 -92 -29.333 -92 -88c0 -36.667 24 -83.667 72 -141c64 -76.667 96 -152.667 96 -228
c0 -176 -125 -264 -375 -264c-122.667 0 -221.5 40.667 -296.5 122s-112.5 193.666 -112.5 336.999c0 43.333 4.66699 100 14 170h133v-10c-10.667 -44 -16 -96.667 -16 -158c0 -97.333 23 -167.166 69 -209.499s116.333 -63.5 211 -63.5c158.667 0 238 39 238 117
c0 34.667 -24.667 82 -74 142c-62.667 74 -94 147.667 -94 221c0 72.667 19.333 131 58 175s95 66 169 66c52.667 0 99 -14.667 139 -44s77.667 -105.666 113 -228.999s69.166 -200.833 101.499 -232.5s72.166 -47.5 119.499 -47.5v-188z" />
    <glyph glyph-name="uniFBFE" unicode="&#x6cc;" horiz-adv-x="500" arabic-form="initial" 
d="M418 270c0 -82 -29.332 -147.5 -87.999 -196.5s-138.667 -73.5 -240 -73.5h-90c-32.667 0 -61.334 17 -86.001 51s-37 79.667 -37 137h205c136.667 0 205 52 205 156v373h131v-447zM418.001 -293h-147v147h147v-147zM148.001 -293h-148v147h148v-147z" />
    <glyph glyph-name="afii62753" unicode="&#x622;" horiz-adv-x="479" arabic-form="final" 
d="M479 0c-94.667 0 -168.5 29.168 -221.5 87.501s-79.5 139.833 -79.5 244.5v1224h131v-1212c0 -56.667 12.833 -96.834 38.5 -120.501s68.167 -35.5 127.5 -35.5h4v-188zM436 1676c-34 -26 -71 -39 -111 -39c-16.667 0 -45.167 7.5 -85.5 22.5s-69.166 22.5 -86.499 22.5
c-24 0 -60.667 -15 -110 -45v74c40 27.333 76.667 41 110 41c17.333 0 46.166 -7.5 86.499 -22.5s68.833 -22.5 85.5 -22.5c34 0 71 14.333 111 43v-74z" />
    <glyph glyph-name="afii62754" unicode="&#x623;" horiz-adv-x="479" arabic-form="final" 
d="M479 0c-94.667 0 -168.5 29.168 -221.5 87.501s-79.5 139.833 -79.5 244.5v1224h131v-1212c0 -56.667 12.833 -96.834 38.5 -120.501s68.167 -35.5 127.5 -35.5h4v-188zM369 1610h-252.002v70h56c-28.667 16 -43 41.667 -43 77c0 34 12.167 62.667 36.5 86
s55.833 35 94.5 35c36.667 0 65.334 -4 86.001 -12v-74c-24 11.333 -52 17 -84 17c-44 0 -66 -17.333 -66 -52c0 -21.333 11.333 -39.5 34 -54.5s50.334 -22.5 83.001 -22.5h55v-70z" />
    <glyph glyph-name="afii62756" unicode="&#x625;" horiz-adv-x="479" arabic-form="final" 
d="M479 0c-94.667 0 -168.5 29.168 -221.5 87.501s-79.5 139.833 -79.5 244.5v1224h131v-1212c0 -56.667 12.833 -96.834 38.5 -120.501s68.167 -35.5 127.5 -35.5h4v-188zM369 -361.999h-252.002v70h56c-28.667 16 -43 41.667 -43 77c0 34 12.167 62.667 36.5 86
s55.833 35 94.5 35c36.667 0 65.334 -4 86.001 -12v-74c-24 11.333 -52 17 -84 17c-44 0 -66 -17.333 -66 -52c0 -21.333 11.333 -39.5 34 -54.5s50.334 -22.5 83.001 -22.5h55v-70z" />
    <glyph glyph-name="afii62759" unicode="&#x626;" horiz-adv-x="1212" arabic-form="final" 
d="M1212 0c-63.333 0 -114.166 14.8301 -152.499 44.4971s-68.666 69.334 -90.999 119.001s-46.5 115.334 -72.5 197.001s-50.167 134.167 -72.5 157.5s-50.5 35 -84.5 35c-61.333 0 -92 -29.333 -92 -88c0 -36.667 24 -83.667 72 -141c64 -76.667 96 -152.667 96 -228
c0 -176 -125 -264 -375 -264c-122.667 0 -221.5 40.667 -296.5 122s-112.5 193.666 -112.5 336.999c0 43.333 4.66699 100 14 170h133v-10c-10.667 -44 -16 -96.667 -16 -158c0 -97.333 23 -167.166 69 -209.499s116.333 -63.5 211 -63.5c158.667 0 238 39 238 117
c0 34.667 -24.667 82 -74 142c-62.667 74 -94 147.667 -94 221c0 72.667 19.333 131 58 175s95 66 169 66c52.667 0 99 -14.667 139 -44s77.667 -105.666 113 -228.999s69.166 -200.833 101.499 -232.5s72.166 -47.5 119.499 -47.5v-188zM397 714.997h-252.002v70h56
c-28.667 16 -43 41.667 -43 77c0 34 12.167 62.667 36.5 86s55.833 35 94.5 35c36.667 0 65.334 -4 86.001 -12v-74c-24 11.333 -52 17 -84 17c-44 0 -66 -17.333 -66 -52c0 -21.333 11.333 -39.5 34 -54.5s50.334 -22.5 83.001 -22.5h55v-70z" />
    <glyph glyph-name="afii62757" unicode="&#x626;" horiz-adv-x="500" arabic-form="initial" 
d="M418 270c0 -82 -29.332 -147.5 -87.999 -196.5s-138.667 -73.5 -240 -73.5h-90c-32.667 0 -61.334 17 -86.001 51s-37 79.667 -37 137h205c136.667 0 205 52 205 156v373h131v-447zM459.001 891h-252.002v70h56c-28.667 16 -43 41.667 -43 77c0 34 12.167 62.667 36.5 86
s55.833 35 94.5 35c36.667 0 65.334 -4 86.001 -12v-74c-24 11.333 -52 17 -84 17c-44 0 -66 -17.333 -66 -52c0 -21.333 11.333 -39.5 34 -54.5s50.334 -22.5 83.001 -22.5h55v-70z" />
    <glyph glyph-name="afii62760" unicode="&#x627;" horiz-adv-x="479" arabic-form="final" 
d="M479 0c-94.667 0 -168.5 29.168 -221.5 87.501s-79.5 139.833 -79.5 244.5v1224h131v-1212c0 -56.667 12.833 -96.834 38.5 -120.501s68.167 -35.5 127.5 -35.5h4v-188z" />
    <glyph glyph-name="afii62761" unicode="&#x628;" horiz-adv-x="500" arabic-form="initial" 
d="M418 270c0 -82 -29.332 -147.5 -87.999 -196.5s-138.667 -73.5 -240 -73.5h-90c-32.667 0 -61.334 17 -86.001 51s-37 79.667 -37 137h205c136.667 0 205 52 205 156v373h131v-447zM279.001 -293h-148v147h148v-147z" />
    <glyph glyph-name="afii62764" unicode="&#x629;" horiz-adv-x="782" arabic-form="final" 
d="M782 0c-79.333 0 -138.667 26.501 -178 79.501s-59 157.5 -59 313.5c-22.667 -36.667 -55.667 -67.334 -99 -92.001s-86.333 -37 -129 -37c-72 0 -130.833 25.833 -176.5 77.5s-68.5 122.167 -68.5 211.5c0 98.667 42.167 190.5 126.5 275.5s199.833 141.167 346.5 168.5
v72h131v-676c0 -74 8.33301 -126.667 25 -158s43.667 -47 81 -47v-188zM544.999 569.001l-0.000976562 293c-108 -22 -192 -61.333 -252 -118s-90 -119.667 -90 -189c0 -38 10.833 -67.333 32.5 -88s48.834 -31 81.501 -31c96 0 172 44.333 228 133zM622.998 1204h-147v147
h147v-147zM352.998 1204h-148v147h148v-147z" />
    <glyph glyph-name="afii62765" unicode="&#x62a;" horiz-adv-x="500" arabic-form="initial" 
d="M418 270c0 -82 -29.332 -147.5 -87.999 -196.5s-138.667 -73.5 -240 -73.5h-90c-32.667 0 -61.334 17 -86.001 51s-37 79.667 -37 137h205c136.667 0 205 52 205 156v373h131v-447zM500.001 891h-147v147h147v-147zM230.001 891h-148v147h148v-147z" />
    <glyph glyph-name="afii62768" unicode="&#x62b;" horiz-adv-x="500" arabic-form="initial" 
d="M418 270c0 -82 -29.332 -147.5 -87.999 -196.5s-138.667 -73.5 -240 -73.5h-90c-32.667 0 -61.334 17 -86.001 51s-37 79.667 -37 137h205c136.667 0 205 52 205 156v373h131v-447zM352.001 1100h-148v147h148v-147zM499.001 891h-147v147h147v-147zM204.001 891h-147
v147h147v-147z" />
    <glyph glyph-name="afii62773" unicode="&#x62c;" horiz-adv-x="1112" arabic-form="final" 
d="M1112 0l-32.9971 -0.000976562c-226.667 0 -340 106.333 -340 319v211c-163.333 -17.333 -291.166 -62 -383.499 -134s-138.5 -164.333 -138.5 -277c0 -114 41 -202.333 123 -265s186.333 -94 313 -94c179.333 0 322.666 37 429.999 111h11v-199
c-106.667 -64 -253 -96 -439 -96c-165.333 0 -301.5 48.667 -408.5 146s-160.5 228.333 -160.5 393c0 165.333 72.5 297.333 217.5 396s326.5 148 544.5 148c-174.667 75.333 -384.334 113 -629.001 113h-78v186h88c125.333 0 260.666 -25.667 405.999 -77
s281.666 -121.666 408.999 -210.999v-131c-96 0 -154 -0.666992 -174 -2v-162c0 -68 16.667 -116.167 50 -144.5s85 -42.5 155 -42.5h37v-188zM586.003 11.999h-148v147h148v-147z" />
    <glyph glyph-name="afii62771" unicode="&#x62c;" horiz-adv-x="1112" arabic-form="initial" 
d="M1030 184c-118.667 0 -293.168 -30.667 -523.501 -92s-399.166 -92 -506.499 -92c-32.667 0 -61.334 17 -86.001 51s-37 79.667 -37 137h129c95.333 0 241.833 26.833 439.5 80.5s333.167 82.834 406.5 87.501c-202 182 -419.667 273 -653 273h-95v186h105
c54 0 106.333 -5.33301 157 -16c50 -10.667 99.667 -26.667 149 -48c48.667 -20.667 98.334 -47.334 149.001 -80.001c48 -31.333 99 -69 153 -113c50 -40.667 105 -89 165 -145l43 -41h2l3 1v-189zM702.999 -244h-148v147h148v-147z" />
    <glyph glyph-name="afii62776" unicode="&#x62d;" horiz-adv-x="1112" arabic-form="final" 
d="M1112 0l-32.9971 -0.000976562c-226.667 0 -340 106.333 -340 319v211c-163.333 -17.333 -291.166 -62 -383.499 -134s-138.5 -164.333 -138.5 -277c0 -114 41 -202.333 123 -265s186.333 -94 313 -94c179.333 0 322.666 37 429.999 111h11v-199
c-106.667 -64 -253 -96 -439 -96c-165.333 0 -301.5 48.667 -408.5 146s-160.5 228.333 -160.5 393c0 165.333 72.5 297.333 217.5 396s326.5 148 544.5 148c-174.667 75.333 -384.334 113 -629.001 113h-78v186h88c125.333 0 260.666 -25.667 405.999 -77
s281.666 -121.666 408.999 -210.999v-131c-96 0 -154 -0.666992 -174 -2v-162c0 -68 16.667 -116.167 50 -144.5s85 -42.5 155 -42.5h37v-188z" />
    <glyph glyph-name="afii62774" unicode="&#x62d;" horiz-adv-x="1112" arabic-form="initial" 
d="M1030 184c-118.667 0 -293.168 -30.667 -523.501 -92s-399.166 -92 -506.499 -92c-32.667 0 -61.334 17 -86.001 51s-37 79.667 -37 137h129c95.333 0 241.833 26.833 439.5 80.5s333.167 82.834 406.5 87.501c-202 182 -419.667 273 -653 273h-95v186h105
c54 0 106.333 -5.33301 157 -16c50 -10.667 99.667 -26.667 149 -48c48.667 -20.667 98.334 -47.334 149.001 -80.001c48 -31.333 99 -69 153 -113c50 -40.667 105 -89 165 -145l43 -41h2l3 1v-189z" />
    <glyph glyph-name="afii62779" unicode="&#x62e;" horiz-adv-x="1112" arabic-form="final" 
d="M1112 0l-32.9971 -0.000976562c-226.667 0 -340 106.333 -340 319v211c-163.333 -17.333 -291.166 -62 -383.499 -134s-138.5 -164.333 -138.5 -277c0 -114 41 -202.333 123 -265s186.333 -94 313 -94c179.333 0 322.666 37 429.999 111h11v-199
c-106.667 -64 -253 -96 -439 -96c-165.333 0 -301.5 48.667 -408.5 146s-160.5 228.333 -160.5 393c0 165.333 72.5 297.333 217.5 396s326.5 148 544.5 148c-174.667 75.333 -384.334 113 -629.001 113h-78v186h88c125.333 0 260.666 -25.667 405.999 -77
s281.666 -121.666 408.999 -210.999v-131c-96 0 -154 -0.666992 -174 -2v-162c0 -68 16.667 -116.167 50 -144.5s85 -42.5 155 -42.5h37v-188zM769.003 1120h-148v147h148v-147z" />
    <glyph glyph-name="afii62777" unicode="&#x62e;" horiz-adv-x="1112" arabic-form="initial" 
d="M1030 184c-118.667 0 -293.168 -30.667 -523.501 -92s-399.166 -92 -506.499 -92c-32.667 0 -61.334 17 -86.001 51s-37 79.667 -37 137h129c95.333 0 241.833 26.833 439.5 80.5s333.167 82.834 406.5 87.501c-202 182 -419.667 273 -653 273h-95v186h105
c54 0 106.333 -5.33301 157 -16c50 -10.667 99.667 -26.667 149 -48c48.667 -20.667 98.334 -47.334 149.001 -80.001c48 -31.333 99 -69 153 -113c50 -40.667 105 -89 165 -145l43 -41h2l3 1v-189zM712.999 936h-148v147h148v-147z" />
    <glyph glyph-name="afii62784" unicode="&#x633;" horiz-adv-x="1239" arabic-form="initial" 
d="M1157 188c0 -125.333 -60.667 -188 -182 -188h-82c-97.333 0 -163.666 24 -198.999 72c-34.667 -48 -100.667 -72 -198 -72s-163.666 24 -198.999 72c-36.667 -48 -108.334 -72 -215.001 -72h-82c-32.667 0 -61.334 17 -86.001 51s-37 79.667 -37 137h205
c99.333 0 149 44.667 149 134v100h131v-100c0 -89.333 44.667 -134 134 -134c88.667 0 133 44.667 133 134v100h131v-100c0 -89.333 44.333 -134 133 -134s133 26.667 133 80v367h131v-447z" />
    <glyph glyph-name="afii62787" unicode="&#x634;" horiz-adv-x="1239" arabic-form="initial" 
d="M1157 188c0 -125.333 -60.667 -188 -182 -188h-82c-97.333 0 -163.666 24 -198.999 72c-34.667 -48 -100.667 -72 -198 -72s-163.666 24 -198.999 72c-36.667 -48 -108.334 -72 -215.001 -72h-82c-32.667 0 -61.334 17 -86.001 51s-37 79.667 -37 137h205
c99.333 0 149 44.667 149 134v100h131v-100c0 -89.333 44.667 -134 134 -134c88.667 0 133 44.667 133 134v100h131v-100c0 -89.333 44.333 -134 133 -134s133 26.667 133 80v367h131v-447zM707 926h-148v147h148v-147zM854 717h-147v147h147v-147zM559 717h-147v147h147
v-147z" />
    <glyph glyph-name="afii62790" unicode="&#x635;" horiz-adv-x="1731" arabic-form="initial" 
d="M551 188c155.333 218 292.003 377 410.003 477s232 150 342 150c99.333 0 188.666 -54 267.999 -162s119 -225.333 119 -352c0 -92 -42.5 -165.167 -127.5 -219.5s-200.167 -81.5 -345.5 -81.5h-758c-100.667 -0 -177.334 27.333 -230.001 82
c-50 -54.667 -126.333 -82 -229 -82c-32.667 0 -61.334 17 -86.001 51s-37 79.667 -37 137h127c106.667 0 160 63.667 160 191v10h131v-10c0 -127.333 53.333 -191 160 -191h96zM715.003 188l483 -0.000976562c108.667 0 196 11.5 262 34.5s99 52.5 99 88.5
c0 88 -28.167 163 -84.5 225s-114.5 93 -174.5 93c-92.667 0 -185 -34.667 -277 -104s-194.667 -181.666 -308 -336.999z" />
    <glyph glyph-name="afii62793" unicode="&#x636;" horiz-adv-x="1731" arabic-form="initial" 
d="M551 188c155.333 218 292.003 377 410.003 477s232 150 342 150c99.333 0 188.666 -54 267.999 -162s119 -225.333 119 -352c0 -92 -42.5 -165.167 -127.5 -219.5s-200.167 -81.5 -345.5 -81.5h-758c-100.667 -0 -177.334 27.333 -230.001 82
c-50 -54.667 -126.333 -82 -229 -82c-32.667 0 -61.334 17 -86.001 51s-37 79.667 -37 137h127c106.667 0 160 63.667 160 191v10h131v-10c0 -127.333 53.333 -191 160 -191h96zM715.003 188l483 -0.000976562c108.667 0 196 11.5 262 34.5s99 52.5 99 88.5
c0 88 -28.167 163 -84.5 225s-114.5 93 -174.5 93c-92.667 0 -185 -34.667 -277 -104s-194.667 -181.666 -308 -336.999zM1342 957.999h-148v147h148v-147z" />
    <glyph glyph-name="afii62804" unicode="&#x639;" horiz-adv-x="928" arabic-form="final" 
d="M928 0h-21.001c-128.667 -0 -288.334 98.333 -479.001 295c-72 -54 -125.167 -102.333 -159.5 -145s-51.5 -92 -51.5 -148c0 -70.667 31.833 -128.334 95.5 -173.001s137.834 -67 222.501 -67c124 0 244.667 43 362 129h10v-213
c-109.333 -68 -232.666 -102 -369.999 -102c-123.333 0 -229.333 41 -318 123s-133 183 -133 303c0 78 20.333 144.5 61 199.5s107 115.5 199 181.5c-80 87.333 -135.5 155 -166.5 203s-46.5 99 -46.5 153c0 72 32.5 129.667 97.5 173s145.833 65 242.5 65
c98 0 179.167 -21.5 243.5 -64.5s96.5 -102.167 96.5 -177.5c0 -64 -17.167 -120.667 -51.5 -170s-110.833 -114.666 -229.5 -195.999c76.667 -76.667 140.5 -126 191.5 -148s106.833 -33 167.5 -33h37v-188zM450.999 455c80 54 137.501 98.332 172.501 132.999
s52.5 69.334 52.5 104.001c0 26.667 -19.167 49 -57.5 67s-86.833 27 -145.5 27c-56.667 0 -102.834 -8.83301 -138.501 -26.5s-53.5 -39.5 -53.5 -65.5c0 -24 12.833 -53.167 38.5 -87.5s69.5 -84.833 131.5 -151.5z" />
    <glyph glyph-name="afii62802" unicode="&#x639;" horiz-adv-x="1112" arabic-form="initial" 
d="M1012 184c-328 -122.667 -583.996 -184 -767.996 -184h-244c-32.667 0 -61.334 17 -86.001 51s-37 79.667 -37 137h406c-60 32.667 -107.5 80 -142.5 142s-52.5 124 -52.5 186c0 131.333 37.333 234.5 112 309.5s172.667 112.5 294 112.5c159.333 0 293 -27.333 401 -82
v-213h-10c-106.667 75.333 -234.334 113 -383.001 113c-91.333 0 -161.333 -23.667 -210 -71s-73 -104.333 -73 -171c0 -98 33.167 -172.667 99.5 -224s115.166 -77 146.499 -77c19.333 0 85.166 15.5 197.499 46.5s228.833 68.833 349.5 113.5v-189z" />
    <glyph glyph-name="afii62803" unicode="&#x639;" horiz-adv-x="803" arabic-form="medial" 
d="M803 0h-81.9971c-96.667 -0 -203.334 38.333 -320.001 115c-116 -76.667 -222.333 -115 -319 -115h-82c-32.667 0 -61.334 17 -86.001 51s-37 79.667 -37 137h205c69.333 0 132.666 11 189.999 33c-140.667 133.333 -211 257 -211 371c0 77.333 31.167 137 93.5 179
s144.5 63 246.5 63c102.667 0 185 -21 247 -63s93 -101.667 93 -179c0 -114 -70.333 -237.667 -211 -371c58 -22 121.667 -33 191 -33h82v-188zM401.003 289c63.333 45.333 114 93.166 152 143.499s57 92.5 57 126.5c0 56 -69.667 84 -209 84c-138.667 0 -208 -28 -208 -84
c0 -34 19 -76.167 57 -126.5s88.333 -98.166 151 -143.499z" />
    <glyph glyph-name="afii62807" unicode="&#x63a;" horiz-adv-x="928" arabic-form="final" 
d="M928 0h-21.001c-128.667 -0 -288.334 98.333 -479.001 295c-72 -54 -125.167 -102.333 -159.5 -145s-51.5 -92 -51.5 -148c0 -70.667 31.833 -128.334 95.5 -173.001s137.834 -67 222.501 -67c124 0 244.667 43 362 129h10v-213
c-109.333 -68 -232.666 -102 -369.999 -102c-123.333 0 -229.333 41 -318 123s-133 183 -133 303c0 78 20.333 144.5 61 199.5s107 115.5 199 181.5c-80 87.333 -135.5 155 -166.5 203s-46.5 99 -46.5 153c0 72 32.5 129.667 97.5 173s145.833 65 242.5 65
c98 0 179.167 -21.5 243.5 -64.5s96.5 -102.167 96.5 -177.5c0 -64 -17.167 -120.667 -51.5 -170s-110.833 -114.666 -229.5 -195.999c76.667 -76.667 140.5 -126 191.5 -148s106.833 -33 167.5 -33h37v-188zM450.999 455c80 54 137.501 98.332 172.501 132.999
s52.5 69.334 52.5 104.001c0 26.667 -19.167 49 -57.5 67s-86.833 27 -145.5 27c-56.667 0 -102.834 -8.83301 -138.501 -26.5s-53.5 -39.5 -53.5 -65.5c0 -24 12.833 -53.167 38.5 -87.5s69.5 -84.833 131.5 -151.5zM547 1151h-148v147h148v-147z" />
    <glyph glyph-name="afii62805" unicode="&#x63a;" horiz-adv-x="1112" arabic-form="initial" 
d="M1012 184c-328 -122.667 -583.996 -184 -767.996 -184h-244c-32.667 0 -61.334 17 -86.001 51s-37 79.667 -37 137h406c-60 32.667 -107.5 80 -142.5 142s-52.5 124 -52.5 186c0 131.333 37.333 234.5 112 309.5s172.667 112.5 294 112.5c159.333 0 293 -27.333 401 -82
v-213h-10c-106.667 75.333 -234.334 113 -383.001 113c-91.333 0 -161.333 -23.667 -210 -71s-73 -104.333 -73 -171c0 -98 33.167 -172.667 99.5 -224s115.166 -77 146.499 -77c19.333 0 85.166 15.5 197.499 46.5s228.833 68.833 349.5 113.5v-189zM576.004 1112h-148v147
h148v-147z" />
    <glyph glyph-name="afii62806" unicode="&#x63a;" horiz-adv-x="803" arabic-form="medial" 
d="M803 0h-81.9971c-96.667 -0 -203.334 38.333 -320.001 115c-116 -76.667 -222.333 -115 -319 -115h-82c-32.667 0 -61.334 17 -86.001 51s-37 79.667 -37 137h205c69.333 0 132.666 11 189.999 33c-140.667 133.333 -211 257 -211 371c0 77.333 31.167 137 93.5 179
s144.5 63 246.5 63c102.667 0 185 -21 247 -63s93 -101.667 93 -179c0 -114 -70.333 -237.667 -211 -371c58 -22 121.667 -33 191 -33h82v-188zM401.003 289c63.333 45.333 114 93.166 152 143.499s57 92.5 57 126.5c0 56 -69.667 84 -209 84c-138.667 0 -208 -28 -208 -84
c0 -34 19 -76.167 57 -126.5s88.333 -98.166 151 -143.499zM476.003 1008h-148v147h148v-147z" />
    <glyph glyph-name="afii62808" unicode="&#x641;" horiz-adv-x="594" arabic-form="initial" 
d="M455 467c-27.333 -27.333 -69.667 -41.001 -127 -41.001c-74 0 -138.333 28.5 -193 85.5s-82 134.167 -82 231.5c0 100.667 27.5 188.334 82.5 263.001s110.833 112 167.5 112c75.333 0 140 -54.5 194 -163.5s81 -257.167 81 -444.5c0 -166 -35.167 -292.5 -105.5 -379.5
s-171.166 -130.5 -302.499 -130.5h-170c-32.667 0 -61.334 17 -86.001 51s-37 79.667 -37 137h295c79.333 0 146.333 25.5 201 76.5s82 118.5 82 202.5zM441.999 646.999c0 74.667 -15.832 141.167 -47.499 199.5s-62.834 87.5 -93.501 87.5
c-26.667 0 -53.834 -18 -81.501 -54s-41.5 -79.333 -41.5 -130c0 -93.333 51.333 -140 154 -140c44.667 0 81.334 12.333 110.001 37zM345 1292h-148v147h148v-147z" />
    <glyph glyph-name="afii62809" unicode="&#x641;" horiz-adv-x="606" arabic-form="medial" 
d="M606 0h-40.999c-80 -0 -167.333 33.333 -262 100c-94.667 -66.667 -182 -100 -262 -100h-41c-32.667 0 -61.334 17 -86.001 51s-37 79.667 -37 137h205c36 0 73 5.66699 111 17c-90.667 111.333 -136 215 -136 311c0 95.333 23 172.166 69 230.499s105 87.5 177 87.5
s131 -29.167 177 -87.5s69 -135.166 69 -230.499c0 -96 -45 -199.667 -135 -311c37.333 -11.333 74 -17 110 -17h82v-188zM303.001 266c76.667 72.667 115 152.667 115 240c0 39.333 -10.333 72 -31 98s-48.667 39 -84 39s-63.333 -13 -84 -39s-31 -58.667 -31 -98
c0 -87.333 38.333 -167.333 115 -240zM377.001 1008h-148v147h148v-147z" />
    <glyph glyph-name="afii62811" unicode="&#x642;" horiz-adv-x="594" arabic-form="initial" 
d="M455 467c-27.333 -27.333 -69.667 -41.001 -127 -41.001c-74 0 -138.333 28.5 -193 85.5s-82 134.167 -82 231.5c0 100.667 27.5 188.334 82.5 263.001s110.833 112 167.5 112c75.333 0 140 -54.5 194 -163.5s81 -257.167 81 -444.5c0 -166 -35.167 -292.5 -105.5 -379.5
s-171.166 -130.5 -302.499 -130.5h-170c-32.667 0 -61.334 17 -86.001 51s-37 79.667 -37 137h295c79.333 0 146.333 25.5 201 76.5s82 118.5 82 202.5zM441.999 646.999c0 74.667 -15.832 141.167 -47.499 199.5s-62.834 87.5 -93.501 87.5
c-26.667 0 -53.834 -18 -81.501 -54s-41.5 -79.333 -41.5 -130c0 -93.333 51.333 -140 154 -140c44.667 0 81.334 12.333 110.001 37zM500 1292h-147v147h147v-147zM230 1292h-148v147h148v-147z" />
    <glyph glyph-name="afii62812" unicode="&#x642;" horiz-adv-x="606" arabic-form="medial" 
d="M606 0h-40.999c-80 -0 -167.333 33.333 -262 100c-94.667 -66.667 -182 -100 -262 -100h-41c-32.667 0 -61.334 17 -86.001 51s-37 79.667 -37 137h205c36 0 73 5.66699 111 17c-90.667 111.333 -136 215 -136 311c0 95.333 23 172.166 69 230.499s105 87.5 177 87.5
s131 -29.167 177 -87.5s69 -135.166 69 -230.499c0 -96 -45 -199.667 -135 -311c37.333 -11.333 74 -17 110 -17h82v-188zM303.001 266c76.667 72.667 115 152.667 115 240c0 39.333 -10.333 72 -31 98s-48.667 39 -84 39s-63.333 -13 -84 -39s-31 -58.667 -31 -98
c0 -87.333 38.333 -167.333 115 -240zM512.001 1008h-147v147h147v-147zM242.001 1008h-148v147h148v-147z" />
    <glyph glyph-name="afii57410" unicode="&#x643;" horiz-adv-x="807" arabic-form="initial" 
d="M725 1333l-421.999 -250.001c-27.333 -13.333 -52.166 -31 -74.499 -53s-33.5 -40.333 -33.5 -55c0 -37.333 30.667 -85.333 92 -144l282 -268c84.667 -80 138.667 -140.167 162 -180.5s35 -79.833 35 -118.5c0 -176 -118 -264 -354 -264h-412
c-32.667 0 -61.334 17 -86.001 51s-37 79.667 -37 137h533c71.333 0 120.833 8.33301 148.5 25s41.5 44.667 41.5 84c0 25.333 -12.833 52.5 -38.5 81.5s-79.834 82.5 -162.501 160.5l-290 274c-70 67.333 -105 133 -105 197c0 34.667 13.667 66.334 41 95.001
s86 70 176 124l504 301v-197z" />
    <glyph glyph-name="afii62819" unicode="&#x644;" horiz-adv-x="1044" arabic-form="final" 
d="M963 248c0 -302 -151.667 -453 -455 -453c-163.333 0 -282 35.5 -356 106.5s-111 183.167 -111 336.5c0 82 6.66699 165.667 20 251h138v-10c-18 -75.333 -27 -155 -27 -239c0 -96 25.5 -162.667 76.5 -200s138.167 -56 261.5 -56c214 0 321 92 321 276v1296h132v-1308z
" />
    <glyph glyph-name="afii62817" unicode="&#x644;" horiz-adv-x="442" arabic-form="initial" 
d="M360 270c0 -82 -29.167 -147.5 -87.5 -196.5s-138.166 -73.5 -239.499 -73.5h-33c-32.667 0 -61.334 17 -86.001 51s-37 79.667 -37 137h148c136 0 204 52 204 156v1212h131v-1286z" />
    <glyph glyph-name="uniFEE0" unicode="&#x644;" horiz-adv-x="442" arabic-form="medial" 
d="M360 270c0 -82 -29.167 -147.5 -87.5 -196.5s-138.166 -73.5 -239.499 -73.5h-33c-32.667 0 -61.334 17 -86.001 51s-37 79.667 -37 137h148c136 0 204 52 204 156v1212h131v-1286z" />
    <glyph glyph-name="afii62820" unicode="&#x645;" horiz-adv-x="803" arabic-form="initial" 
d="M-123 188h85.999c62.667 0 103 18 121 54s29.667 94 35 174c14 237.333 106 356 276 356c106.667 0 194.5 -39.833 263.5 -119.5s103.5 -184.5 103.5 -314.5c0 -107.333 -26 -193.166 -78 -257.499s-123 -96.5 -213 -96.5c-110.667 0 -200 52.333 -268 157
c-29.333 -60.667 -56.166 -99.334 -80.499 -116.001s-59.166 -25 -104.499 -25h-18c-32.667 0 -61.334 17 -86.001 51s-37 79.667 -37 137zM458.999 168c52.667 0 94.501 16.167 125.501 48.5s46.5 70.833 46.5 115.5c0 64.667 -19.333 122.5 -58 173.5
s-90.334 76.5 -155.001 76.5c-112 0 -168 -64.333 -168 -193c0 -58 19.167 -109.333 57.5 -154s88.833 -67 151.5 -67z" />
    <glyph glyph-name="afii62823" unicode="&#x646;" horiz-adv-x="500" arabic-form="initial" 
d="M418 270c0 -82 -29.332 -147.5 -87.999 -196.5s-138.667 -73.5 -240 -73.5h-90c-32.667 0 -61.334 17 -86.001 51s-37 79.667 -37 137h205c136.667 0 205 52 205 156v373h131v-447zM357.001 891h-148v147h148v-147z" />
    <glyph glyph-name="afii62828" unicode="&#x647;" horiz-adv-x="782" arabic-form="final" 
d="M782 0c-79.333 0 -138.667 26.501 -178 79.501s-59 157.5 -59 313.5c-22.667 -36.667 -55.667 -67.334 -99 -92.001s-86.333 -37 -129 -37c-72 0 -130.833 25.833 -176.5 77.5s-68.5 122.167 -68.5 211.5c0 98.667 42.167 190.5 126.5 275.5s199.833 141.167 346.5 168.5
v72h131v-676c0 -74 8.33301 -126.667 25 -158s43.667 -47 81 -47v-188zM544.999 569.001l-0.000976562 293c-108 -22 -192 -61.333 -252 -118s-90 -119.667 -90 -189c0 -38 10.833 -67.333 32.5 -88s48.834 -31 81.501 -31c96 0 172 44.333 228 133z" />
    <glyph glyph-name="afii62830" unicode="&#x649;" horiz-adv-x="1212" arabic-form="final" 
d="M1212 0c-63.333 0 -114.166 14.8301 -152.499 44.4971s-68.666 69.334 -90.999 119.001s-46.5 115.334 -72.5 197.001s-50.167 134.167 -72.5 157.5s-50.5 35 -84.5 35c-61.333 0 -92 -29.333 -92 -88c0 -36.667 24 -83.667 72 -141c64 -76.667 96 -152.667 96 -228
c0 -176 -125 -264 -375 -264c-122.667 0 -221.5 40.667 -296.5 122s-112.5 193.666 -112.5 336.999c0 43.333 4.66699 100 14 170h133v-10c-10.667 -44 -16 -96.667 -16 -158c0 -97.333 23 -167.166 69 -209.499s116.333 -63.5 211 -63.5c158.667 0 238 39 238 117
c0 34.667 -24.667 82 -74 142c-62.667 74 -94 147.667 -94 221c0 72.667 19.333 131 58 175s95 66 169 66c52.667 0 99 -14.667 139 -44s77.667 -105.666 113 -228.999s69.166 -200.833 101.499 -232.5s72.166 -47.5 119.499 -47.5v-188z" />
    <glyph glyph-name="afii62833" unicode="&#x64a;" horiz-adv-x="1212" arabic-form="final" 
d="M1212 0c-63.333 0 -114.166 14.8301 -152.499 44.4971s-68.666 69.334 -90.999 119.001s-46.5 115.334 -72.5 197.001s-50.167 134.167 -72.5 157.5s-50.5 35 -84.5 35c-61.333 0 -92 -29.333 -92 -88c0 -36.667 24 -83.667 72 -141c64 -76.667 96 -152.667 96 -228
c0 -176 -125 -264 -375 -264c-122.667 0 -221.5 40.667 -296.5 122s-112.5 193.666 -112.5 336.999c0 43.333 4.66699 100 14 170h133v-10c-10.667 -44 -16 -96.667 -16 -158c0 -97.333 23 -167.166 69 -209.499s116.333 -63.5 211 -63.5c158.667 0 238 39 238 117
c0 34.667 -24.667 82 -74 142c-62.667 74 -94 147.667 -94 221c0 72.667 19.333 131 58 175s95 66 169 66c52.667 0 99 -14.667 139 -44s77.667 -105.666 113 -228.999s69.166 -200.833 101.499 -232.5s72.166 -47.5 119.499 -47.5v-188zM670 -424.003h-147v147h147v-147z
M400 -424.003h-148v147h148v-147z" />
    <glyph glyph-name="afii62831" unicode="&#x64a;" horiz-adv-x="500" arabic-form="initial" 
d="M418 270c0 -82 -29.332 -147.5 -87.999 -196.5s-138.667 -73.5 -240 -73.5h-90c-32.667 0 -61.334 17 -86.001 51s-37 79.667 -37 137h205c136.667 0 205 52 205 156v373h131v-447zM418.001 -293h-147v147h147v-147zM148.001 -293h-148v147h148v-147z" />
    <glyph glyph-name=".notdef" horiz-adv-x="600" 
d="M50 0v1536h500v-1536h-500zM158 108h284v1320h-284v-1320z" />
    <glyph glyph-name="space" unicode=" " horiz-adv-x="544" 
d="M0 0z" />
    <glyph glyph-name="space" unicode="&#xa0;" horiz-adv-x="544" 
d="M0 0z" />
    <glyph glyph-name="exclam" unicode="!" horiz-adv-x="569" 
d="M387 0h-205v205h205v-205zM387 1149l-39 -784h-127l-39 784v317h205v-317z" />
    <glyph glyph-name="quotedbl" unicode="&#x22;" horiz-adv-x="727" 
d="M641 1227l-45 -281h-111l-49 281v239h205v-239zM289 1227l-45 -281h-111l-49 281v239h205v-239z" />
    <glyph glyph-name="numbersign" unicode="#" 
d="M1116 913h-198l-74 -364h190v-148h-221l-82 -401h-151l82 401h-320l-82 -401h-151l81 401h-167v148h198l74 364h-191v148h222l82 405h151l-82 -405h320l82 405h151l-82 -405h168v-148zM766 913h-320l-73 -364h319z" />
    <glyph glyph-name="dollar" unicode="$" 
d="M621 836c165.333 -34 277.666 -83.5 336.999 -148.5s89 -153.5 89 -265.5c0 -116.667 -37.667 -218.167 -113 -304.5s-179.666 -133.166 -312.999 -140.499v-155h-107v153c-272 30 -417.333 176.333 -436 439h194c14.667 -166.667 95.334 -262.334 242.001 -287.001v559
c-270 54 -405 185.667 -405 395c0 118 36.5 213 109.5 285s171.5 113.667 295.5 125v154h107v-154c237.333 -18 367.666 -139 390.999 -363h-195c-10.667 124 -76 194.333 -196 211v-503zM514 858v483.001c-140.667 -24.667 -211 -106.334 -211 -245.001
c0 -74.667 19.5 -129 58.5 -163s89.833 -59 152.5 -75zM621 127.001c154 19.333 230.999 113.668 230.999 283.001c0 69.333 -15.667 122.666 -47 159.999s-92.666 68 -183.999 92v-535z" />
    <glyph glyph-name="percent" unicode="%" horiz-adv-x="1821" 
d="M461 1491c98 0 178.167 -34.667 240.5 -104s93.5 -164.333 93.5 -285s-31.167 -215.667 -93.5 -285s-142.5 -104 -240.5 -104s-177.833 34.667 -239.5 104s-92.5 164.333 -92.5 285s30.833 215.667 92.5 285s141.5 104 239.5 104zM461 836c116 0 174 88.667 174 266
s-58 266 -174 266c-114.667 0 -172 -88.667 -172 -266s57.333 -266 172 -266zM1382 1466l-800 -1466h-146l801 1466h145zM1358 754c98 0 178.167 -34.8311 240.5 -104.498s93.5 -164.5 93.5 -284.5c0 -120.667 -31.167 -215.834 -93.5 -285.501s-142.5 -104.5 -240.5 -104.5
s-177.833 34.667 -239.5 104s-92.5 164.666 -92.5 285.999c0 120.667 30.833 215.667 92.5 285s141.5 104 239.5 104zM1358 98.002c116 0 174 89 174 267c0 177.333 -58 266 -174 266c-114.667 0 -172 -88.667 -172 -266c0 -178 57.333 -267 172 -267z" />
    <glyph glyph-name="ampersand" unicode="&#x26;" horiz-adv-x="1366" 
d="M1262 98l-145.999 -123.001l-127 160c-116 -106.667 -261.333 -160 -436 -160c-134.667 0 -245.834 41.667 -333.501 125s-131.5 184.333 -131.5 303c0 90.667 28 170 84 238s141.333 134.333 256 199c-104 133.333 -156 241 -156 323c0 93.333 34.5 171.333 103.5 234
s156.167 94 261.5 94c98 0 179.167 -30.5 243.5 -91.5s96.5 -134.833 96.5 -221.5c0 -77.333 -23.667 -144.166 -71 -200.499s-119.333 -112.5 -216 -168.5l295 -367c28.667 73.333 45 156 49 248h195c-8.66699 -154 -47.667 -289 -117 -405zM594.001 927.999
c68.667 37.333 119 74.5 151 111.5s48 81.833 48 134.5c0 50.667 -16.5 91.5 -49.5 122.5s-71.833 46.5 -116.5 46.5c-48 0 -88.333 -14.833 -121 -44.5s-49 -68.5 -49 -116.5c0 -54 30 -119 90 -195zM883.001 269.999l-356.999 447
c-84.667 -50 -146.334 -97.167 -185.001 -141.5s-58 -97.5 -58 -159.5c0 -74.667 25.833 -140.167 77.5 -196.5s116.5 -84.5 194.5 -84.5c134.667 0 244 45 328 135z" />
    <glyph glyph-name="quotesingle" unicode="'" horiz-adv-x="391" 
d="M297 1227l-45 -281h-111l-49 281v239h205v-239z" />
    <glyph glyph-name="parenleft" unicode="(" horiz-adv-x="682" 
d="M608 -430l-129 -0.000976562c-237.333 308 -356 628 -356 960c0 332.667 118.667 653 356 961h129c-199.333 -319.333 -299 -639.666 -299 -960.999c0 -320.667 99.667 -640.667 299 -960z" />
    <glyph glyph-name="parenleft" unicode="&#xfd3e;" horiz-adv-x="682" 
d="M608 -430l-129 -0.000976562c-237.333 308 -356 628 -356 960c0 332.667 118.667 653 356 961h129c-199.333 -319.333 -299 -639.666 -299 -960.999c0 -320.667 99.667 -640.667 299 -960z" />
    <glyph glyph-name="parenright" unicode=")" horiz-adv-x="682" 
d="M203 1491c237.333 -308 356 -628.332 356 -960.999c0 -332 -118.667 -652 -356 -960h-129c199.333 319.333 299 639.333 299 960c0 321.333 -99.667 641.666 -299 960.999h129z" />
    <glyph glyph-name="parenright" unicode="&#xfd3f;" horiz-adv-x="682" 
d="M203 1491c237.333 -308 356 -628.332 356 -960.999c0 -332 -118.667 -652 -356 -960h-129c199.333 319.333 299 639.333 299 960c0 321.333 -99.667 641.666 -299 960.999h129z" />
    <glyph glyph-name="asterisk" unicode="*" horiz-adv-x="797" 
d="M729 1196l-246 -55l166 -191l-123 -90l-129 219l-129 -219l-123 90l166 191l-245 55l47 143l231 -100l-22 252h151l-22 -252l231 100z" />
    <glyph glyph-name="plus" unicode="+" horiz-adv-x="1196" 
d="M1083 639h-401v-401h-168v401h-401v168h401v401h168v-401h401v-168z" />
    <glyph glyph-name="comma" unicode="," horiz-adv-x="569" 
d="M387 0c0 -87.333 -17.333 -157.333 -52 -210s-85.667 -79 -153 -79v96c67.333 0 101 64.333 101 193h-101v205h205v-205z" />
    <glyph glyph-name="hyphen" unicode="-" horiz-adv-x="682" 
d="M616 440h-550v181h550v-181z" />
    <glyph glyph-name="hyphen" unicode="&#xad;" horiz-adv-x="682" 
d="M616 440h-550v181h550v-181z" />
    <glyph glyph-name="period" unicode="." horiz-adv-x="569" 
d="M387 0h-205v205h205v-205z" />
    <glyph glyph-name="slash" unicode="/" horiz-adv-x="569" 
d="M569 1466l-424 -1466h-145l424 1466h145z" />
    <glyph glyph-name="zero" unicode="0" 
d="M569 1491c318.667 0 478 -253.333 478 -760c0 -504 -159.333 -756 -478 -756c-318 0 -477 252 -477 756c0 506.667 159 760 477 760zM569 123c92.667 0 163 44.667 211 134s72 247.333 72 474c0 227.333 -24 386.166 -72 476.499s-118.333 135.5 -211 135.5
c-92 0 -162 -45.167 -210 -135.5s-72 -249.166 -72 -476.499c0 -226.667 24 -384.667 72 -474s118 -134 210 -134z" />
    <glyph glyph-name="one" unicode="1" 
d="M768 0h-188v1153c-76 -50.667 -193.667 -76 -353 -76v148c230 0 362 88.667 396 266h145v-1491z" />
    <glyph glyph-name="two" unicode="2" 
d="M1034 0l-971 0.00292969c0 89.333 27.667 174.666 83 255.999s156.833 181.5 304.5 300.5s248.834 214 303.501 285s82 151.5 82 241.5c0 80.667 -23.333 144.167 -70 190.5s-112.334 69.5 -197.001 69.5c-73.333 0 -136 -23.333 -188 -70s-81.333 -115.334 -88 -206.001
h-195c10.667 128.667 58.167 231.5 142.5 308.5s195.166 115.5 332.499 115.5c146 0 258.667 -39.167 338 -117.5s119 -176.5 119 -294.5c0 -106.667 -29.333 -200.834 -88 -282.501s-175.167 -195.167 -349.5 -340.5s-263.166 -239.333 -266.499 -282h708v-174z" />
    <glyph glyph-name="three" unicode="3" 
d="M772 805c89.333 -23.333 158.166 -68.666 206.499 -135.999s72.5 -146.333 72.5 -237c0 -135.333 -46.333 -245.333 -139 -330s-207.667 -127 -345 -127c-138 0 -250.333 37.667 -337 113s-133.334 175 -140.001 299h195c0 -72 24.333 -134 73 -186
s118.334 -78 209.001 -78c88 0 158.167 28.333 210.5 85s78.5 130 78.5 220c0 92 -27.167 162.833 -81.5 212.5s-133.5 74.5 -237.5 74.5h-72v147h43c182.667 0 274 84 274 252c0 74 -20 130.667 -60 170s-96.333 59 -169 59c-149.333 0 -232.666 -77.667 -249.999 -233
h-194c14 124 61.333 218.5 142 283.5s180 97.5 298 97.5c130.667 0 234.667 -35.5 312 -106.5s116 -162.5 116 -274.5c0 -62.667 -16.833 -121.834 -50.5 -177.501s-85.167 -98.167 -154.5 -127.5z" />
    <glyph glyph-name="four" unicode="4" 
d="M1044 350h-198v-350h-189v350h-626v166l667 969h148v-969h198v-166zM657 516v672l-450 -672h450z" />
    <glyph glyph-name="five" unicode="5" 
d="M330 885c72.667 58.667 163.333 88 272 88c122 0 228.333 -43.167 319 -129.5s136 -201.5 136 -345.5c0 -150.667 -45.5 -275.5 -136.5 -374.5s-212.167 -148.5 -363.5 -148.5c-124 0 -230 34.333 -318 103s-139 171 -153 307h195
c10.667 -88.667 41.5 -154.5 92.5 -197.5s112.167 -64.5 183.5 -64.5c90.667 0 164.167 34.333 220.5 103s84.5 153.667 84.5 255c0 102.667 -28.667 183.667 -86 243s-131.666 89 -222.999 89c-104.667 0 -193.334 -40.333 -266.001 -121h-148l62 774h786v-174h-625z" />
    <glyph glyph-name="six" unicode="6" 
d="M283 791c96.667 106 207.668 159.001 333.001 159.001c122.667 0 226.167 -44.5 310.5 -133.5s126.5 -202.167 126.5 -339.5c0 -139.333 -41.833 -257.833 -125.5 -355.5s-194.834 -146.5 -333.501 -146.5c-158.667 0 -282 61.167 -370 183.5s-132 298.166 -132 527.499
c0 536.667 172.667 805 518 805c110 0 203 -30.667 279 -92s122.333 -152.333 139 -273h-194c-16.667 144.667 -94.667 217 -234 217c-90 0 -162.833 -47.5 -218.5 -142.5s-88.5 -231.5 -98.5 -409.5zM281.001 645.001c2.66699 -168 31.667 -296.999 87 -386.999
s129.333 -135 222 -135c81.333 0 146.333 32.667 195 98s73 146.666 73 243.999c0 98.667 -24.833 179.667 -74.5 243s-116.167 95 -199.5 95c-103.333 0 -204.333 -52.667 -303 -158z" />
    <glyph glyph-name="seven" unicode="7" 
d="M1047 1333l-533 -1333h-211l547 1292h-752v174h949v-133z" />
    <glyph glyph-name="eight" unicode="8" 
d="M748 770c203.333 -94 305.001 -221 305.001 -381c0 -123.333 -44.5 -223.166 -133.5 -299.499s-205.833 -114.5 -350.5 -114.5c-144 0 -260.5 38.167 -349.5 114.5s-133.5 176.166 -133.5 299.499c0 160 101.667 287 305 381c-165.333 95.333 -248 214.666 -248 357.999
c0 106 39.167 193 117.5 261s181.166 102 308.499 102c128 0 231 -34 309 -102s117 -155 117 -261c0 -143.333 -82.333 -262.666 -247 -357.999zM569.001 848c154.667 69.333 232 162.666 232 279.999c0 67.333 -20.5 120 -61.5 158s-97.833 57 -170.5 57
c-72 0 -128.5 -19 -169.5 -57s-61.5 -90.667 -61.5 -158c0 -117.333 77 -210.666 231 -279.999zM858.001 389c0 63.333 -23.001 117.833 -69.001 163.5s-119.333 90.834 -220 135.501c-100 -44.667 -173 -89.834 -219 -135.501s-69 -100.167 -69 -163.5
c0 -82.667 26.333 -147.667 79 -195s122.334 -71 209.001 -71s156.5 23.667 209.5 71s79.5 112.333 79.5 195z" />
    <glyph glyph-name="nine" unicode="9" 
d="M856 676c-96.667 -106.667 -208.002 -160 -334.002 -160c-122 0 -225.167 44.5 -309.5 133.5s-126.5 202.167 -126.5 339.5c0 139.333 41.833 257.833 125.5 355.5s194.834 146.5 333.501 146.5c158.667 0 282 -61 370 -183s132 -298 132 -528
c0 -536.667 -173 -805 -519 -805c-109.333 0 -202.166 30.667 -278.499 92s-122.5 152.333 -138.5 273h194c16 -144.667 94 -217 234 -217c90 0 162.667 47.5 218 142.5s88.333 231.833 99 410.5zM857.998 821c-2.66699 168.667 -31.667 297.832 -87 387.499
s-129.333 134.5 -222 134.5c-81.333 0 -146.333 -32.667 -195 -98s-73 -146.666 -73 -243.999c0 -98.667 24.833 -179.5 74.5 -242.5s116.167 -94.5 199.5 -94.5c103.333 0 204.333 52.333 303 157z" />
    <glyph glyph-name="colon" unicode=":" horiz-adv-x="569" 
d="M387 0h-205v205h205v-205zM387 856h-205v205h205v-205z" />
    <glyph glyph-name="semicolon" unicode=";" horiz-adv-x="569" 
d="M387 0c0 -87.333 -17.333 -157.333 -52 -210s-85.667 -79 -153 -79v96c67.333 0 101 64.333 101 193h-101v205h205v-205zM387 856h-205v205h205v-205z" />
    <glyph glyph-name="semicolon" unicode="&#x37e;" horiz-adv-x="569" 
d="M387 0c0 -87.333 -17.333 -157.333 -52 -210s-85.667 -79 -153 -79v96c67.333 0 101 64.333 101 193h-101v205h205v-205zM387 856h-205v205h205v-205z" />
    <glyph glyph-name="less" unicode="&#x3c;" horiz-adv-x="1196" 
d="M1083 227l-970 412v168l970 412v-179l-770 -317l770 -317v-179z" />
    <glyph glyph-name="equal" unicode="=" horiz-adv-x="1196" 
d="M1083 862h-970v168h970v-168zM1083 416h-970v168h970v-168z" />
    <glyph glyph-name="greater" unicode="&#x3e;" horiz-adv-x="1196" 
d="M1083 639l-970 -412v179l770 317l-770 317v179l970 -412v-168z" />
    <glyph glyph-name="question" unicode="?" 
d="M94 1067c11.333 130 60.166 233.166 146.499 309.499s195.833 114.5 328.5 114.5c140.667 0 254.334 -37.5 341.001 -112.5s130 -170.5 130 -286.5c0 -65.333 -14.833 -126 -44.5 -182s-85.5 -118 -167.5 -186s-132.333 -122.167 -151 -162.5s-28 -107.5 -28 -201.5h-176
c0 124 14.333 214.833 43 272.5s81.5 119.167 158.5 184.5s124.833 115.5 143.5 150.5s28 72.167 28 111.5c0 76.667 -25.333 139.834 -76 189.501s-117 74.5 -199 74.5c-160 0 -254 -92 -282 -276h-195zM670 -0.000976562h-205v205h205v-205z" />
    <glyph glyph-name="at" unicode="@" horiz-adv-x="2079" 
d="M1618 -334c-145.333 -64 -309.334 -96.001 -492.001 -96.001c-314 0 -561 80 -741 240s-270 379.667 -270 659c0 294 93.333 538.167 280 732.5s423 291.5 709 291.5c260.667 0 468.5 -74.167 623.5 -222.5s232.5 -334.166 232.5 -557.499
c0 -225.333 -57.167 -400.833 -171.5 -526.5s-257.833 -188.5 -430.5 -188.5c-56.667 0 -102.167 15.833 -136.5 47.5s-53.166 71.167 -56.499 118.5c-79.333 -110.667 -181.666 -166 -306.999 -166c-104.667 0 -191.167 36.5 -259.5 109.5s-102.5 173.167 -102.5 300.5
c0 177.333 54.333 334.166 163 470.499s227 204.5 355 204.5c144 0 249 -42.333 315 -127l23 99h178l-154 -672c-17.333 -73.333 -26 -128.666 -26 -165.999c0 -48 18.333 -72 55 -72c111.333 0 207 50.5 287 151.5s120 241.167 120 420.5c0 184.667 -66 337 -198 457
s-302.667 180 -512 180c-244.667 0 -445.834 -85.5 -603.501 -256.5s-236.5 -380.5 -236.5 -628.5c0 -240.667 75.5 -427.5 226.5 -560.5s362.833 -199.5 635.5 -199.5c164.667 0 304.667 26 420 78zM1294 808.999c-55.333 84.667 -144 127.001 -266 127.001
c-90 0 -170.5 -55 -241.5 -165s-106.5 -229 -106.5 -357c0 -179.333 71.667 -269 215 -269c70 0 135.333 29.167 196 87.5s102.667 137.166 126 236.499z" />
    <glyph glyph-name="A" unicode="A" horiz-adv-x="1366" 
d="M922 600l-258 680l-246 -680h504zM1368 0h-219l-170 446h-614l-162 -446h-205l563 1466h209z" />
    <glyph glyph-name="B" unicode="B" horiz-adv-x="1366" 
d="M1260 426c0 -137.333 -46.667 -242.667 -140 -316s-229 -110 -407 -110h-549v1466h522c156 0 278.667 -33.333 368 -100s134 -158 134 -274c0 -141.333 -70.333 -246 -211 -314c94.667 -24 165.5 -68.167 212.5 -132.5s70.5 -137.5 70.5 -219.5zM358 851.999h326
c107.333 0 186.333 17.167 237 51.5s76 91.5 76 171.5c0 72 -24.667 126.167 -74 162.5s-135 54.5 -257 54.5h-308v-440zM358 173.999l353 0.000976562c232 0 348 84 348 252c0 87.333 -26.833 151.166 -80.5 191.499s-151.167 60.5 -292.5 60.5h-328v-504z" />
    <glyph glyph-name="C" unicode="C" horiz-adv-x="1479" 
d="M778 -25c-207.333 0 -372.833 68.166 -496.5 204.499s-185.5 320.833 -185.5 553.5s61.833 417.167 185.5 553.5s289.167 204.5 496.5 204.5c159.333 0 295 -43 407 -129s175 -199.333 189 -340h-200c-8 92.667 -48.167 166.334 -120.5 221.001s-163.5 82 -273.5 82
c-148.667 0 -266.334 -51.167 -353.001 -153.5s-130 -248.5 -130 -438.5c0 -189.333 43 -335.333 129 -438s202.667 -154 350 -154c114.667 0 207.334 28 278.001 84s110.667 136 120 240h200c-14 -156 -75.333 -276.667 -184 -362s-246 -128 -412 -128z" />
    <glyph glyph-name="D" unicode="D" horiz-adv-x="1479" 
d="M164 1466h465c498 0 747 -241.667 747 -725c0 -494 -249 -741 -747 -741h-465v1466zM358 174h267c212.667 0 357.667 49.5 435 148.5s116 238.5 116 418.5c0 175.333 -38.5 311 -115.5 407s-222.167 144 -435.5 144h-267v-1118z" />
    <glyph glyph-name="E" unicode="E" horiz-adv-x="1366" 
d="M1257 0h-1093v1466h1059v-174h-865v-448h809v-174h-809v-496h899v-174z" />
    <glyph glyph-name="F" unicode="F" horiz-adv-x="1251" 
d="M1153 1292h-795v-454h689v-174h-689v-664h-194v1466h989v-174z" />
    <glyph glyph-name="G" unicode="G" horiz-adv-x="1593" 
d="M805 -25c-210.667 0 -381.502 68.999 -512.502 206.999s-196.5 321.667 -196.5 551c0 230 64.667 413.833 194 551.5s299 206.5 509 206.5c176.667 0 323.5 -42.5 440.5 -127.5s182.5 -198.833 196.5 -341.5h-201c-8 94.667 -50.667 168.834 -128 222.501
s-179.333 80.5 -306 80.5c-151.333 0 -273.166 -51.667 -365.499 -155s-138.5 -249 -138.5 -437c0 -187.333 46.667 -332.833 140 -436.5s215.333 -155.5 366 -155.5c211.333 0 368.333 69.667 471 209v223h-387v175h575v-748h-137l-51 154
c-99.333 -119.333 -255.666 -179 -468.999 -179z" />
    <glyph glyph-name="H" unicode="H" horiz-adv-x="1479" 
d="M1315 0h-195v690h-762v-690h-194v1466h194v-602h762v602h195v-1466z" />
    <glyph glyph-name="I" unicode="I" horiz-adv-x="569" 
d="M383 0h-195v1466h195v-1466z" />
    <glyph glyph-name="J" unicode="J" horiz-adv-x="1024" 
d="M860 469c0 -179.333 -34.668 -306.499 -104.001 -381.499s-171.666 -112.5 -306.999 -112.5c-121.333 0 -217.333 37 -288 111s-106 171.667 -106 293v39h195c0 -178.667 66.333 -268 199 -268c70 0 123.667 19.667 161 59s56 122.666 56 249.999v1007h194v-997z" />
    <glyph glyph-name="K" unicode="K" horiz-adv-x="1366" 
d="M1362 0h-256l-520 731l-228 -223v-508h-194v1466h194v-727l715 727h262l-614 -602z" />
    <glyph glyph-name="L" unicode="L" 
d="M1071 0h-907v1466h194v-1292h713v-174z" />
    <glyph glyph-name="M" unicode="M" horiz-adv-x="1706" 
d="M1542 0h-184v1247l-418 -1247h-174l-418 1247v-1247h-184v1466h291l397 -1222l399 1222h291v-1466z" />
    <glyph glyph-name="N" unicode="N" horiz-adv-x="1479" 
d="M1315 0h-199l-768 1157v-1157h-184v1466h198l768 -1157v1157h185v-1466z" />
    <glyph glyph-name="O" unicode="O" horiz-adv-x="1593" 
d="M799 1491c205.333 0 373.333 -69.333 504 -208s196 -322 196 -550s-65.333 -411.333 -196 -550s-298.667 -208 -504 -208c-206 0 -374.667 69.5 -506 208.5s-197 322.167 -197 549.5c0 228 65.667 411.333 197 550s300 208 506 208zM797 141
c146.667 0 266.832 52 360.499 156s140.5 249.333 140.5 436s-46.667 332 -140 436s-212.333 156 -357 156c-147.333 0 -268.166 -52 -362.499 -156s-141.5 -249.333 -141.5 -436c0 -186 47 -331.167 141 -435.5s213.667 -156.5 359 -156.5z" />
    <glyph glyph-name="P" unicode="P" horiz-adv-x="1366" 
d="M164 1466l547 -0.000976562c120 0 220.5 -11.167 301.5 -33.5s145.167 -70.666 192.5 -144.999s71 -157.5 71 -249.5c0 -148 -47 -260.333 -141 -337s-230 -115 -408 -115h-369v-586h-194v1466zM358 759.999h371c124.667 0 213.5 23.333 266.5 70s79.5 114 79.5 202
c0 58.667 -14.667 110.667 -44 156s-66.5 74 -111.5 86s-109.833 18 -194.5 18h-367v-532z" />
    <glyph glyph-name="Q" unicode="Q" horiz-adv-x="1593" 
d="M1524 20l-114.999 -137l-242 191c-108.667 -66 -231.334 -99 -368.001 -99c-206 0 -374.667 69.5 -506 208.5s-197 322.167 -197 549.5c0 228 65.667 411.333 197 550s300 208 506 208c205.333 0 373.333 -69.333 504 -208s196 -322 196 -550
c0 -221.333 -63.333 -403 -190 -545zM1163 303c90 106.667 134.999 250 134.999 430c0 186.667 -46.667 332 -140 436s-212.333 156 -357 156c-147.333 0 -268.166 -52 -362.499 -156s-141.5 -249.333 -141.5 -436c0 -186 47 -331.167 141 -435.5s213.667 -156.5 359 -156.5
c77.333 0 151 16.333 221 49l-146 115l115 137z" />
    <glyph glyph-name="R" unicode="R" horiz-adv-x="1479" 
d="M1386 0l-210 0.000976562l-138 391c-24.667 69.333 -65.667 126 -123 170s-123.333 66 -198 66h-359v-627h-194v1466h649c113.333 0 206 -11 278 -33s130.667 -68.333 176 -139s68 -150.334 68 -239.001c0 -101.333 -29.333 -186 -88 -254s-139 -112.333 -241 -133v-4
c102 -32.667 179.667 -121 233 -265zM358 801.001h433c120.667 0 208.167 19 262.5 57s81.5 103.667 81.5 197c0 166.667 -104.667 250 -314 250h-463v-504z" />
    <glyph glyph-name="S" unicode="S" horiz-adv-x="1366" 
d="M717 -25c-206.667 0 -361.169 46.3311 -463.502 138.998s-156.166 211.667 -161.499 357h187c10 -109.333 55.5 -190.166 136.5 -242.499s178.833 -78.5 293.5 -78.5c108.667 0 196.167 22.333 262.5 67s99.5 105.334 99.5 182.001
c0 80.667 -34.333 139.334 -103 176.001s-186.834 72.834 -354.501 108.501s-288 85.167 -361 148.5s-109.5 147.666 -109.5 252.999c0 118.667 47.5 216 142.5 292s221.167 114 378.5 114c165.333 0 298.666 -38.333 399.999 -115s155 -185 161 -325h-189
c-19.333 177.333 -140.666 266 -363.999 266c-108 0 -191.667 -20.333 -251 -61s-89 -94.667 -89 -162c0 -61.333 23.833 -107.333 71.5 -138s136.667 -60.334 267 -89.001s233.833 -57 310.5 -85s142.334 -71.5 197.001 -130.5s82 -138.167 82 -237.5
c0 -126 -50.167 -230.667 -150.5 -314s-231.166 -125 -392.499 -125z" />
    <glyph glyph-name="T" unicode="T" horiz-adv-x="1251" 
d="M1206 1292h-485v-1292h-195v1292h-481v174h1161v-174z" />
    <glyph glyph-name="U" unicode="U" horiz-adv-x="1479" 
d="M739 -25c-170 0 -297.171 33 -381.504 99s-137.666 143.667 -159.999 233s-33.5 193 -33.5 311v848h194v-845c0 -192.667 32.333 -319.334 97 -380.001s159.334 -91 284.001 -91s219.334 30.333 284.001 91s97 187.334 97 380.001v845h195v-848
c0 -177.333 -21.167 -308 -63.5 -392s-106.166 -146.833 -191.499 -188.5s-192.333 -62.5 -321 -62.5z" />
    <glyph glyph-name="V" unicode="V" horiz-adv-x="1366" 
d="M1352 1466l-570 -1466h-200l-570 1466h207l463 -1257l463 1257h207z" />
    <glyph glyph-name="W" unicode="W" horiz-adv-x="1933" 
d="M1913 1466l-406 -1466h-186l-352 1274l-353 -1274h-186l-405 1466h204l293 -1194l330 1194h233l330 -1194l293 1194h205z" />
    <glyph glyph-name="X" unicode="X" horiz-adv-x="1366" 
d="M1356 0h-238l-434 621l-436 -621h-238l563 772l-507 694h237l379 -542l381 542h237l-509 -694z" />
    <glyph glyph-name="Y" unicode="Y" horiz-adv-x="1366" 
d="M1356 1466l-576 -845v-621h-194v621l-576 845h236l438 -675l436 675h236z" />
    <glyph glyph-name="Z" unicode="Z" horiz-adv-x="1251" 
d="M1196 0h-1159v182l911 1110h-827v174h1050v-182l-911 -1110h936v-174z" />
    <glyph glyph-name="bracketleft" unicode="[" horiz-adv-x="569" 
d="M537 -408h-398v1874h398v-149h-209v-1575h209v-150z" />
    <glyph glyph-name="backslash" unicode="\" horiz-adv-x="569" 
d="M569 0h-145l-424 1466h145z" />
    <glyph glyph-name="bracketright" unicode="]" horiz-adv-x="569" 
d="M430 -408h-397v150h209v1575h-209v149h397v-1874z" />
    <glyph glyph-name="asciicircum" unicode="^" horiz-adv-x="961" 
d="M885 850h-185l-221 434l-221 -434h-184l334 616h143z" />
    <glyph glyph-name="underscore" unicode="_" horiz-adv-x="1130" 
d="M1142 -322h-1154v102h1154v-102z" />
    <glyph glyph-name="grave" unicode="`" horiz-adv-x="682" 
d="M455 1210h-148l-221 281h236z" />
    <glyph glyph-name="a" unicode="a" 
d="M811 279v235h-129c-273.333 0 -410 -74.333 -410 -223c0 -54 20 -95.5 60 -124.5s94 -43.5 162 -43.5c62 0 122 14 180 42s103.667 66 137 114zM811 109c-96 -89.333 -219.667 -134 -371 -134c-105.333 0 -192 28.5 -260 85.5s-102 130.5 -102 220.5
c0 248 213.667 372 641 372h92c0 76 -4 131.167 -12 165.5s-30.333 62.833 -67 85.5s-95 34 -175 34c-168 0 -254.667 -60 -260 -180h-188c14 218 166.667 327 458 327c136 0 242 -27 318 -81s114 -160 114 -318v-686h-188v109z" />
    <glyph glyph-name="b" unicode="b" 
d="M328 934c84 100.667 185.001 150.999 303.001 150.999c138.667 0 246 -49.167 322 -147.5s114 -231.166 114 -398.499c0 -174 -42.5 -311.5 -127.5 -412.5s-192.167 -151.5 -321.5 -151.5c-114.667 0 -211.334 35.667 -290.001 107v-82h-189v1466h189v-532z
M328.001 251.999c80.667 -86 173.332 -129.001 277.999 -129.001c81.333 0 146 34.833 194 104.5s72 173.5 72 311.5c0 130.667 -22.667 229.834 -68 297.501s-108.666 101.5 -189.999 101.5c-104.667 0 -200 -60.667 -286 -182v-504z" />
    <glyph glyph-name="c" unicode="c" horiz-adv-x="1024" 
d="M569 -25c-150.667 0 -271.167 48.501 -361.5 145.501s-135.5 233.5 -135.5 409.5c0 176.667 45.167 313.334 135.5 410.001s210.833 145 361.5 145c116 0 212.833 -29.333 290.5 -88s123.5 -143.334 137.5 -254.001h-194c-2.66699 63.333 -26.5 111.666 -71.5 144.999
s-99.167 50 -162.5 50c-90 0 -163 -34.167 -219 -102.5s-84 -170.166 -84 -305.499c0 -134.667 28 -236.167 84 -304.5s129 -102.5 219 -102.5c63.333 0 117.5 16.667 162.5 50s68.833 81.333 71.5 144h194c-14 -110.667 -59.833 -195.334 -137.5 -254.001
s-174.5 -88 -290.5 -88z" />
    <glyph glyph-name="d" unicode="d" 
d="M811 305l-0.000976562 504.001c-81.333 86 -174.333 129 -279 129c-80.667 0 -145.167 -34.833 -193.5 -104.5s-72.5 -173.5 -72.5 -311.5c0 -130.667 22.833 -229.834 68.5 -297.501s108.834 -101.5 189.501 -101.5c105.333 0 201 60.667 287 182zM810.999 127.001
c-84 -101.333 -185 -152 -303 -152c-138.667 0 -246 49.333 -322 148s-114 231.667 -114 399c0 173.333 42.5 310.5 127.5 411.5s191.833 151.5 320.5 151.5c114.667 0 211.667 -35.333 291 -106v487h188v-1466h-188v127z" />
    <glyph glyph-name="e" unicode="e" 
d="M590 -25c-156 0 -281.333 48.833 -376 146.5s-142 233.834 -142 408.501c0 173.333 45.833 309.166 137.5 407.499s211.5 147.5 359.5 147.5c151.333 0 272.166 -48.333 362.499 -145s135.5 -233.334 135.5 -410.001v-45h-799c8 -122.667 41.833 -213.667 101.5 -273
s133.167 -89 220.5 -89c66 0 125.5 16.833 178.5 50.5s80.833 81.5 83.5 143.5h195c-14.667 -109.333 -64.167 -193.666 -148.5 -252.999s-187.166 -89 -308.499 -89zM868 633c-15.333 102 -49.668 178.333 -103.001 229s-118.666 76 -195.999 76
c-75.333 0 -140 -25.167 -194 -75.5s-88.333 -126.833 -103 -229.5h596z" />
    <glyph glyph-name="f" unicode="f" horiz-adv-x="569" 
d="M360 913v-913h-188v913h-156v148h156v94c0 224 99 336 297 336c60.667 0 107.667 -4 141 -12v-164c-37.333 6.66699 -75.333 10 -114 10c-46 0 -80.167 -12.833 -102.5 -38.5s-33.5 -70.167 -33.5 -133.5v-92h201v-148h-201z" />
    <glyph glyph-name="g" unicode="g" 
d="M999 82c0 -341.333 -154 -511.999 -462 -511.999c-133.333 0 -238.5 29 -315.5 87s-115.5 136 -115.5 234h195c0 -116 78 -174 234 -174c88 0 156 24.167 204 72.5s72 143.166 72 284.499v53c-84 -101.333 -185 -152 -303 -152c-138.667 0 -246 49.333 -322 148
s-114 231.667 -114 399c0 173.333 42.5 310.5 127.5 411.5s191.833 151.5 320.5 151.5c114.667 0 211.667 -35.333 291 -106v82h188v-979zM811 305.001l-0.000976562 504.001c-81.333 86 -174.333 129 -279 129c-80.667 0 -145.167 -34.833 -193.5 -104.5
s-72.5 -173.5 -72.5 -311.5c0 -130.667 22.833 -229.834 68.5 -297.501s108.834 -101.5 189.501 -101.5c105.333 0 201 60.667 287 182z" />
    <glyph glyph-name="h" unicode="h" 
d="M328 926c94 106 199.667 159 317 159c239.333 0 359 -130.333 359 -391v-694h-189v686c0 86.667 -15.5 149 -46.5 187s-81.833 57 -152.5 57c-96 0 -192 -56.667 -288 -170v-760h-189v1466h189v-540z" />
    <glyph glyph-name="i" unicode="i" horiz-adv-x="467" 
d="M328 0h-189v1061h189v-1061zM328 1262h-189v204h189v-204z" />
    <glyph glyph-name="j" unicode="j" horiz-adv-x="467" 
d="M328 -57c0 -152 -24.001 -251.833 -72.001 -299.5s-115 -71.5 -201 -71.5c-51.333 0 -93.666 3.33301 -126.999 10v160c36 -9.33301 71 -14 105 -14c41.333 0 69.333 14.5 84 43.5s22 87.5 22 175.5v1114h189v-1118zM327.999 1262h-189v204h189v-204z" />
    <glyph glyph-name="k" unicode="k" horiz-adv-x="1024" 
d="M1016 0h-225l-345 539l-118 -117v-422h-189v1466h189v-831l409 426h238l-402 -395z" />
    <glyph glyph-name="l" unicode="l" horiz-adv-x="467" 
d="M328 0h-189v1466h189v-1466z" />
    <glyph glyph-name="m" unicode="m" horiz-adv-x="1706" 
d="M1573 0l-189.001 0.000976562v686c0 88 -12.667 150.667 -38 188s-67.666 56 -126.999 56c-91.333 0 -181 -56.667 -269 -170v-760h-188v686c0 88 -12.667 150.667 -38 188s-68 56 -128 56c-91.333 0 -180.666 -56.667 -267.999 -170v-760h-189v1061h189v-135
c89.333 106 188.333 159 297 159c155.333 0 254.333 -64 297 -192c70.667 83.333 130.667 136.166 180 158.499s97.666 33.5 144.999 33.5c217.333 0 326 -130.333 326 -391v-694z" />
    <glyph glyph-name="n" unicode="n" 
d="M328 926c94 106 199.667 159 317 159c239.333 0 359 -130.333 359 -391v-694h-189v686c0 86.667 -15.5 149 -46.5 187s-81.833 57 -152.5 57c-96 0 -192 -56.667 -288 -170v-760h-189v1061h189v-135z" />
    <glyph glyph-name="o" unicode="o" 
d="M569 1085c151.333 0 272.166 -48.333 362.499 -145s135.5 -233.334 135.5 -410.001c0 -176 -45.167 -312.5 -135.5 -409.5s-211.166 -145.5 -362.499 -145.5c-150.667 0 -271.167 48.5 -361.5 145.5s-135.5 233.5 -135.5 409.5c0 176.667 45.167 313.334 135.5 410.001
s210.833 145 361.5 145zM569 123c90 0 163 34.167 219 102.5s84 169.833 84 304.5c0 135.333 -28 237.166 -84 305.499s-129 102.5 -219 102.5s-163 -34.167 -219 -102.5s-84 -170.166 -84 -305.499c0 -134.667 28 -236.167 84 -304.5s129 -102.5 219 -102.5z" />
    <glyph glyph-name="p" unicode="p" 
d="M328 934c84 100.667 185.001 150.999 303.001 150.999c138.667 0 246 -49.167 322 -147.5s114 -231.166 114 -398.499c0 -174 -42.5 -311.5 -127.5 -412.5s-192.167 -151.5 -321.5 -151.5c-114.667 0 -211.334 35.667 -290.001 107v-490h-189v1469h189v-127z
M328.001 251.999c80.667 -86 173.332 -129.001 277.999 -129.001c81.333 0 146 34.833 194 104.5s72 173.5 72 311.5c0 130.667 -22.667 229.834 -68 297.501s-108.666 101.5 -189.999 101.5c-104.667 0 -200 -60.667 -286 -182v-504z" />
    <glyph glyph-name="q" unicode="q" 
d="M999 -408h-188v535c-84 -101.333 -185 -152 -303 -152c-138.667 0 -246 49.333 -322 148s-114 231.667 -114 399c0 173.333 42.5 310.5 127.5 411.5s191.833 151.5 320.5 151.5c114.667 0 211.667 -35.333 291 -106v82h188v-1469zM811 305l-0.000976562 504.001
c-81.333 86 -174.333 129 -279 129c-80.667 0 -145.167 -34.833 -193.5 -104.5s-72.5 -173.5 -72.5 -311.5c0 -130.667 22.833 -229.834 68.5 -297.501s108.834 -101.5 189.501 -101.5c105.333 0 201 60.667 287 182z" />
    <glyph glyph-name="r" unicode="r" horiz-adv-x="682" 
d="M690 889c-26.667 8 -65.001 12 -115.001 12c-96 0 -178.333 -50.333 -247 -151v-750h-189v1061h189v-148c79.333 114.667 171.333 172 276 172c26.667 0 55.334 -2.66699 86.001 -8v-188z" />
    <glyph glyph-name="s" unicode="s" horiz-adv-x="1024" 
d="M518 -25c-290 0 -441.666 113.999 -454.999 341.999h189c1.33301 -129.333 89.333 -194 264 -194c78 0 137.5 16.167 178.5 48.5s61.5 72.833 61.5 121.5c0 48 -20 81.833 -60 101.5s-122.5 45.167 -247.5 76.5s-216.333 66.333 -274 105s-86.5 106.667 -86.5 204
c0 88 35.833 160.833 107.5 218.5s167.5 86.5 287.5 86.5c278 0 420 -99 426 -297h-188c-6.66699 100 -81.667 150 -225 150c-63.333 0 -115.833 -12 -157.5 -36s-62.5 -59 -62.5 -105c0 -41.333 16 -71.166 48 -89.499s112.167 -43 240.5 -74
s223.666 -67.167 285.999 -108.5s93.5 -112.666 93.5 -213.999c0 -96.667 -38.5 -176.834 -115.5 -240.501s-180.5 -95.5 -310.5 -95.5z" />
    <glyph glyph-name="t" unicode="t" horiz-adv-x="569" 
d="M551 -2c-41.333 -8 -86.333 -11.999 -135 -11.999c-77.333 0 -134 13.833 -170 41.5s-58.333 63.167 -67 106.5s-13 102.333 -13 177v602h-131v148h131v264h188v-264h172v-148h-172v-612c0 -72.667 9.16699 -118.834 27.5 -138.501s43.5 -29.5 75.5 -29.5
c32.667 0 64 2.66699 94 8v-143z" />
    <glyph glyph-name="u" unicode="u" 
d="M811 135c-94 -106.667 -199.667 -160 -317 -160c-239.333 0 -359 130.667 -359 392v694h189v-686c0 -86.667 15.333 -149 46 -187s81.334 -57 152.001 -57c105.333 0 201.666 56.667 288.999 170v760h188v-1061h-188v135z" />
    <glyph glyph-name="v" unicode="v" horiz-adv-x="1024" 
d="M997 1061l-401 -1061h-168l-401 1061h204l281 -830l281 830h204z" />
    <glyph glyph-name="w" unicode="w" horiz-adv-x="1479" 
d="M1468 1061l-319 -1061h-180l-230 780l-229 -780h-180l-320 1061h209l195 -809l239 809h172l240 -809l195 809h208z" />
    <glyph glyph-name="x" unicode="x" horiz-adv-x="1024" 
d="M1010 0h-234l-264 414l-264 -414h-234l392 551l-361 510h234l233 -371l233 371h234l-361 -508z" />
    <glyph glyph-name="y" unicode="y" horiz-adv-x="1024" 
d="M199 -256c93.333 0 169.667 85.333 229 256l-401 1061h204l281 -830l281 830h204l-401 -1061c-38.667 -101.333 -71.5 -179.5 -98.5 -234.5s-62.333 -101.333 -106 -139s-97.167 -56.5 -160.5 -56.5c-47.333 0 -88 4.66699 -122 14v174
c29.333 -9.33301 59.333 -14 90 -14z" />
    <glyph glyph-name="z" unicode="z" horiz-adv-x="1024" 
d="M981 0h-940v160l661 741h-622v160h868v-160l-661 -741h694v-160z" />
    <glyph glyph-name="braceleft" unicode="{" horiz-adv-x="684" 
d="M635 -430l-55 0.00390625c-55.333 0 -103.166 5.16699 -143.499 15.5s-75.333 35.333 -105 75s-48.334 86.5 -56.001 140.5s-11.5 133 -11.5 237s-3.66699 181 -11 231s-25.833 92.167 -55.5 126.5s-76.5 52.166 -140.5 53.499v163
c64 1.33301 110.833 19.166 140.5 53.499s48.167 76.5 55.5 126.5s11 127 11 231s3.83301 183 11.5 237s26.334 100.833 56.001 140.5s64.667 64.667 105 75s88.166 15.5 143.499 15.5h55v-156h-31c-69.333 0 -111.833 -18.333 -127.5 -55s-23.5 -135.667 -23.5 -297
c0 -144.667 -19 -250.334 -57 -317.001s-95.667 -112 -173 -136c77.333 -23.333 135 -68.333 173 -135s57 -172.334 57 -317.001c0 -161.333 7.83301 -260.333 23.5 -297s58.167 -55 127.5 -55h31v-156z" />
    <glyph glyph-name="bar" unicode="|" horiz-adv-x="532" 
d="M344 -430h-156v1896h156v-1896z" />
    <glyph glyph-name="braceright" unicode="}" horiz-adv-x="684" 
d="M49 1491l55 -0.00390625c55.333 0 103.166 -5.16699 143.499 -15.5s75.333 -35.333 105 -75s48.334 -86.5 56.001 -140.5s11.5 -133 11.5 -237s3.66699 -181 11 -231s25.833 -92.167 55.5 -126.5s76.5 -52.166 140.5 -53.499v-163
c-64 -1.33301 -110.833 -19.166 -140.5 -53.499s-48.167 -76.5 -55.5 -126.5s-11 -127 -11 -231s-3.83301 -183 -11.5 -237s-26.334 -100.833 -56.001 -140.5s-64.667 -64.667 -105 -75s-88.166 -15.5 -143.499 -15.5h-55v156h31c69.333 0 111.833 18.333 127.5 55
s23.5 135.667 23.5 297c0 144.667 19 250.334 57 317.001s95.667 111.667 173 135c-77.333 24 -135 69.333 -173 136s-57 172.334 -57 317.001c0 161.333 -7.83301 260.333 -23.5 297s-58.167 55 -127.5 55h-31v156z" />
    <glyph glyph-name="asciitilde" unicode="~" horiz-adv-x="1196" 
d="M1110 1263c-70.667 -80.667 -162.667 -121 -276 -121c-72 0 -158.833 22.5 -260.5 67.5s-177.5 67.5 -227.5 67.5c-86 0 -172 -45.667 -258 -137v205c70.667 80.667 163 121 277 121c71.333 0 157.833 -22.5 259.5 -67.5s177.5 -67.5 227.5 -67.5
c86 0 172 45.667 258 137v-205z" />
    <glyph glyph-name="exclamdown" unicode="&#xa1;" horiz-adv-x="569" 
d="M387 856h-205v205h205v-205zM387 -406h-205v318l39 784h127l39 -784v-318z" />
    <glyph glyph-name="cent" unicode="&#xa2;" 
d="M1038 317c-14 -110.667 -59.8311 -195.334 -137.498 -254.001s-174.5 -88 -290.5 -88c-34.667 0 -71.334 3.66699 -110.001 11l-66 -236l-104 29l65 237c-188 84.667 -282 256 -282 514c0 176.667 45 313.334 135 410.001s210.667 145 362 145c28 0 55.333 -2 82 -6
l64 232l104 -29l-63 -227c143.333 -55.333 223.666 -159.333 240.999 -312h-194c-2 70 -32 122.667 -90 158l-213 -770c22 -5.33301 45 -8 69 -8c63.333 0 117.5 16.667 162.5 50s68.833 81.333 71.5 144h194zM651.002 936c-7.33301 1.33301 -21 1.99902 -41 1.99902
c-90 0 -163 -34.167 -219 -102.5s-84 -170.166 -84 -305.499c0 -170 44.333 -287.333 133 -352z" />
    <glyph glyph-name="sterling" unicode="&#xa3;" 
d="M1057 20c-65.333 -30 -136.334 -45 -213.001 -45c-50 0 -123.667 15.167 -221 45.5s-170.666 45.5 -219.999 45.5c-107.333 0 -225.333 -30.333 -354 -91v181c68.667 36 121 82.833 157 140.5s54 137.834 54 240.501c0 42 -5.33301 83.667 -16 125h-195v147h154
c-34 114.667 -51 202.667 -51 264c0 130.667 42.167 233 126.5 307s193.5 111 327.5 111c126 0 229.167 -32.667 309.5 -98s124.833 -159 133.5 -281h-195c-13.333 154 -97.333 231 -252 231c-76.667 0 -138.5 -25 -185.5 -75s-70.5 -109.333 -70.5 -178
c0 -75.333 18.333 -169 55 -281h314v-147h-281c11.333 -30.667 17 -60.334 17 -89.001c0 -86 -13.667 -157 -41 -213s-74 -109.667 -140 -161c47.333 14.667 96 22 146 22c57.333 0 132 -10.833 224 -32.5s157.333 -32.5 196 -32.5c76 0 149.667 18.333 221 55v-191z" />
    <glyph glyph-name="currency" unicode="&#xa4;" 
d="M1063 352l-116.999 -116.001l-139 137c-72 -48 -151.333 -72 -238 -72c-87.333 0 -166.333 24.667 -237 74l-139 -139l-117 116l139 140c-46.667 73.333 -70 151 -70 233s23.333 159.667 70 233c1.33301 0 -45 46.667 -139 140l117 116
c92.667 -91.333 139 -137.666 139 -138.999c70.667 49.333 149.667 74 237 74s166.666 -24.667 237.999 -74l139 139l117 -116l-139 -140c46 -73.333 69 -151 69 -233c0 -83.333 -23.667 -161 -71 -233zM569.001 464.999c71.333 0 132.5 25.5 183.5 76.5
s76.5 112.167 76.5 183.5s-25.5 132.5 -76.5 183.5s-112.167 76.5 -183.5 76.5s-132.5 -25.5 -183.5 -76.5s-76.5 -112.167 -76.5 -183.5s25.5 -132.5 76.5 -183.5s112.167 -76.5 183.5 -76.5z" />
    <glyph glyph-name="yen" unicode="&#xa5;" 
d="M1139 1466l-383 -669h317v-140h-411v-180h411v-139h-411v-338h-181v338h-415v139h415v180h-415v140h319l-383 669h213l354 -649l357 649h213z" />
    <glyph glyph-name="brokenbar" unicode="&#xa6;" horiz-adv-x="532" 
d="M344 -430h-156v766h156v-766zM344 700h-156v766h156v-766z" />
    <glyph glyph-name="section" unicode="&#xa7;" 
d="M770 1145c-12 132 -83.002 198.002 -213.002 198.002c-60 0 -106.667 -14.833 -140 -44.5s-50 -67.834 -50 -114.501c0 -44.667 20.667 -86.334 62 -125.001s136.333 -102.667 285 -192s242 -162.666 280 -219.999s57 -118 57 -182c0 -120 -76 -216.333 -228 -289
c105.333 -66.667 158 -159.334 158 -278.001c0 -94 -37 -172.167 -111 -234.5s-169.333 -93.5 -286 -93.5c-121.333 0 -220.666 30.667 -297.999 92s-123.666 150.666 -138.999 267.999h195c14 -139.333 94.667 -209 242 -209c67.333 0 119 17.333 155 52s54 75.667 54 123
c0 46.667 -24.833 90.334 -74.5 131.001s-150 107 -301 199s-244 167.333 -279 226s-52.5 122.334 -52.5 191.001c0 121.333 75 216.333 225 285c-88.667 76 -133 158.667 -133 248c0 81.333 33 154.166 99 218.499s156 96.5 270 96.5c123.333 0 220.833 -30.667 292.5 -92
s113.5 -146 125.5 -254h-195zM734.998 246.002c90 45.333 134.998 106.667 134.998 184c0 45.333 -18.167 88.833 -54.5 130.5s-102.666 91.667 -198.999 150s-168.833 107.5 -217.5 147.5c-88.667 -42.667 -133 -107.334 -133 -194.001c0 -48.667 16.333 -92.5 49 -131.5
s100.834 -89.667 204.501 -152s175.5 -107.166 215.5 -134.499z" />
    <glyph glyph-name="dieresis" unicode="&#xa8;" horiz-adv-x="682" 
d="M618 1251h-184v205h184v-205zM248 1251h-185v205h185v-205z" />
    <glyph glyph-name="copyright" unicode="&#xa9;" horiz-adv-x="1509" 
d="M756 1491c206 0 383 -73.833 531 -221.5s222 -325.167 222 -532.5s-73.667 -385 -221 -533s-324.666 -222 -531.999 -222c-208 0 -386 73.833 -534 221.5s-222 325.5 -222 533.5s74.167 385.667 222.5 533s326.166 221 533.499 221zM754 106
c172.667 0 320.832 61.833 444.499 185.5s185.5 272.167 185.5 445.5s-61.667 321.5 -185 444.5s-271.666 184.5 -444.999 184.5s-321.5 -61.5 -444.5 -184.5s-184.5 -271.167 -184.5 -444.5s61.5 -321.833 184.5 -445.5s271.167 -185.5 444.5 -185.5zM1114 578
c-45.333 -183.333 -164 -275.003 -356 -275.003c-119.333 0 -215.5 39 -288.5 117s-109.5 183 -109.5 315c0 130.667 36.167 234 108.5 310s170.833 114 295.5 114c89.333 0 165.166 -22.167 227.499 -66.5s100.5 -106.166 114.5 -185.499h-139c-20 94.667 -89 142 -207 142
c-82.667 0 -147 -28.667 -193 -86s-69 -134.666 -69 -231.999c0 -93.333 23.833 -168.166 71.5 -224.499s109.834 -84.5 186.501 -84.5c122.667 0 195.667 52 219 156h139z" />
    <glyph glyph-name="ordfeminine" unicode="&#xaa;" horiz-adv-x="758" 
d="M539 971v123h-90c-170.667 0 -256 -45.333 -256 -136c0 -61.333 43.667 -92 131 -92c35.333 0 74.5 10 117.5 30s75.5 45 97.5 75zM539 764v72c-64 -58.667 -148 -88 -252 -88c-71.333 0 -129.833 19 -175.5 57s-68.5 87 -68.5 147c0 166.667 143.333 250 430 250h66
c0 76.667 -15 124.167 -45 142.5s-70.333 27.5 -121 27.5c-104 0 -158 -33.333 -162 -100h-145c12 146 117 219 315 219c98 0 172.667 -20 224 -60s77 -109.333 77 -208v-459h-143zM670 518h-590v118h590v-118z" />
    <glyph glyph-name="guillemotleft" unicode="&#xab;" 
d="M997 72h-147l-318 456l318 457h147l-260 -457zM606 72h-147l-318 456l318 457h147l-260 -457z" />
    <glyph glyph-name="logicalnot" unicode="&#xac;" horiz-adv-x="1196" 
d="M1083 416h-168v446h-802v168h970v-614z" />
    <glyph glyph-name="registered" unicode="&#xae;" horiz-adv-x="1509" 
d="M756 1491c206 0 383 -73.833 531 -221.5s222 -325.167 222 -532.5s-73.667 -385 -221 -533s-324.666 -222 -531.999 -222c-208 0 -386 73.833 -534 221.5s-222 325.5 -222 533.5s74.167 385.667 222.5 533s326.166 221 533.499 221zM754 106
c172.667 0 320.832 61.833 444.499 185.5s185.5 272.167 185.5 445.5s-61.667 321.5 -185 444.5s-271.666 184.5 -444.999 184.5s-321.5 -61.5 -444.5 -184.5s-184.5 -271.167 -184.5 -444.5s61.5 -321.833 184.5 -445.5s271.167 -185.5 444.5 -185.5zM1094 319h-150
l-63 177c-38 106 -109.667 159 -215 159h-103v-336h-131v811h305c214.667 0 322 -74.333 322 -223c0 -143.333 -70.333 -220.333 -211 -231c72 -22 125.333 -73.333 160 -154zM562.998 768h164c128.667 0 193 42.333 193 127c0 83.333 -66.333 125 -199 125h-158v-252z" />
    <glyph glyph-name="overscore" unicode="&#xaf;" horiz-adv-x="1024" 
d="M1036 1620h-1048v102h1048v-102z" />
    <glyph glyph-name="degree" unicode="&#xb0;" horiz-adv-x="819" 
d="M410 1485c76 0 140.999 -27.167 194.999 -81.5s81 -119.5 81 -195.5c0 -76.667 -27.167 -142.167 -81.5 -196.5s-119.166 -81.5 -194.499 -81.5c-76 0 -141.167 27.167 -195.5 81.5s-81.5 119.833 -81.5 196.5s27 142 81 196s119.333 81 196 81zM409.999 1038
c46 0 85.501 16.667 118.501 50s49.5 73.333 49.5 120s-16.5 86.334 -49.5 119.001s-72.5 49 -118.5 49c-46.667 0 -86.334 -16.333 -119.001 -49s-49 -72.334 -49 -119.001s16.5 -86.667 49.5 -120s72.5 -50 118.5 -50z" />
    <glyph glyph-name="plusminus" unicode="&#xb1;" horiz-adv-x="1196" 
d="M1083 682h-401v-401h-168v401h-401v168h401v401h168v-401h401v-168zM1083 0h-970v168h970v-168z" />
    <glyph glyph-name="twosuperior" unicode="&#xb2;" horiz-adv-x="682" 
d="M647 733l-622 0.000976562c14.667 110 100.667 212.333 258 307c84.667 51.333 139.5 91 164.5 119s37.5 60 37.5 96c0 74 -45.667 111 -137 111c-86.667 0 -137 -32.667 -151 -98h-152c28 144.667 129.667 217 305 217c91.333 0 163 -20.667 215 -62s78 -94.333 78 -159
c0 -56.667 -15.333 -104.834 -46 -144.501s-85 -83.167 -163 -130.5s-137.333 -92.333 -178 -135h391v-121z" />
    <glyph glyph-name="threesuperior" unicode="&#xb3;" horiz-adv-x="682" 
d="M473 1126c114.667 -21.333 171.999 -81.334 171.999 -180.001c0 -65.333 -27.167 -120.166 -81.5 -164.499s-128.166 -66.5 -221.499 -66.5c-186.667 0 -289.667 71.667 -309 215h155c8 -66 57.333 -99 148 -99c102 0 153 44.667 153 134c0 68 -52.333 102 -157 102h-56
v111c119.333 0 179 35.333 179 106c0 56 -40.333 84 -121 84c-75.333 0 -118.333 -27.333 -129 -82h-156c26 132.667 121.667 199 287 199c86.667 0 154 -18 202 -54s72 -80.333 72 -133c0 -90 -45.667 -147.333 -137 -172z" />
    <glyph glyph-name="acute" unicode="&#xb4;" horiz-adv-x="682" 
d="M596 1491l-221 -281h-148l133 281h236z" />
    <glyph glyph-name="mu1" unicode="&#xb5;" 
d="M1116 -12h-98c-115.333 0 -184.333 49 -207 147c-93.333 -106.667 -197.666 -160 -312.999 -160c-61.333 0 -118.666 16 -171.999 48l2 -431h-189v1469h189v-721c0 -139.333 69.667 -209 209 -209c53.333 0 99.666 12 138.999 36s84.333 68.667 135 134v760h188v-823
c0 -44 8.66699 -74.833 26 -92.5s47.666 -26.5 90.999 -26.5v-131z" />
    <glyph glyph-name="paragraph" unicode="&#xb6;" horiz-adv-x="1100" 
d="M1104 1319l-143 -0.000976562v-1727h-168v1727h-224v-1727h-168v1045c-129.333 8.66699 -228.833 50.834 -298.5 126.501s-104.5 169.167 -104.5 280.5c0 132 42 235.333 126 310s199.667 112 347 112h633v-147z" />
    <glyph glyph-name="middot" unicode="&#xb7;" horiz-adv-x="569" 
d="M387 618h-205v205h205v-205z" />
    <glyph glyph-name="cedilla" unicode="&#xb8;" horiz-adv-x="682" 
d="M371 -76c112 -14 168 -67.333 168 -160c0 -129.333 -101 -194 -303 -194c-30.667 0 -65 1.33301 -103 4v117c36.667 -4 73 -6 109 -6c86 0 129 27.333 129 82c0 50 -46.667 75 -140 75v158h140v-76z" />
    <glyph glyph-name="onesuperior" unicode="&#xb9;" horiz-adv-x="682" 
d="M475 733h-144.999v490c-46.667 -32.667 -121.334 -49 -224.001 -49v124c174 0 261 62.333 261 187h108v-752z" />
    <glyph glyph-name="ordmasculine" unicode="&#xba;" horiz-adv-x="748" 
d="M375 1491c98 0 177.501 -33.5 238.501 -100.5s91.5 -158.5 91.5 -274.5c0 -117.333 -30.5 -209.5 -91.5 -276.5s-140.5 -100.5 -238.5 -100.5c-98.667 0 -178.334 33.5 -239.001 100.5s-91 159.167 -91 276.5c0 116 30.5 207.5 91.5 274.5s140.5 100.5 238.5 100.5z
M375.001 872c120 0 180 81.333 180 244c0 161.333 -60 242 -180 242s-180 -80.667 -180 -242c0 -162.667 60 -244 180 -244zM670.001 518h-590v118h590v-118z" />
    <glyph glyph-name="guillemotright" unicode="&#xbb;" 
d="M997 528l-317 -456h-148l261 456l-261 457h148zM606 528l-317 -456h-148l260 456l-260 457h148z" />
    <glyph glyph-name="onequarter" unicode="&#xbc;" horiz-adv-x="1708" 
d="M496 733h-144.999v490c-46.667 -32.667 -121.334 -49 -224.001 -49v124c174 0 261 62.333 261 187h108v-752zM1470 1466l-1042 -1466h-158l1042 1466h158zM1616 154h-105v-154h-143v154h-383v122l404 474h122v-467h105v-129zM1368 283v284l-242 -284h242z" />
    <glyph glyph-name="onehalf" unicode="&#xbd;" horiz-adv-x="1708" 
d="M496 733h-144.999v490c-46.667 -32.667 -121.334 -49 -224.001 -49v124c174 0 261 62.333 261 187h108v-752zM1433 1466l-1042 -1466h-158l1042 1466h158zM1650 0l-622 0.000976562c14.667 110 100.667 212.333 258 307c84.667 51.333 139.5 91 164.5 119
s37.5 60 37.5 96c0 74 -45.667 111 -137 111c-86.667 0 -137 -32.667 -151 -98h-152c28 144.667 129.667 217 305 217c91.333 0 163 -20.667 215 -62s78 -94.333 78 -159c0 -56.667 -15.333 -104.834 -46 -144.501s-85 -83.167 -163 -130.5s-137.333 -92.333 -178 -135h391
v-121z" />
    <glyph glyph-name="threequarters" unicode="&#xbe;" horiz-adv-x="1708" 
d="M493 1126c114.667 -21.333 171.999 -81.334 171.999 -180.001c0 -65.333 -27.167 -120.166 -81.5 -164.499s-128.166 -66.5 -221.499 -66.5c-186.667 0 -289.667 71.667 -309 215h155c8 -66 57.333 -99 148 -99c102 0 153 44.667 153 134c0 68 -52.333 102 -157 102h-56
v111c119.333 0 179 35.333 179 106c0 56 -40.333 84 -121 84c-75.333 0 -118.333 -27.333 -129 -82h-156c26 132.667 121.667 199 287 199c86.667 0 154 -18 202 -54s72 -80.333 72 -133c0 -90 -45.667 -147.333 -137 -172zM1489 1466l-1042 -1466h-158l1042 1466h158z
M1616 153.999h-105v-154h-143v154h-383v122l404 474h122v-467h105v-129zM1368 282.999v284l-242 -284h242z" />
    <glyph glyph-name="questiondown" unicode="&#xbf;" 
d="M1044 -6c-11.333 -130 -59.999 -233.166 -145.999 -309.499s-195.667 -114.5 -329 -114.5c-140 0 -253.5 37.5 -340.5 112.5s-130.5 170.5 -130.5 286.5c0 65.333 15 126 45 182s86 118 168 186s132.167 122.167 150.5 162.5s27.5 107.166 27.5 200.499h177
c0 -123.333 -14.5 -213.833 -43.5 -271.5s-81.833 -119.167 -158.5 -184.5s-124.334 -115.5 -143.001 -150.5s-28 -72.167 -28 -111.5c0 -76.667 25.333 -140 76 -190s116.667 -75 198 -75c160.667 0 255 92.333 283 277h194zM674.001 856.001h-205v205h205v-205z" />
    <glyph glyph-name="Agrave" unicode="&#xc0;" horiz-adv-x="1366" 
d="M922 600l-258 680l-246 -680h504zM1368 0h-219l-170 446h-614l-162 -446h-205l563 1466h209zM781 1559h-148l-221 281h236z" />
    <glyph glyph-name="Aacute" unicode="&#xc1;" horiz-adv-x="1366" 
d="M922 600l-258 680l-246 -680h504zM1368 0h-219l-170 446h-614l-162 -446h-205l563 1466h209zM918 1840l-221 -281h-148l133 281h236z" />
    <glyph glyph-name="Acircumflex" unicode="&#xc2;" horiz-adv-x="1366" 
d="M922 600l-258 680l-246 -680h504zM1368 0h-219l-170 446h-614l-162 -446h-205l563 1466h209zM978 1559h-204l-113 170l-113 -170h-204l221 281h192z" />
    <glyph glyph-name="Atilde" unicode="&#xc3;" horiz-adv-x="1366" 
d="M922 600l-258 680l-246 -680h504zM1368 0h-219l-170 446h-614l-162 -446h-205l563 1466h209zM1002 1816c0 -71.333 -19.333 -127.333 -58 -168s-87 -61 -145 -61c-34.667 0 -82.334 14 -143.001 42s-101 42 -121 42c-42 0 -66 -28.667 -72 -86h-131
c0 71.333 19.333 127.333 58 168s87 61 145 61c34.667 0 82.334 -14 143.001 -42s101 -42 121 -42c42 0 66 28.667 72 86h131z" />
    <glyph glyph-name="Adieresis" unicode="&#xc4;" horiz-adv-x="1366" 
d="M922 600l-258 680l-246 -680h504zM1368 0h-219l-170 446h-614l-162 -446h-205l563 1466h209zM944 1599h-184v205h184v-205zM574 1599h-185v205h185v-205z" />
    <glyph glyph-name="Aring" unicode="&#xc5;" horiz-adv-x="1366" 
d="M922 600l-258 680l-246 -680h504zM1368 0h-219l-170 446h-614l-162 -446h-205l563 1466h209zM667 1828c50 0 92.5 -17.833 127.5 -53.5s52.5 -78.5 52.5 -128.5s-17.5 -92.833 -52.5 -128.5s-77.5 -53.5 -127.5 -53.5s-92.5 17.833 -127.5 53.5s-52.5 78.5 -52.5 128.5
s17.5 92.833 52.5 128.5s77.5 53.5 127.5 53.5zM667 1537c29.333 0 54.5 10.667 75.5 32s31.5 47 31.5 77c0 29.333 -10.5 54.666 -31.5 75.999s-46.167 32 -75.5 32s-54.333 -10.667 -75 -32s-31 -46.666 -31 -75.999c0 -30 10.333 -55.667 31 -77s45.667 -32 75 -32z" />
    <glyph glyph-name="AE" unicode="&#xc6;" horiz-adv-x="2048" 
d="M1935 0h-958v424h-518l-234 -424h-225l844 1466h1057v-174h-730v-448h674v-174h-674v-496h764v-174zM977 596v696h-43l-381 -696h424z" />
    <glyph glyph-name="Ccedilla" unicode="&#xc7;" horiz-adv-x="1479" 
d="M684 -18c-185.333 21.333 -329.667 99.167 -433 233.5s-155 306.833 -155 517.5c0 232.667 61.833 417.167 185.5 553.5s289.167 204.5 496.5 204.5c159.333 0 295 -43 407 -129s175 -199.333 189 -340h-200c-8 92.667 -48.167 166.334 -120.5 221.001
s-163.5 82 -273.5 82c-148.667 0 -266.334 -51.167 -353.001 -153.5s-130 -248.5 -130 -438.5c0 -189.333 43 -335.333 129 -438s202.667 -154 350 -154c114.667 0 207.334 28 278.001 84s110.667 136 120 240h200c-12 -145.333 -66.833 -260.833 -164.5 -346.5
s-226.5 -132.834 -386.5 -141.501v-53c112 -14 168 -67.333 168 -160c0 -129.333 -101 -194 -303 -194c-30.667 0 -64.667 1.33301 -102 4v117c36.667 -4 72.667 -6 108 -6c86 0 129 27.333 129 82c0 50 -46.333 75 -139 75v140z" />
    <glyph glyph-name="Egrave" unicode="&#xc8;" horiz-adv-x="1366" 
d="M1257 0h-1093v1466h1059v-174h-865v-448h809v-174h-809v-496h899v-174zM818 1559h-148l-221 281h236z" />
    <glyph glyph-name="Eacute" unicode="&#xc9;" horiz-adv-x="1366" 
d="M1257 0h-1093v1466h1059v-174h-865v-448h809v-174h-809v-496h899v-174zM938 1840l-221 -281h-148l133 281h236z" />
    <glyph glyph-name="Ecircumflex" unicode="&#xca;" horiz-adv-x="1366" 
d="M1257 0h-1093v1466h1059v-174h-865v-448h809v-174h-809v-496h899v-174zM1019 1559h-204l-113 170l-113 -170h-204l221 281h192z" />
    <glyph glyph-name="Edieresis" unicode="&#xcb;" horiz-adv-x="1366" 
d="M1257 0h-1093v1466h1059v-174h-865v-448h809v-174h-809v-496h899v-174zM981 1599h-184v205h184v-205zM611 1599h-185v205h185v-205z" />
    <glyph glyph-name="Igrave" unicode="&#xcc;" horiz-adv-x="569" 
d="M383 0h-195v1466h195v-1466zM400 1559h-148l-221 281h236z" />
    <glyph glyph-name="Iacute" unicode="&#xcd;" horiz-adv-x="569" 
d="M383 0h-195v1466h195v-1466zM541 1840l-221 -281h-148l133 281h236z" />
    <glyph glyph-name="Icircumflex" unicode="&#xce;" horiz-adv-x="569" 
d="M383 0h-195v1466h195v-1466zM601 1559h-204l-113 170l-113 -170h-204l221 281h192z" />
    <glyph glyph-name="Idieresis" unicode="&#xcf;" horiz-adv-x="569" 
d="M383 0h-195v1466h195v-1466zM563 1599h-184v205h184v-205zM193 1599h-185v205h185v-205z" />
    <glyph glyph-name="Eth" unicode="&#xd0;" horiz-adv-x="1479" 
d="M164 1466h465c498 0 747 -241.667 747 -725c0 -494 -249 -741 -747 -741h-465v647h-162v174h162v645zM358 174h267c212.667 0 357.667 49.5 435 148.5s116 238.5 116 418.5c0 175.333 -38.5 311 -115.5 407s-222.167 144 -435.5 144h-267v-471h400v-174h-400v-473z" />
    <glyph glyph-name="Ntilde" unicode="&#xd1;" horiz-adv-x="1479" 
d="M1315 0h-199l-768 1157v-1157h-184v1466h198l768 -1157v1157h185v-1466zM1096 1816c0 -71.333 -19.333 -127.333 -58 -168s-87 -61 -145 -61c-34.667 0 -82.334 14 -143.001 42s-101 42 -121 42c-42 0 -66 -28.667 -72 -86h-131c0 71.333 19.333 127.333 58 168
s87 61 145 61c34.667 0 82.334 -14 143.001 -42s101 -42 121 -42c42 0 66 28.667 72 86h131z" />
    <glyph glyph-name="Ograve" unicode="&#xd2;" horiz-adv-x="1593" 
d="M799 1491c205.333 0 373.333 -69.333 504 -208s196 -322 196 -550s-65.333 -411.333 -196 -550s-298.667 -208 -504 -208c-206 0 -374.667 69.5 -506 208.5s-197 322.167 -197 549.5c0 228 65.667 411.333 197 550s300 208 506 208zM797 141
c146.667 0 266.832 52 360.499 156s140.5 249.333 140.5 436s-46.667 332 -140 436s-212.333 156 -357 156c-147.333 0 -268.166 -52 -362.499 -156s-141.5 -249.333 -141.5 -436c0 -186 47 -331.167 141 -435.5s213.667 -156.5 359 -156.5zM931.998 1559h-148l-221 281h236
z" />
    <glyph glyph-name="Oacute" unicode="&#xd3;" horiz-adv-x="1593" 
d="M799 1491c205.333 0 373.333 -69.333 504 -208s196 -322 196 -550s-65.333 -411.333 -196 -550s-298.667 -208 -504 -208c-206 0 -374.667 69.5 -506 208.5s-197 322.167 -197 549.5c0 228 65.667 411.333 197 550s300 208 506 208zM797 141
c146.667 0 266.832 52 360.499 156s140.5 249.333 140.5 436s-46.667 332 -140 436s-212.333 156 -357 156c-147.333 0 -268.166 -52 -362.499 -156s-141.5 -249.333 -141.5 -436c0 -186 47 -331.167 141 -435.5s213.667 -156.5 359 -156.5zM1053 1840l-221 -281h-148
l133 281h236z" />
    <glyph glyph-name="Ocircumflex" unicode="&#xd4;" horiz-adv-x="1593" 
d="M799 1491c205.333 0 373.333 -69.333 504 -208s196 -322 196 -550s-65.333 -411.333 -196 -550s-298.667 -208 -504 -208c-206 0 -374.667 69.5 -506 208.5s-197 322.167 -197 549.5c0 228 65.667 411.333 197 550s300 208 506 208zM797 141
c146.667 0 266.832 52 360.499 156s140.5 249.333 140.5 436s-46.667 332 -140 436s-212.333 156 -357 156c-147.333 0 -268.166 -52 -362.499 -156s-141.5 -249.333 -141.5 -436c0 -186 47 -331.167 141 -435.5s213.667 -156.5 359 -156.5zM1113 1559h-204l-113 170
l-113 -170h-204l221 281h192z" />
    <glyph glyph-name="Otilde" unicode="&#xd5;" horiz-adv-x="1593" 
d="M799 1491c205.333 0 373.333 -69.333 504 -208s196 -322 196 -550s-65.333 -411.333 -196 -550s-298.667 -208 -504 -208c-206 0 -374.667 69.5 -506 208.5s-197 322.167 -197 549.5c0 228 65.667 411.333 197 550s300 208 506 208zM797 141
c146.667 0 266.832 52 360.499 156s140.5 249.333 140.5 436s-46.667 332 -140 436s-212.333 156 -357 156c-147.333 0 -268.166 -52 -362.499 -156s-141.5 -249.333 -141.5 -436c0 -186 47 -331.167 141 -435.5s213.667 -156.5 359 -156.5zM1133 1816
c0 -71.333 -19.333 -127.333 -58 -168s-87 -61 -145 -61c-34.667 0 -82.334 14 -143.001 42s-101 42 -121 42c-42 0 -66 -28.667 -72 -86h-131c0 71.333 19.333 127.333 58 168s87 61 145 61c34.667 0 82.334 -14 143.001 -42s101 -42 121 -42c42 0 66 28.667 72 86h131z
" />
    <glyph glyph-name="Odieresis" unicode="&#xd6;" horiz-adv-x="1593" 
d="M799 1491c205.333 0 373.333 -69.333 504 -208s196 -322 196 -550s-65.333 -411.333 -196 -550s-298.667 -208 -504 -208c-206 0 -374.667 69.5 -506 208.5s-197 322.167 -197 549.5c0 228 65.667 411.333 197 550s300 208 506 208zM797 141
c146.667 0 266.832 52 360.499 156s140.5 249.333 140.5 436s-46.667 332 -140 436s-212.333 156 -357 156c-147.333 0 -268.166 -52 -362.499 -156s-141.5 -249.333 -141.5 -436c0 -186 47 -331.167 141 -435.5s213.667 -156.5 359 -156.5zM1075 1599h-184v205h184v-205z
M704.998 1599h-185v205h185v-205z" />
    <glyph glyph-name="multiply" unicode="&#xd7;" horiz-adv-x="1196" 
d="M1030 410l-119 -119l-313 313l-313 -313l-119 119l313 313l-313 313l119 119l313 -313l313 313l119 -119l-313 -313z" />
    <glyph glyph-name="Oslash" unicode="&#xd8;" horiz-adv-x="1593" 
d="M1516 1438l-177 -197c106.667 -136 160 -305.333 160 -508c0 -228 -65.333 -411.333 -196 -550s-298.667 -208 -504 -208c-174.667 0 -325 52 -451 156l-168 -186l-100 84l176 196c-106.667 138 -160 307.333 -160 508c0 228 65.667 411.333 197 550s300 208 506 208
c174.667 0 324 -52 448 -156l168 187zM1126 1200c-88 83.333 -196.334 125 -325.001 125c-147.333 0 -268.166 -52 -362.499 -156s-141.5 -249.333 -141.5 -436c0 -144.667 29.333 -266 88 -364zM468.999 266c88.667 -83.333 197.999 -125 327.999 -125
c146.667 0 266.834 52 360.501 156s140.5 249.333 140.5 436c0 145.333 -29.333 267 -88 365z" />
    <glyph glyph-name="Ugrave" unicode="&#xd9;" horiz-adv-x="1479" 
d="M739 -25c-170 0 -297.171 33 -381.504 99s-137.666 143.667 -159.999 233s-33.5 193 -33.5 311v848h194v-845c0 -192.667 32.333 -319.334 97 -380.001s159.334 -91 284.001 -91s219.334 30.333 284.001 91s97 187.334 97 380.001v845h195v-848
c0 -177.333 -21.167 -308 -63.5 -392s-106.166 -146.833 -191.499 -188.5s-192.333 -62.5 -321 -62.5zM853.996 1559h-148l-221 281h236z" />
    <glyph glyph-name="Uacute" unicode="&#xda;" horiz-adv-x="1479" 
d="M739 -25c-170 0 -297.171 33 -381.504 99s-137.666 143.667 -159.999 233s-33.5 193 -33.5 311v848h194v-845c0 -192.667 32.333 -319.334 97 -380.001s159.334 -91 284.001 -91s219.334 30.333 284.001 91s97 187.334 97 380.001v845h195v-848
c0 -177.333 -21.167 -308 -63.5 -392s-106.166 -146.833 -191.499 -188.5s-192.333 -62.5 -321 -62.5zM995.996 1840l-221 -281h-148l133 281h236z" />
    <glyph glyph-name="Ucircumflex" unicode="&#xdb;" horiz-adv-x="1479" 
d="M739 -25c-170 0 -297.171 33 -381.504 99s-137.666 143.667 -159.999 233s-33.5 193 -33.5 311v848h194v-845c0 -192.667 32.333 -319.334 97 -380.001s159.334 -91 284.001 -91s219.334 30.333 284.001 91s97 187.334 97 380.001v845h195v-848
c0 -177.333 -21.167 -308 -63.5 -392s-106.166 -146.833 -191.499 -188.5s-192.333 -62.5 -321 -62.5zM1056 1559h-204l-113 170l-113 -170h-204l221 281h192z" />
    <glyph glyph-name="Udieresis" unicode="&#xdc;" horiz-adv-x="1479" 
d="M739 -25c-170 0 -297.171 33 -381.504 99s-137.666 143.667 -159.999 233s-33.5 193 -33.5 311v848h194v-845c0 -192.667 32.333 -319.334 97 -380.001s159.334 -91 284.001 -91s219.334 30.333 284.001 91s97 187.334 97 380.001v845h195v-848
c0 -177.333 -21.167 -308 -63.5 -392s-106.166 -146.833 -191.499 -188.5s-192.333 -62.5 -321 -62.5zM1018 1599h-184v205h184v-205zM647.996 1599h-185v205h185v-205z" />
    <glyph glyph-name="Yacute" unicode="&#xdd;" horiz-adv-x="1366" 
d="M1356 1466l-576 -845v-621h-194v621l-576 845h236l438 -675l436 675h236zM938 1840l-221 -281h-148l133 281h236z" />
    <glyph glyph-name="Thorn" unicode="&#xde;" horiz-adv-x="1366" 
d="M358 1178l353 0.000976562c120 0 220.5 -11.167 301.5 -33.5s145.167 -70.833 192.5 -145.5s71 -157.667 71 -249c0 -148.667 -47 -261.334 -141 -338.001s-230 -115 -408 -115h-369v-297h-194v1466h194v-288zM358 471.001l371 0.000976562
c124.667 0 213.5 23.5 266.5 70.5s79.5 114.167 79.5 201.5c0 58.667 -14.667 110.667 -44 156s-66.5 74.166 -111.5 86.499s-109.833 18.5 -194.5 18.5h-367v-533z" />
    <glyph glyph-name="germandbls" unicode="&#xdf;" horiz-adv-x="1251" 
d="M139 0l-0.00195312 999.001c0 328 144.667 492 434 492c114.667 0 205.834 -27.667 273.501 -83s101.5 -123.333 101.5 -204c0 -67.333 -34.667 -161.333 -104 -282c-31.333 -55.333 -47 -97 -47 -125c0 -30.667 11.167 -56.834 33.5 -78.501s73 -58.5 152 -110.5
s132 -100.5 159 -145.5s40.5 -95.5 40.5 -151.5c0 -94.667 -34.167 -174.334 -102.5 -239.001s-155.833 -97 -262.5 -97c-100 0 -183.167 25 -249.5 75s-101.833 116 -106.5 198h180c10.667 -83.333 68 -125 172 -125c54 0 97.5 16.333 130.5 49s49.5 74.334 49.5 125.001
c0 44.667 -11 79.167 -33 103.5s-68.167 58.833 -138.5 103.5s-123.5 86.5 -159.5 125.5s-54 85.167 -54 138.5c0 46 24.667 113 74 201c58.667 104.667 88 177 88 217c0 45.333 -18.667 82.833 -56 112.5s-85.666 44.5 -144.999 44.5c-76 0 -135.167 -24.5 -177.5 -73.5
s-63.5 -141.833 -63.5 -278.5v-991h-189z" />
    <glyph glyph-name="agrave" unicode="&#xe0;" 
d="M811 279v235h-129c-273.333 0 -410 -74.333 -410 -223c0 -54 20 -95.5 60 -124.5s94 -43.5 162 -43.5c62 0 122 14 180 42s103.667 66 137 114zM811 109c-96 -89.333 -219.667 -134 -371 -134c-105.333 0 -192 28.5 -260 85.5s-102 130.5 -102 220.5
c0 248 213.667 372 641 372h92c0 76 -4 131.167 -12 165.5s-30.333 62.833 -67 85.5s-95 34 -175 34c-168 0 -254.667 -60 -260 -180h-188c14 218 166.667 327 458 327c136 0 242 -27 318 -81s114 -160 114 -318v-686h-188v109zM684 1210h-148l-221 281h236z" />
    <glyph glyph-name="aacute" unicode="&#xe1;" 
d="M811 279v235h-129c-273.333 0 -410 -74.333 -410 -223c0 -54 20 -95.5 60 -124.5s94 -43.5 162 -43.5c62 0 122 14 180 42s103.667 66 137 114zM811 109c-96 -89.333 -219.667 -134 -371 -134c-105.333 0 -192 28.5 -260 85.5s-102 130.5 -102 220.5
c0 248 213.667 372 641 372h92c0 76 -4 131.167 -12 165.5s-30.333 62.833 -67 85.5s-95 34 -175 34c-168 0 -254.667 -60 -260 -180h-188c14 218 166.667 327 458 327c136 0 242 -27 318 -81s114 -160 114 -318v-686h-188v109zM826 1491l-221 -281h-148l133 281h236z" />
    <glyph glyph-name="acircumflex" unicode="&#xe2;" 
d="M811 279v235h-129c-273.333 0 -410 -74.333 -410 -223c0 -54 20 -95.5 60 -124.5s94 -43.5 162 -43.5c62 0 122 14 180 42s103.667 66 137 114zM811 109c-96 -89.333 -219.667 -134 -371 -134c-105.333 0 -192 28.5 -260 85.5s-102 130.5 -102 220.5
c0 248 213.667 372 641 372h92c0 76 -4 131.167 -12 165.5s-30.333 62.833 -67 85.5s-95 34 -175 34c-168 0 -254.667 -60 -260 -180h-188c14 218 166.667 327 458 327c136 0 242 -27 318 -81s114 -160 114 -318v-686h-188v109zM886 1210h-204l-113 170l-113 -170h-204
l221 281h192z" />
    <glyph glyph-name="atilde" unicode="&#xe3;" 
d="M811 279v235h-129c-273.333 0 -410 -74.333 -410 -223c0 -54 20 -95.5 60 -124.5s94 -43.5 162 -43.5c62 0 122 14 180 42s103.667 66 137 114zM811 109c-96 -89.333 -219.667 -134 -371 -134c-105.333 0 -192 28.5 -260 85.5s-102 130.5 -102 220.5
c0 248 213.667 372 641 372h92c0 76 -4 131.167 -12 165.5s-30.333 62.833 -67 85.5s-95 34 -175 34c-168 0 -254.667 -60 -260 -180h-188c14 218 166.667 327 458 327c136 0 242 -27 318 -81s114 -160 114 -318v-686h-188v109zM906 1468
c0 -71.333 -19.333 -127.333 -58 -168s-87 -61 -145 -61c-34.667 0 -82.334 14 -143.001 42s-101 42 -121 42c-42 0 -66 -28.667 -72 -86h-131c0 71.333 19.333 127.333 58 168s87 61 145 61c34.667 0 82.334 -14 143.001 -42s101 -42 121 -42c42 0 66 28.667 72 86h131z
" />
    <glyph glyph-name="adieresis" unicode="&#xe4;" 
d="M811 279v235h-129c-273.333 0 -410 -74.333 -410 -223c0 -54 20 -95.5 60 -124.5s94 -43.5 162 -43.5c62 0 122 14 180 42s103.667 66 137 114zM811 109c-96 -89.333 -219.667 -134 -371 -134c-105.333 0 -192 28.5 -260 85.5s-102 130.5 -102 220.5
c0 248 213.667 372 641 372h92c0 76 -4 131.167 -12 165.5s-30.333 62.833 -67 85.5s-95 34 -175 34c-168 0 -254.667 -60 -260 -180h-188c14 218 166.667 327 458 327c136 0 242 -27 318 -81s114 -160 114 -318v-686h-188v109zM848 1251h-184v205h184v-205zM478 1251h-185
v205h185v-205z" />
    </font>
</defs>
</svg>
